<?xml version="1.0" encoding="utf-8"?>
<!-- Generator: Adobe Illustrator 19.2.0, SVG Export Plug-In . SVG Version: 6.00 Build 0)  -->
<svg version="1.1" id="Layer_1" xmlns="http://www.w3.org/2000/svg" xmlns:xlink="http://www.w3.org/1999/xlink" x="0px" y="0px"
	 viewBox="0 0 3084.5 1512.5" style="enable-background:new 0 0 3084.5 1512.5;" xml:space="preserve">
<style type="text/css">
	.st0{fill:none;stroke:#006600;stroke-width:5.1345;stroke-miterlimit:10;}
	.st1{fill:none;stroke:#5EC936;stroke-width:5.1345;stroke-miterlimit:10;}
	.st2{fill:#5EC936;}
	.st3{fill:none;stroke:#5EC936;stroke-width:5.0229;stroke-miterlimit:10;}
	.st4{fill:none;stroke:#5EC936;stroke-width:4.9593;stroke-miterlimit:10;}
	.st5{fill:none;stroke:#006600;stroke-width:5.135;stroke-miterlimit:10;}
	.st6{fill:#006600;}
</style>
<g id="Layer_1_1_">
	<g>
		<g>
			<g>
				<line class="st0" x1="78.8" y1="1269" x2="78.8" y2="1468.3"/>
				<line class="st0" x1="142.7" y1="1269.5" x2="142.7" y2="1468.3"/>
				<line class="st0" x1="78.8" y1="1291.4" x2="142.7" y2="1291.4"/>
				<line class="st0" x1="78.8" y1="1324.3" x2="144.6" y2="1324.3"/>
				<line class="st0" x1="78.8" y1="1357.2" x2="143.7" y2="1357.2"/>
				<line class="st0" x1="78.8" y1="1387.2" x2="143.6" y2="1387.2"/>
				<line class="st0" x1="78.8" y1="1416.3" x2="143.7" y2="1416.3"/>
				<line class="st0" x1="78.8" y1="1446.3" x2="142.7" y2="1446.3"/>
			</g>
		</g>
		<g>
			<line class="st1" x1="-8.8" y1="1064.3" x2="366.9" y2="1064.3"/>
			<line class="st1" x1="-8.8" y1="1110.1" x2="366.9" y2="1110.1"/>
			<line class="st1" x1="0.3" y1="1110.1" x2="45.6" y2="1064.8"/>
			<line class="st1" x1="45.6" y1="1064.8" x2="92.3" y2="1111.5"/>
			<line class="st1" x1="92.3" y1="1111.5" x2="136.6" y2="1067.2"/>
			<line class="st1" x1="136.6" y1="1067.2" x2="181.7" y2="1112.2"/>
			<line class="st1" x1="181.7" y1="1112.2" x2="230.3" y2="1063.6"/>
			<line class="st1" x1="230.3" y1="1063.6" x2="276.3" y2="1109.6"/>
			<line class="st1" x1="276.3" y1="1109.6" x2="321.6" y2="1064.3"/>
			<line class="st1" x1="321.6" y1="1064.3" x2="366.9" y2="1109.6"/>
		</g>
		<g>
			<line class="st1" x1="-8.8" y1="1468.1" x2="366" y2="1468.1"/>
			<line class="st1" x1="-8.8" y1="1513.8" x2="377.4" y2="1513.8"/>
			<line class="st1" x1="0.3" y1="1513.8" x2="45.6" y2="1468.5"/>
			<line class="st1" x1="45.6" y1="1468.5" x2="92.3" y2="1515.3"/>
			<line class="st1" x1="92.3" y1="1515.3" x2="136.6" y2="1470.9"/>
			<line class="st1" x1="136.6" y1="1470.9" x2="181.7" y2="1516"/>
			<line class="st1" x1="181.7" y1="1516" x2="230.3" y2="1467.3"/>
			<line class="st1" x1="230.3" y1="1467.3" x2="276.3" y2="1513.3"/>
			<line class="st1" x1="276.3" y1="1513.3" x2="321.6" y2="1468.1"/>
			<line class="st1" x1="321.6" y1="1468.1" x2="366.9" y2="1513.3"/>
		</g>
		<g>
			<line class="st1" x1="487.3" y1="1468.1" x2="728" y2="1468.1"/>
			<path class="st1" d="M372.8,1468.1"/>
			<path class="st1" d="M341.9,1468.1"/>
			<line class="st1" x1="341.9" y1="1513.8" x2="728" y2="1513.8"/>
			<path class="st1" d="M396.3,1468.5"/>
			<path class="st1" d="M351,1513.8"/>
			<path class="st1" d="M443,1515.3"/>
			<path class="st1" d="M396.3,1468.5"/>
			<path class="st1" d="M487.3,1470.9"/>
			<path class="st1" d="M443,1515.3"/>
			<line class="st1" x1="487.3" y1="1470.9" x2="532.4" y2="1516"/>
			<line class="st1" x1="532.4" y1="1516" x2="581" y2="1467.3"/>
			<line class="st1" x1="581" y1="1467.3" x2="627" y2="1513.3"/>
			<line class="st1" x1="627" y1="1513.3" x2="672.3" y2="1468.1"/>
			<line class="st1" x1="672.3" y1="1468.1" x2="717.5" y2="1513.3"/>
		</g>
		<g>
			<line class="st1" x1="698.5" y1="1468.1" x2="1084.6" y2="1468.1"/>
			<line class="st1" x1="698.5" y1="1513.8" x2="1084.6" y2="1513.8"/>
			<line class="st1" x1="707.5" y1="1513.8" x2="752.8" y2="1468.5"/>
			<line class="st1" x1="752.8" y1="1468.5" x2="799.5" y2="1515.3"/>
			<line class="st1" x1="799.5" y1="1515.3" x2="843.8" y2="1470.9"/>
			<line class="st1" x1="843.8" y1="1470.9" x2="888.9" y2="1516"/>
			<line class="st1" x1="888.9" y1="1516" x2="937.5" y2="1467.3"/>
			<line class="st1" x1="937.5" y1="1467.3" x2="983.5" y2="1513.3"/>
			<line class="st1" x1="983.5" y1="1513.3" x2="1028.8" y2="1468.1"/>
			<line class="st1" x1="1028.8" y1="1468.1" x2="1074.1" y2="1513.3"/>
		</g>
		<g>
			<path class="st1" d="M1451.1,1468.1"/>
			<line class="st1" x1="1065" y1="1468.1" x2="1359.6" y2="1468.1"/>
			<polyline class="st1" points="1065,1513.8 1354.6,1513.8 1451.1,1513.8 			"/>
			<line class="st1" x1="1074.1" y1="1513.8" x2="1119.4" y2="1468.5"/>
			<line class="st1" x1="1119.4" y1="1468.5" x2="1166.1" y2="1515.3"/>
			<line class="st1" x1="1166.1" y1="1515.3" x2="1210.4" y2="1470.9"/>
			<line class="st1" x1="1210.4" y1="1470.9" x2="1255.5" y2="1516"/>
			<line class="st1" x1="1255.5" y1="1516" x2="1304.1" y2="1467.3"/>
			<line class="st1" x1="1304.1" y1="1467.3" x2="1350.1" y2="1513.3"/>
			<path class="st1" d="M1395.4,1468.1"/>
			<path class="st1" d="M1350.1,1513.3"/>
			<path class="st1" d="M1440.7,1513.3"/>
			<path class="st1" d="M1395.4,1468.1"/>
		</g>
		<g>
			<line class="st1" x1="1481.8" y1="1468.1" x2="1816.2" y2="1468.1"/>
			<path class="st1" d="M1432.1,1468.1"/>
			<polyline class="st1" points="1432.1,1513.8 1484.8,1513.8 1818.2,1513.8 			"/>
			<path class="st1" d="M1486.4,1468.5"/>
			<path class="st1" d="M1441.1,1513.8"/>
			<line class="st1" x1="1486.4" y1="1468.5" x2="1533.1" y2="1515.3"/>
			<line class="st1" x1="1533.1" y1="1515.3" x2="1577.5" y2="1470.9"/>
			<line class="st1" x1="1577.5" y1="1470.9" x2="1622.5" y2="1516"/>
			<line class="st1" x1="1622.5" y1="1516" x2="1671.1" y2="1467.3"/>
			<line class="st1" x1="1671.1" y1="1467.3" x2="1717.1" y2="1513.3"/>
			<line class="st1" x1="1717.1" y1="1513.3" x2="1762.4" y2="1468.1"/>
			<line class="st1" x1="1762.4" y1="1468.1" x2="1807.7" y2="1513.3"/>
		</g>
		<g>
			<line class="st1" x1="1791.9" y1="1468.1" x2="2178" y2="1468.1"/>
			<line class="st1" x1="1791.9" y1="1513.8" x2="2178" y2="1513.8"/>
			<line class="st1" x1="1801" y1="1513.8" x2="1846.3" y2="1468.5"/>
			<line class="st1" x1="1846.3" y1="1468.5" x2="1893" y2="1515.3"/>
			<line class="st1" x1="1893" y1="1515.3" x2="1937.3" y2="1470.9"/>
			<line class="st1" x1="1937.3" y1="1470.9" x2="1982.4" y2="1516"/>
			<line class="st1" x1="1982.4" y1="1516" x2="2031" y2="1467.3"/>
			<line class="st1" x1="2031" y1="1467.3" x2="2077" y2="1513.3"/>
			<line class="st1" x1="2077" y1="1513.3" x2="2122.3" y2="1468.1"/>
			<line class="st1" x1="2122.3" y1="1468.1" x2="2167.6" y2="1513.3"/>
		</g>
		<g>
			<line class="st1" x1="2175.2" y1="1468.1" x2="2561.3" y2="1468.1"/>
			<line class="st1" x1="2175.2" y1="1513.8" x2="2561.3" y2="1513.8"/>
			<line class="st1" x1="2184.3" y1="1513.8" x2="2229.6" y2="1468.5"/>
			<line class="st1" x1="2229.6" y1="1468.5" x2="2276.3" y2="1515.3"/>
			<line class="st1" x1="2276.3" y1="1515.3" x2="2320.6" y2="1470.9"/>
			<line class="st1" x1="2320.6" y1="1470.9" x2="2365.7" y2="1516"/>
			<line class="st1" x1="2365.7" y1="1516" x2="2414.3" y2="1467.3"/>
			<line class="st1" x1="2414.3" y1="1467.3" x2="2460.3" y2="1513.3"/>
			<line class="st1" x1="2460.3" y1="1513.3" x2="2505.6" y2="1468.1"/>
			<line class="st1" x1="2505.6" y1="1468.1" x2="2550.8" y2="1513.3"/>
		</g>
		<g>
			<line class="st1" x1="2892.7" y1="1468.1" x2="3278.8" y2="1468.1"/>
			<line class="st1" x1="2892.7" y1="1513.8" x2="3278.8" y2="1513.8"/>
			<line class="st1" x1="2901.8" y1="1513.8" x2="2947.1" y2="1468.5"/>
			<line class="st1" x1="2947.1" y1="1468.5" x2="2993.8" y2="1515.3"/>
			<line class="st1" x1="2993.8" y1="1515.3" x2="3038.1" y2="1470.9"/>
			<line class="st1" x1="3038.1" y1="1470.9" x2="3083.2" y2="1516"/>
			<line class="st1" x1="3083.2" y1="1516" x2="3131.8" y2="1467.3"/>
			<line class="st1" x1="3131.8" y1="1467.3" x2="3177.8" y2="1513.3"/>
			<line class="st1" x1="3177.8" y1="1513.3" x2="3223.1" y2="1468.1"/>
			<line class="st1" x1="3223.1" y1="1468.1" x2="3268.3" y2="1513.3"/>
		</g>
		<g>
			<g>
				<line class="st0" x1="1107.5" y1="864.3" x2="1107.5" y2="1063.6"/>
				<line class="st0" x1="1171.3" y1="864.8" x2="1171.3" y2="1063.6"/>
				<line class="st0" x1="1107.5" y1="886.7" x2="1171.3" y2="886.7"/>
				<line class="st0" x1="1107.5" y1="919.6" x2="1173.2" y2="919.6"/>
				<line class="st0" x1="1107.5" y1="952.5" x2="1172.4" y2="952.5"/>
				<line class="st0" x1="1107.5" y1="982.6" x2="1172.2" y2="982.6"/>
				<line class="st0" x1="1107.5" y1="1011.6" x2="1172.3" y2="1011.6"/>
				<line class="st0" x1="1107.5" y1="1041.7" x2="1171.3" y2="1041.7"/>
			</g>
		</g>
		<g>
			<g>
				<line class="st0" x1="949.2" y1="1267" x2="949.2" y2="1466.3"/>
				<line class="st0" x1="1013.1" y1="1267.5" x2="1013.1" y2="1466.3"/>
				<line class="st0" x1="949.2" y1="1289.4" x2="1013.1" y2="1289.4"/>
				<line class="st0" x1="949.2" y1="1322.3" x2="1015" y2="1322.3"/>
				<line class="st0" x1="949.2" y1="1355.2" x2="1014.2" y2="1355.2"/>
				<line class="st0" x1="949.2" y1="1385.2" x2="1014" y2="1385.2"/>
				<line class="st0" x1="949.2" y1="1414.3" x2="1014.1" y2="1414.3"/>
				<line class="st0" x1="949.2" y1="1444.3" x2="1013.1" y2="1444.3"/>
			</g>
		</g>
		<g>
			<g>
				<line class="st0" x1="797.1" y1="1267" x2="797.1" y2="1466.3"/>
				<line class="st0" x1="861" y1="1267.5" x2="861" y2="1466.3"/>
				<line class="st0" x1="797.1" y1="1289.4" x2="861" y2="1289.4"/>
				<line class="st0" x1="797.1" y1="1322.3" x2="862.9" y2="1322.3"/>
				<line class="st0" x1="797.1" y1="1355.2" x2="862.1" y2="1355.2"/>
				<line class="st0" x1="797.1" y1="1385.2" x2="861.9" y2="1385.2"/>
				<line class="st0" x1="797.1" y1="1414.3" x2="862" y2="1414.3"/>
				<line class="st0" x1="797.1" y1="1444.3" x2="861" y2="1444.3"/>
			</g>
		</g>
		<g>
			<g>
				<line class="st0" x1="1799.4" y1="1109" x2="1799.4" y2="1308.2"/>
				<line class="st0" x1="1863.3" y1="1109.5" x2="1863.3" y2="1308.2"/>
				<line class="st0" x1="1799.4" y1="1131.4" x2="1863.3" y2="1131.4"/>
				<line class="st0" x1="1799.4" y1="1164.3" x2="1865.2" y2="1164.3"/>
				<line class="st0" x1="1799.4" y1="1197.2" x2="1864.4" y2="1197.2"/>
				<line class="st0" x1="1799.4" y1="1227.2" x2="1864.2" y2="1227.2"/>
				<line class="st0" x1="1799.4" y1="1256.3" x2="1864.3" y2="1256.3"/>
				<line class="st0" x1="1799.4" y1="1286.3" x2="1863.3" y2="1286.3"/>
			</g>
		</g>
		<g>
			<g>
				<line class="st0" x1="2710.7" y1="1109.2" x2="2710.7" y2="1308.5"/>
				<line class="st0" x1="2774.5" y1="1109.7" x2="2774.5" y2="1308.5"/>
				<line class="st0" x1="2710.7" y1="1131.6" x2="2774.5" y2="1131.6"/>
				<line class="st0" x1="2710.7" y1="1164.5" x2="2776.4" y2="1164.5"/>
				<line class="st0" x1="2710.7" y1="1197.4" x2="2775.6" y2="1197.4"/>
				<line class="st0" x1="2710.7" y1="1227.4" x2="2775.4" y2="1227.4"/>
				<line class="st0" x1="2710.7" y1="1256.5" x2="2775.5" y2="1256.5"/>
				<line class="st0" x1="2710.7" y1="1286.5" x2="2774.5" y2="1286.5"/>
			</g>
		</g>
		<g>
			<g>
				<line class="st0" x1="2583.8" y1="1352.4" x2="2583.8" y2="1468.5"/>
				<line class="st0" x1="2647.6" y1="1352.9" x2="2647.6" y2="1468.5"/>
				<line class="st0" x1="2583.8" y1="1374.8" x2="2647.6" y2="1374.8"/>
				<line class="st0" x1="2583.8" y1="1407.7" x2="2649.5" y2="1407.7"/>
				<line class="st0" x1="2583.8" y1="1440.6" x2="2648.7" y2="1440.6"/>
				<path class="st0" d="M2648.5,1470.6"/>
				<path class="st0" d="M2583.8,1470.6"/>
				<path class="st0" d="M2648.6,1499.7"/>
				<path class="st0" d="M2583.8,1499.7"/>
				<line class="st0" x1="2583.8" y1="1529.7" x2="2647.6" y2="1529.7"/>
			</g>
		</g>
		<g>
			<g>
				<g>
					<line class="st0" x1="724.7" y1="636" x2="724.7" y2="1063.6"/>
					<line class="st0" x1="788.6" y1="636" x2="788.6" y2="1063.6"/>
					<line class="st0" x1="724.7" y1="886.7" x2="788.6" y2="886.7"/>
					<line class="st0" x1="724.7" y1="854.3" x2="788.6" y2="854.3"/>
					<line class="st0" x1="724.7" y1="823.8" x2="788.6" y2="823.8"/>
					<line class="st0" x1="724.7" y1="793.6" x2="788.6" y2="793.6"/>
					<line class="st0" x1="724.7" y1="763.1" x2="788.6" y2="763.1"/>
					<line class="st0" x1="724.7" y1="730.7" x2="788.6" y2="730.7"/>
					<line class="st0" x1="724.7" y1="702.1" x2="788.6" y2="702.1"/>
					<line class="st0" x1="724.7" y1="671.3" x2="788.6" y2="671.3"/>
					<line class="st0" x1="724.7" y1="644.9" x2="788.6" y2="644.9"/>
					<line class="st0" x1="724.7" y1="919.6" x2="790.5" y2="919.6"/>
					<line class="st0" x1="724.7" y1="952.5" x2="789.7" y2="952.5"/>
					<line class="st0" x1="724.7" y1="982.6" x2="789.5" y2="982.6"/>
				</g>
				<line class="st0" x1="724.7" y1="1011.6" x2="789.6" y2="1011.6"/>
				<line class="st0" x1="724.7" y1="1041.7" x2="788.6" y2="1041.7"/>
			</g>
		</g>
		<g>
			<line class="st1" x1="2534.7" y1="1468.1" x2="2920.8" y2="1468.1"/>
			<line class="st1" x1="2534.7" y1="1513.8" x2="2920.8" y2="1513.8"/>
			<line class="st1" x1="2543.8" y1="1513.8" x2="2589" y2="1468.5"/>
			<line class="st1" x1="2589" y1="1468.5" x2="2635.8" y2="1515.3"/>
			<line class="st1" x1="2635.8" y1="1515.3" x2="2680.1" y2="1470.9"/>
			<line class="st1" x1="2680.1" y1="1470.9" x2="2725.1" y2="1516"/>
			<line class="st1" x1="2725.1" y1="1516" x2="2773.8" y2="1467.3"/>
			<line class="st1" x1="2773.8" y1="1467.3" x2="2819.8" y2="1513.3"/>
			<line class="st1" x1="2819.8" y1="1513.3" x2="2865" y2="1468.1"/>
			<line class="st1" x1="2865" y1="1468.1" x2="2910.3" y2="1513.3"/>
		</g>
		<g>
			<g>
				<g>
					<line class="st0" x1="612.3" y1="636" x2="612.3" y2="1063.6"/>
					<line class="st0" x1="676.1" y1="636" x2="676.1" y2="1063.6"/>
					<line class="st0" x1="612.3" y1="886.7" x2="676.1" y2="886.7"/>
					<line class="st0" x1="612.3" y1="854.3" x2="676.1" y2="854.3"/>
					<line class="st0" x1="612.3" y1="823.8" x2="676.1" y2="823.8"/>
					<line class="st0" x1="612.3" y1="793.6" x2="676.1" y2="793.6"/>
					<line class="st0" x1="612.3" y1="763.1" x2="676.1" y2="763.1"/>
					<line class="st0" x1="612.3" y1="730.7" x2="676.1" y2="730.7"/>
					<line class="st0" x1="612.3" y1="702.1" x2="676.1" y2="702.1"/>
					<line class="st0" x1="612.3" y1="671.3" x2="676.1" y2="671.3"/>
					<line class="st0" x1="612.3" y1="644.9" x2="676.1" y2="644.9"/>
					<line class="st0" x1="612.3" y1="919.6" x2="678" y2="919.6"/>
					<line class="st0" x1="612.3" y1="952.5" x2="677.2" y2="952.5"/>
					<line class="st0" x1="612.3" y1="982.6" x2="677" y2="982.6"/>
				</g>
				<line class="st0" x1="612.3" y1="1011.6" x2="677.1" y2="1011.6"/>
				<line class="st0" x1="612.3" y1="1041.7" x2="676.1" y2="1041.7"/>
			</g>
		</g>
		<g>
			<g>
				<g>
					<line class="st0" x1="2937.8" y1="640.5" x2="2937.8" y2="1068.1"/>
					<line class="st0" x1="3001.6" y1="640.5" x2="3001.6" y2="1068.1"/>
					<line class="st0" x1="2937.8" y1="891.3" x2="3001.6" y2="891.3"/>
					<line class="st0" x1="2937.8" y1="858.9" x2="3001.6" y2="858.9"/>
					<line class="st0" x1="2937.8" y1="828.4" x2="3001.6" y2="828.4"/>
					<line class="st0" x1="2937.8" y1="798.2" x2="3001.6" y2="798.2"/>
					<line class="st0" x1="2937.8" y1="767.7" x2="3001.6" y2="767.7"/>
					<line class="st0" x1="2937.8" y1="735.2" x2="3001.6" y2="735.2"/>
					<line class="st0" x1="2937.8" y1="706.6" x2="3001.6" y2="706.6"/>
					<line class="st0" x1="2937.8" y1="675.8" x2="3001.6" y2="675.8"/>
					<line class="st0" x1="2937.8" y1="649.4" x2="3001.6" y2="649.4"/>
					<line class="st0" x1="2937.8" y1="924.2" x2="3003.5" y2="924.2"/>
					<line class="st0" x1="2937.8" y1="957.1" x2="3002.7" y2="957.1"/>
					<line class="st0" x1="2937.8" y1="987.1" x2="3002.5" y2="987.1"/>
				</g>
				<line class="st0" x1="2937.8" y1="1016.2" x2="3002.6" y2="1016.2"/>
				<line class="st0" x1="2937.8" y1="1046.2" x2="3001.6" y2="1046.2"/>
			</g>
		</g>
		<g>
			<line class="st1" x1="789" y1="819.1" x2="1175.2" y2="819.1"/>
			<line class="st1" x1="789" y1="864.8" x2="1175.2" y2="864.8"/>
			<line class="st1" x1="798.1" y1="864.8" x2="843.4" y2="819.5"/>
			<line class="st1" x1="843.4" y1="819.5" x2="890.1" y2="866.3"/>
			<line class="st1" x1="890.1" y1="866.3" x2="934.4" y2="821.9"/>
			<line class="st1" x1="934.4" y1="821.9" x2="979.5" y2="867"/>
			<line class="st1" x1="979.5" y1="867" x2="1028.1" y2="818.3"/>
			<line class="st1" x1="1028.1" y1="818.3" x2="1074.1" y2="864.3"/>
			<line class="st1" x1="1074.1" y1="864.3" x2="1119.4" y2="819.1"/>
			<line class="st1" x1="1119.4" y1="819.1" x2="1164.7" y2="864.3"/>
		</g>
		<g>
			<line class="st1" x1="982.1" y1="1064.3" x2="1357.9" y2="1064.3"/>
			<line class="st1" x1="982.1" y1="1110.1" x2="1357.7" y2="1110.1"/>
			<line class="st1" x1="991.2" y1="1110.1" x2="1036.4" y2="1064.8"/>
			<line class="st1" x1="1036.4" y1="1064.8" x2="1083.2" y2="1111.5"/>
			<line class="st1" x1="1083.2" y1="1111.5" x2="1127.5" y2="1067.2"/>
			<line class="st1" x1="1127.5" y1="1067.2" x2="1172.5" y2="1112.2"/>
			<line class="st1" x1="1172.5" y1="1112.2" x2="1221.2" y2="1063.6"/>
			<line class="st1" x1="1221.2" y1="1063.6" x2="1267.2" y2="1109.6"/>
			<line class="st1" x1="1267.2" y1="1109.6" x2="1312.4" y2="1064.3"/>
			<line class="st1" x1="1312.4" y1="1064.3" x2="1357.7" y2="1109.6"/>
		</g>
		<g>
			<line class="st1" x1="1479.7" y1="1064.3" x2="1865.8" y2="1064.3"/>
			<line class="st1" x1="1479.7" y1="1110.1" x2="1865.8" y2="1110.1"/>
			<line class="st1" x1="1488.8" y1="1110.1" x2="1534.1" y2="1064.8"/>
			<line class="st1" x1="1534.1" y1="1064.8" x2="1580.8" y2="1111.5"/>
			<line class="st1" x1="1580.8" y1="1111.5" x2="1625.1" y2="1067.2"/>
			<line class="st1" x1="1625.1" y1="1067.2" x2="1670.2" y2="1112.2"/>
			<line class="st1" x1="1670.2" y1="1112.2" x2="1718.8" y2="1063.6"/>
			<line class="st1" x1="1718.8" y1="1063.6" x2="1764.8" y2="1109.6"/>
			<line class="st1" x1="1764.8" y1="1109.6" x2="1810.1" y2="1064.3"/>
			<line class="st1" x1="1810.1" y1="1064.3" x2="1855.4" y2="1109.6"/>
		</g>
		<g>
			<line class="st1" x1="2708.6" y1="1064.3" x2="3094.7" y2="1064.3"/>
			<line class="st1" x1="2708.6" y1="1110.1" x2="3094.7" y2="1110.1"/>
			<line class="st1" x1="2717.7" y1="1110.1" x2="2762.9" y2="1064.8"/>
			<line class="st1" x1="2762.9" y1="1064.8" x2="2809.7" y2="1111.5"/>
			<line class="st1" x1="2809.7" y1="1111.5" x2="2854" y2="1067.2"/>
			<line class="st1" x1="2854" y1="1067.2" x2="2899" y2="1112.2"/>
			<line class="st1" x1="2899" y1="1112.2" x2="2947.7" y2="1063.6"/>
			<line class="st1" x1="2947.7" y1="1063.6" x2="2993.7" y2="1109.6"/>
			<line class="st1" x1="2993.7" y1="1109.6" x2="3038.9" y2="1064.3"/>
			<line class="st1" x1="3038.9" y1="1064.3" x2="3084.2" y2="1109.6"/>
		</g>
		<g>
			<line class="st1" x1="1313.2" y1="1303.5" x2="1511.4" y2="1303.5"/>
			<line class="st1" x1="1313.2" y1="1349.2" x2="1511.4" y2="1349.2"/>
			<line class="st1" x1="1322.2" y1="1349.2" x2="1367.5" y2="1304"/>
			<line class="st1" x1="1367.5" y1="1304" x2="1414.2" y2="1350.7"/>
			<line class="st1" x1="1414.2" y1="1350.7" x2="1458.6" y2="1306.3"/>
			<line class="st1" x1="1458.6" y1="1306.3" x2="1503.6" y2="1348.8"/>
			<path class="st1" d="M1552.2,1302.8"/>
			<path class="st1" d="M1501.4,1346.6"/>
			<path class="st1" d="M1598.2,1348.8"/>
			<path class="st1" d="M1552.2,1302.8"/>
			<path class="st1" d="M1643.5,1303.5"/>
			<path class="st1" d="M1598.2,1348.8"/>
			<path class="st1" d="M1688.8,1348.8"/>
			<path class="st1" d="M1643.5,1303.5"/>
		</g>
		<g>
			<line class="st1" x1="1796.8" y1="1309.5" x2="1995" y2="1309.5"/>
			<line class="st1" x1="1796.8" y1="1355.3" x2="1995" y2="1355.3"/>
			<line class="st1" x1="1805.9" y1="1355.3" x2="1851.1" y2="1310"/>
			<line class="st1" x1="1851.1" y1="1310" x2="1897.9" y2="1356.7"/>
			<line class="st1" x1="1897.9" y1="1356.7" x2="1942.2" y2="1312.4"/>
			<line class="st1" x1="1942.2" y1="1312.4" x2="1987.2" y2="1354.9"/>
			<path class="st1" d="M1985,1352.6"/>
		</g>
		<g>
			<line class="st1" x1="2105.3" y1="1215.9" x2="2303.5" y2="1215.9"/>
			<line class="st1" x1="2105.3" y1="1261.7" x2="2303.5" y2="1261.7"/>
			<line class="st1" x1="2114.3" y1="1261.7" x2="2159.6" y2="1216.4"/>
			<line class="st1" x1="2159.6" y1="1216.4" x2="2206.3" y2="1263.1"/>
			<line class="st1" x1="2206.3" y1="1263.1" x2="2250.7" y2="1218.8"/>
			<line class="st1" x1="2250.7" y1="1218.8" x2="2295.7" y2="1261.3"/>
			<path class="st1" d="M2293.5,1259"/>
		</g>
		<g>
			<line class="st1" x1="2437" y1="1150" x2="2635.2" y2="1150"/>
			<line class="st1" x1="2437" y1="1195.7" x2="2635.2" y2="1195.7"/>
			<line class="st1" x1="2446" y1="1195.7" x2="2491.3" y2="1150.5"/>
			<line class="st1" x1="2491.3" y1="1150.5" x2="2538" y2="1197.2"/>
			<line class="st1" x1="2538" y1="1197.2" x2="2582.4" y2="1152.8"/>
			<line class="st1" x1="2582.4" y1="1152.8" x2="2627.4" y2="1195.3"/>
			<path class="st1" d="M2625.2,1193.1"/>
		</g>
		<g>
			<line class="st1" x1="2579.8" y1="1306.6" x2="2778" y2="1306.6"/>
			<line class="st1" x1="2579.8" y1="1352.4" x2="2778" y2="1352.4"/>
			<line class="st1" x1="2588.9" y1="1352.4" x2="2634.2" y2="1307.1"/>
			<line class="st1" x1="2634.2" y1="1307.1" x2="2680.9" y2="1353.8"/>
			<line class="st1" x1="2680.9" y1="1353.8" x2="2725.2" y2="1309.5"/>
			<line class="st1" x1="2725.2" y1="1309.5" x2="2770.3" y2="1352"/>
			<path class="st1" d="M2768,1349.7"/>
		</g>
		<g>
			<line class="st1" x1="818.3" y1="1221.9" x2="1016.5" y2="1221.9"/>
			<line class="st1" x1="818.3" y1="1267.7" x2="1016.5" y2="1267.7"/>
			<line class="st1" x1="827.4" y1="1267.7" x2="872.7" y2="1222.4"/>
			<line class="st1" x1="872.7" y1="1222.4" x2="919.4" y2="1269.1"/>
			<line class="st1" x1="919.4" y1="1269.1" x2="963.7" y2="1224.8"/>
			<line class="st1" x1="963.7" y1="1224.8" x2="1008.8" y2="1267.3"/>
			<path class="st1" d="M1057.4,1221.2"/>
			<path class="st1" d="M1006.5,1265"/>
			<path class="st1" d="M1103.4,1267.2"/>
			<path class="st1" d="M1057.4,1221.2"/>
			<path class="st1" d="M1148.7,1221.9"/>
			<path class="st1" d="M1103.4,1267.2"/>
			<path class="st1" d="M1194,1267.2"/>
			<path class="st1" d="M1148.7,1221.9"/>
		</g>
		<g>
			<line class="st1" x1="639.6" y1="1221.9" x2="837.8" y2="1221.9"/>
			<line class="st1" x1="639.6" y1="1267.7" x2="837.8" y2="1267.7"/>
			<line class="st1" x1="648.6" y1="1267.7" x2="693.9" y2="1222.4"/>
			<line class="st1" x1="693.9" y1="1222.4" x2="740.6" y2="1269.1"/>
			<line class="st1" x1="740.6" y1="1269.1" x2="785" y2="1224.8"/>
			<line class="st1" x1="785" y1="1224.8" x2="830" y2="1267.3"/>
			<path class="st1" d="M878.6,1221.2"/>
			<path class="st1" d="M827.8,1265"/>
			<path class="st1" d="M924.6,1267.2"/>
			<path class="st1" d="M878.6,1221.2"/>
			<path class="st1" d="M969.9,1221.9"/>
			<path class="st1" d="M924.6,1267.2"/>
			<path class="st1" d="M1015.2,1267.2"/>
			<path class="st1" d="M969.9,1221.9"/>
		</g>
		<g>
			<line class="st1" x1="324.5" y1="1220.4" x2="522.7" y2="1220.4"/>
			<line class="st1" x1="324.5" y1="1266.1" x2="522.7" y2="1266.1"/>
			<line class="st1" x1="333.6" y1="1266.1" x2="378.9" y2="1220.9"/>
			<line class="st1" x1="378.9" y1="1220.9" x2="425.6" y2="1267.6"/>
			<line class="st1" x1="425.6" y1="1267.6" x2="469.9" y2="1223.2"/>
			<line class="st1" x1="469.9" y1="1223.2" x2="515" y2="1265.7"/>
			<path class="st1" d="M563.6,1219.7"/>
			<path class="st1" d="M512.7,1263.5"/>
			<path class="st1" d="M609.6,1265.7"/>
			<path class="st1" d="M563.6,1219.7"/>
			<path class="st1" d="M654.9,1220.4"/>
			<path class="st1" d="M609.6,1265.7"/>
			<path class="st1" d="M700.1,1265.7"/>
			<path class="st1" d="M654.9,1220.4"/>
		</g>
		<g>
			<line class="st1" x1="-53.7" y1="1225.8" x2="144.5" y2="1225.8"/>
			<line class="st1" x1="-53.7" y1="1271.6" x2="144.5" y2="1271.6"/>
			<line class="st1" x1="-44.6" y1="1271.6" x2="0.7" y2="1226.3"/>
			<line class="st1" x1="0.7" y1="1226.3" x2="47.4" y2="1273"/>
			<line class="st1" x1="47.4" y1="1273" x2="91.7" y2="1228.7"/>
			<line class="st1" x1="91.7" y1="1228.7" x2="136.8" y2="1271.1"/>
			<path class="st1" d="M185.4,1225.1"/>
			<path class="st1" d="M134.5,1268.9"/>
			<path class="st1" d="M231.4,1271.1"/>
			<path class="st1" d="M185.4,1225.1"/>
			<path class="st1" d="M276.7,1225.8"/>
			<path class="st1" d="M231.4,1271.1"/>
			<path class="st1" d="M322,1271.1"/>
			<path class="st1" d="M276.7,1225.8"/>
		</g>
		<g>
			<line class="st1" x1="488.9" y1="1064.3" x2="866.7" y2="1064.3"/>
			<line class="st1" x1="489.7" y1="1110.1" x2="866.7" y2="1110.1"/>
			<line class="st1" x1="489.7" y1="1110.1" x2="535" y2="1064.8"/>
			<line class="st1" x1="535" y1="1064.8" x2="581.7" y2="1111.5"/>
			<line class="st1" x1="581.7" y1="1111.5" x2="626" y2="1067.2"/>
			<line class="st1" x1="626" y1="1067.2" x2="671.1" y2="1112.2"/>
			<line class="st1" x1="671.1" y1="1112.2" x2="719.7" y2="1063.6"/>
			<line class="st1" x1="719.7" y1="1063.6" x2="765.7" y2="1109.6"/>
			<line class="st1" x1="765.7" y1="1109.6" x2="803.3" y2="1064.3"/>
			<line class="st1" x1="803.3" y1="1064.3" x2="843.4" y2="1109.6"/>
		</g>
		<g>
			<polygon class="st1" points="366.9,1058.3 488.9,1058.3 488.9,1171.8 478.2,1182.5 376.9,1182.5 366.9,1172.5 			"/>
			<polyline class="st1" points="366.9,1087.4 390.3,1087.4 412.8,1115 442.6,1115 464.1,1088.8 488.9,1088.8 			"/>
			<rect x="414.3" y="1067.6" class="st1" width="27.2" height="27.2"/>
			<rect x="389.8" y="1129.4" class="st1" width="74.4" height="35.9"/>
			<rect x="373.9" y="1071.1" class="st2" width="6" height="6"/>
			<rect x="390.3" y="1071.1" class="st2" width="6" height="6"/>
			<rect x="459.8" y="1071.1" class="st2" width="6" height="6"/>
			<rect x="475.6" y="1128.2" class="st2" width="6" height="6"/>
			<rect x="475.6" y="1144.3" class="st2" width="6" height="6"/>
			<rect x="475.6" y="1159.9" class="st2" width="6" height="6"/>
			<rect x="373.9" y="1128.2" class="st2" width="6" height="6"/>
			<rect x="373.9" y="1144.3" class="st2" width="6" height="6"/>
			<rect x="373.9" y="1159.9" class="st2" width="6" height="6"/>
			<rect x="475.6" y="1071.1" class="st2" width="6" height="6"/>
		</g>
		<line class="st3" x1="427" y1="1182.5" x2="427" y2="1389.4"/>
		<line class="st4" x1="1418.7" y1="1182.5" x2="1418.7" y2="1389.6"/>
		<line class="st1" x1="866.7" y1="1064.3" x2="982.1" y2="1064.3"/>
		<line class="st1" x1="866.7" y1="1110.1" x2="991.2" y2="1110.1"/>
		<line class="st1" x1="843.4" y1="1109.6" x2="883.1" y2="1064.8"/>
		<line class="st1" x1="883.1" y1="1064.8" x2="918.2" y2="1110.2"/>
		<line class="st1" x1="915.7" y1="1110.2" x2="954.1" y2="1064.8"/>
		<line class="st1" x1="951.6" y1="1064.8" x2="991.2" y2="1110.1"/>
		<g>
			<polygon class="st1" points="1357.9,1058.1 1479.9,1058.1 1479.9,1171.5 1469.2,1182.3 1367.9,1182.3 1357.9,1172.2 			"/>
			<polyline class="st1" points="1357.9,1087.1 1381.3,1087.1 1403.8,1114.7 1433.6,1114.7 1455.1,1088.6 1479.9,1088.6 			"/>
			<rect x="1405.3" y="1067.4" class="st1" width="27.2" height="27.2"/>
			<rect x="1380.8" y="1129.1" class="st1" width="74.4" height="35.9"/>
			<rect x="1364.9" y="1070.8" class="st2" width="6" height="6"/>
			<rect x="1381.3" y="1070.8" class="st2" width="6" height="6"/>
			<rect x="1450.8" y="1070.8" class="st2" width="6" height="6"/>
			<rect x="1466.6" y="1128" class="st2" width="6" height="6"/>
			<rect x="1466.6" y="1144.1" class="st2" width="6" height="6"/>
			<rect x="1466.6" y="1159.6" class="st2" width="6" height="6"/>
			<rect x="1364.9" y="1128" class="st2" width="6" height="6"/>
			<rect x="1364.9" y="1144.1" class="st2" width="6" height="6"/>
			<rect x="1364.9" y="1159.6" class="st2" width="6" height="6"/>
			<rect x="1466.6" y="1070.8" class="st2" width="6" height="6"/>
		</g>
		<g>
			<polygon class="st1" points="1479.9,1513.8 1357.9,1513.8 1357.9,1400.4 1368.6,1389.6 1469.8,1389.6 1479.9,1399.7 			"/>
			<polyline class="st1" points="1479.9,1484.8 1456.4,1484.8 1434,1457.2 1404.1,1457.2 1382.7,1483.3 1357.9,1483.3 			"/>
			<rect x="1405.3" y="1477.4" class="st1" width="27.2" height="27.2"/>
			<rect x="1382.6" y="1406.9" class="st1" width="74.4" height="35.9"/>
			<rect x="1466.8" y="1495.1" class="st2" width="6" height="6"/>
			<rect x="1450.4" y="1495.1" class="st2" width="6" height="6"/>
			<rect x="1380.9" y="1495.1" class="st2" width="6" height="6"/>
			<rect x="1365.1" y="1437.9" class="st2" width="6" height="6"/>
			<rect x="1365.1" y="1421.8" class="st2" width="6" height="6"/>
			<rect x="1365.1" y="1406.2" class="st2" width="6" height="6"/>
			<rect x="1466.8" y="1437.9" class="st2" width="6" height="6"/>
			<rect x="1466.8" y="1421.8" class="st2" width="6" height="6"/>
			<rect x="1466.8" y="1406.2" class="st2" width="6" height="6"/>
			<rect x="1365.1" y="1495.1" class="st2" width="6" height="6"/>
		</g>
		<g>
			<polygon class="st1" points="488,1513.6 366,1513.6 366,1400.1 376.7,1389.4 477.9,1389.4 488,1399.4 			"/>
			<polyline class="st1" points="488,1484.5 464.5,1484.5 442.1,1456.9 412.2,1456.9 390.8,1483.1 366,1483.1 			"/>
			<rect x="413.4" y="1477.1" class="st1" width="27.2" height="27.2"/>
			<rect x="390.7" y="1406.6" class="st1" width="74.4" height="35.9"/>
			<rect x="474.9" y="1494.8" class="st2" width="6" height="6"/>
			<rect x="458.5" y="1494.8" class="st2" width="6" height="6"/>
			<rect x="389" y="1494.8" class="st2" width="6" height="6"/>
			<rect x="373.2" y="1437.6" class="st2" width="6" height="6"/>
			<rect x="373.2" y="1421.6" class="st2" width="6" height="6"/>
			<rect x="373.2" y="1406" class="st2" width="6" height="6"/>
			<rect x="474.9" y="1437.6" class="st2" width="6" height="6"/>
			<rect x="474.9" y="1421.6" class="st2" width="6" height="6"/>
			<rect x="474.9" y="1406" class="st2" width="6" height="6"/>
			<rect x="373.2" y="1494.8" class="st2" width="6" height="6"/>
		</g>
	</g>
	<g>
		<g>
			<g>
				<polygon class="st5" points="558.3,1035.6 563.6,1025.6 563.6,1000.9 535,970.2 554.5,970.2 577.2,945.8 577.2,914.2 
					524.2,872.4 524.2,860.9 516,853.9 500.9,853.9 500.9,854 472.5,831.6 472.5,831.6 414.3,831.6 414.3,831.6 385.7,854.1 
					385.7,853.9 370.6,853.9 362.4,860.9 362.4,872.6 362.4,872.6 309.6,914.2 309.6,945.8 332.3,970.2 351.8,970.2 323.2,1000.9 
					323.2,1025.6 328.4,1035.6 314.3,1035.6 298.9,1058.3 397.9,1058.3 426.9,1020.9 459.8,1020.9 488.9,1058.3 587.8,1058.3 
					572.5,1035.6 				"/>
			</g>
			<polyline class="st5" points="385.2,853.7 385.2,883 409,883 409,860.9 427.7,846.1 443,861.7 			"/>
			<polyline class="st5" points="500.8,853.7 500.8,883 477,883 477,860.9 458.3,846.1 443,861.7 			"/>
			<polyline class="st5" points="362.4,872.6 373.5,872.6 373.5,909.6 408.5,932.6 471.9,932.6 512.2,909.9 512.2,872.6 
				524.2,872.4 			"/>
			<polyline class="st5" points="394.8,909.2 407.5,899.6 476.5,899.6 485.8,909.2 			"/>
			<line class="st5" x1="429.8" y1="886.7" x2="451.2" y2="886.7"/>
			<polygon class="st5" points="371.8,974.6 384.9,987.6 428.1,987.6 441.4,972.9 441.4,952.5 434.8,945.8 413.8,939.2 393.4,939.2 
				393.1,952.5 406.6,963.4 393.1,973.2 			"/>
			<polygon class="st5" points="511.1,974.6 498,987.6 454.8,987.6 441.4,972.9 441.4,952.5 448.1,945.8 469.1,939.2 489.4,939.2 
				489.8,952.5 476.3,963.4 489.8,973.2 			"/>
			<polyline class="st5" points="394.8,987.6 394.8,1001.9 426.9,1020.9 			"/>
			<polyline class="st5" points="459.8,1020.9 488.9,1000.9 488.9,987.6 			"/>
			<line class="st5" x1="344.2" y1="919.6" x2="384.9" y2="944.9"/>
			<line class="st5" x1="498.5" y1="944.9" x2="540" y2="918.2"/>
			<line class="st5" x1="328.4" y1="1035.6" x2="415.6" y2="1035.6"/>
			<line class="st5" x1="558.3" y1="1035.6" x2="471.9" y2="1035.6"/>
		</g>
		<g>
			<g>
				<path class="st6" d="M425.8,878.4c9.7,0,9.7-15,0-15C416.2,863.4,416.2,878.4,425.8,878.4L425.8,878.4z"/>
			</g>
		</g>
		<g>
			<g>
				<path class="st6" d="M457.8,878.4c9.7,0,9.7-15,0-15C448.2,863.4,448.2,878.4,457.8,878.4L457.8,878.4z"/>
			</g>
		</g>
	</g>
</g>
</svg>
