<?xml version="1.0" encoding="utf-8"?>
<!-- Generator: Adobe Illustrator 19.2.0, SVG Export Plug-In . SVG Version: 6.00 Build 0)  -->
<svg version="1.1" id="Layer_1" xmlns="http://www.w3.org/2000/svg" xmlns:xlink="http://www.w3.org/1999/xlink" x="0px" y="0px"
	 viewBox="0 0 3084.5 1512.5" style="enable-background:new 0 0 3084.5 1512.5;" xml:space="preserve">
<style type="text/css">
	.st0{fill:none;stroke:#5EC936;stroke-width:4.9114;stroke-miterlimit:10;}
	.st1{fill:none;stroke:#5EC936;stroke-width:10.1298;stroke-miterlimit:10;}
	.st2{fill:none;stroke:#5EC936;stroke-width:24.557;stroke-miterlimit:10;}
</style>
<g id="Layer_1_1_">
	<line class="st0" x1="7.1" y1="985.7" x2="3079.5" y2="985.7"/>
	<line class="st0" x1="1516.4" y1="985.7" x2="1516.4" y2="1029.7"/>
	<line class="st0" x1="1516.4" y1="1041.8" x2="1516.4" y2="1085.8"/>
	<line class="st0" x1="1516.4" y1="1097.9" x2="1516.4" y2="1141.9"/>
	<line class="st0" x1="1516.4" y1="1154" x2="1516.4" y2="1198"/>
	<line class="st1" x1="2918.5" y1="1264.8" x2="2918.5" y2="1355.6"/>
	<line class="st2" x1="2294.4" y1="1443.3" x2="2294.4" y2="1469.5"/>
	<line class="st1" x1="104.4" y1="1040.4" x2="104.4" y2="1131.2"/>
	<line class="st0" x1="1516.4" y1="1210" x2="1516.4" y2="1254.1"/>
	<line class="st0" x1="1516.4" y1="1266.1" x2="1516.4" y2="1310.2"/>
	<line class="st0" x1="1516.4" y1="1322.2" x2="1516.4" y2="1366.3"/>
	<line class="st0" x1="1516.4" y1="1378.3" x2="1516.4" y2="1422.3"/>
	<line class="st0" x1="1516.4" y1="1434.4" x2="1516.4" y2="1478.4"/>
	<line class="st0" x1="1516.4" y1="1489.7" x2="1516.4" y2="1533.7"/>
	<rect x="1407.9" y="1015.8" class="st1" width="56.5" height="95.8"/>
	<rect x="1570" y="1015.8" class="st1" width="56.5" height="95.8"/>
	<line class="st1" x1="1570" y1="1063.7" x2="1626.4" y2="1063.7"/>
</g>
</svg>
