<?xml version="1.0" encoding="utf-8"?>
<!-- Generator: Adobe Illustrator 19.0.0, SVG Export Plug-In . SVG Version: 6.00 Build 0)  -->
<svg version="1.1" id="Layer_1" xmlns="http://www.w3.org/2000/svg" xmlns:xlink="http://www.w3.org/1999/xlink" x="0px" y="0px"
	 viewBox="795 10.3 3029.4 1421.7" enable-background="new 795 10.3 3029.4 1421.7" xml:space="preserve">
<g>
	<g>
		<path fill="none" stroke="#166734" stroke-width="3.8997" stroke-linejoin="round" stroke-miterlimit="10" d="M3958.9,529.1
			c-13.8,0-25.1,11.3-25.1,25.1v21.7c0,2.8,0.5,5.5,1.4,8l6.2-10.6l7.5,13.4l10-13.4l6.7,13.4l10-13.4l5.4,14.2
			c1.8-3.5,2.9-7.4,2.9-11.6v-21.7C3984,540.4,3972.7,529.1,3958.9,529.1z"/>
		<g>
			<g>
				<path fill="#69BD45" d="M3963.1,557.5c8.1,0,8.1-12.6,0-12.6C3955,544.9,3955,557.5,3963.1,557.5L3963.1,557.5z"/>
			</g>
		</g>
		<g>
			<g>
				<path fill="#69BD45" d="M3941.4,557.5c8.1,0,8.1-12.6,0-12.6C3933.3,544.9,3933.3,557.5,3941.4,557.5L3941.4,557.5z"/>
			</g>
		</g>
		<g>
			<g>
				<path fill="#166734" d="M3959.5,555.4c5.4,0,5.4-8.4,0-8.4C3954.1,547.1,3954.1,555.4,3959.5,555.4L3959.5,555.4z"/>
			</g>
		</g>
		<g>
			<g>
				<path fill="#166734" d="M3937.5,555.4c5.4,0,5.4-8.4,0-8.4C3932.1,547.1,3932.1,555.4,3937.5,555.4L3937.5,555.4z"/>
			</g>
		</g>
	</g>
	<g>
		<path fill="none" stroke="#166734" stroke-width="5.0441" stroke-linejoin="round" stroke-miterlimit="10" d="M1929.8,1241.1
			c-26.6,0-48.3,21.7-48.3,48.3v41.8c0,5.4,0.9,10.6,2.6,15.5l11.9-20.3l14.5,25.7l19.3-25.7l12.9,25.7l19.3-25.7l10.5,27.3
			c3.6-6.7,5.6-14.4,5.6-22.4v-41.8C1978.1,1262.8,1956.3,1241.1,1929.8,1241.1z"/>
		<g>
			<g>
				<path fill="#69BD45" d="M1937.8,1295.9c15.6,0,15.7-24.3,0-24.3C1922.2,1271.6,1922.2,1295.9,1937.8,1295.9L1937.8,1295.9z"/>
			</g>
		</g>
		<g>
			<g>
				<path fill="#69BD45" d="M1896,1295.9c15.6,0,15.7-24.3,0-24.3C1880.4,1271.6,1880.3,1295.9,1896,1295.9L1896,1295.9z"/>
			</g>
		</g>
		<g>
			<g>
				<path fill="#166734" d="M1930.9,1291.8c10.4,0,10.4-16.1,0-16.1C1920.5,1275.7,1920.5,1291.8,1930.9,1291.8L1930.9,1291.8z"/>
			</g>
		</g>
		<g>
			<g>
				<path fill="#166734" d="M1888.5,1291.8c10.4,0,10.4-16.1,0-16.1C1878.1,1275.7,1878.1,1291.8,1888.5,1291.8L1888.5,1291.8z"/>
			</g>
		</g>
	</g>
	<g>
		<path fill="none" stroke="#166734" stroke-width="5.0441" stroke-linejoin="round" stroke-miterlimit="10" d="M2093.3,1241.1
			c-26.6,0-48.3,21.7-48.3,48.3v41.8c0,5.4,0.9,10.6,2.6,15.5l11.9-20.3l14.5,25.7l19.3-25.7l12.9,25.7l19.3-25.7l10.5,27.3
			c3.6-6.7,5.6-14.4,5.6-22.4v-41.8C2141.6,1262.8,2119.8,1241.1,2093.3,1241.1z"/>
		<g>
			<g>
				<path fill="#69BD45" d="M2101.3,1295.9c15.6,0,15.7-24.3,0-24.3C2085.7,1271.6,2085.7,1295.9,2101.3,1295.9L2101.3,1295.9z"/>
			</g>
		</g>
		<g>
			<g>
				<path fill="#69BD45" d="M2059.5,1295.9c15.6,0,15.7-24.3,0-24.3C2043.9,1271.6,2043.8,1295.9,2059.5,1295.9L2059.5,1295.9z"/>
			</g>
		</g>
		<g>
			<g>
				<path fill="#166734" d="M2094.4,1291.8c10.4,0,10.4-16.1,0-16.1C2084,1275.7,2084,1291.8,2094.4,1291.8L2094.4,1291.8z"/>
			</g>
		</g>
		<g>
			<g>
				<path fill="#166734" d="M2052,1291.8c10.4,0,10.4-16.1,0-16.1C2041.6,1275.7,2041.6,1291.8,2052,1291.8L2052,1291.8z"/>
			</g>
		</g>
	</g>
	<g>
		<path fill="none" stroke="#166734" stroke-width="5.0441" stroke-linejoin="round" stroke-miterlimit="10" d="M2254.6,1241.1
			c-26.6,0-48.3,21.7-48.3,48.3v41.8c0,5.4,0.9,10.6,2.6,15.5l11.9-20.3l14.5,25.7l19.3-25.7l12.9,25.7l19.3-25.7l10.5,27.3
			c3.6-6.7,5.6-14.4,5.6-22.4v-41.8C2302.8,1262.8,2281.1,1241.1,2254.6,1241.1z"/>
		<g>
			<g>
				<path fill="#69BD45" d="M2262.6,1295.9c15.6,0,15.7-24.3,0-24.3C2247,1271.6,2246.9,1295.9,2262.6,1295.9L2262.6,1295.9z"/>
			</g>
		</g>
		<g>
			<g>
				<path fill="#69BD45" d="M2220.8,1295.9c15.6,0,15.7-24.3,0-24.3C2205.1,1271.6,2205.1,1295.9,2220.8,1295.9L2220.8,1295.9z"/>
			</g>
		</g>
		<g>
			<g>
				<path fill="#166734" d="M2255.6,1291.8c10.4,0,10.4-16.1,0-16.1C2245.3,1275.7,2245.3,1291.8,2255.6,1291.8L2255.6,1291.8z"/>
			</g>
		</g>
		<g>
			<g>
				<path fill="#166734" d="M2213.3,1291.8c10.4,0,10.4-16.1,0-16.1C2202.9,1275.7,2202.9,1291.8,2213.3,1291.8L2213.3,1291.8z"/>
			</g>
		</g>
	</g>
	<g>
		<path fill="none" stroke="#166734" stroke-width="5.0441" stroke-linejoin="round" stroke-miterlimit="10" d="M2169.3,1030.5
			c-26.6,0-48.3,21.7-48.3,48.3v41.8c0,5.4,0.9,10.6,2.6,15.5l11.9-20.3l14.5,25.7l19.3-25.7l12.9,25.7l19.3-25.7l10.5,27.3
			c3.6-6.7,5.6-14.4,5.6-22.4v-41.8C2217.5,1052.2,2195.8,1030.5,2169.3,1030.5z"/>
		<g>
			<g>
				<path fill="#69BD45" d="M2177.3,1085.3c15.6,0,15.7-24.3,0-24.3C2161.7,1061,2161.7,1085.3,2177.3,1085.3L2177.3,1085.3z"/>
			</g>
		</g>
		<g>
			<g>
				<path fill="#69BD45" d="M2135.5,1085.3c15.6,0,15.7-24.3,0-24.3C2119.8,1061,2119.8,1085.3,2135.5,1085.3L2135.5,1085.3z"/>
			</g>
		</g>
		<g>
			<g>
				<path fill="#166734" d="M2170.3,1081.2c10.4,0,10.4-16.1,0-16.1C2160,1065.1,2160,1081.2,2170.3,1081.2L2170.3,1081.2z"/>
			</g>
		</g>
		<g>
			<g>
				<path fill="#166734" d="M2128,1081.2c10.4,0,10.4-16.1,0-16.1C2117.6,1065.1,2117.6,1081.2,2128,1081.2L2128,1081.2z"/>
			</g>
		</g>
	</g>
	<g>
		<path fill="none" stroke="#166734" stroke-width="5.0441" stroke-linejoin="round" stroke-miterlimit="10" d="M902.2,872.7
			c-26.6,0-48.3,21.7-48.3,48.3v41.8c0,5.4,0.9,10.6,2.6,15.5l11.9-20.3l14.5,25.7l19.3-25.7l12.9,25.7l19.3-25.7l10.5,27.3
			c3.6-6.7,5.6-14.4,5.6-22.4V921C950.4,894.4,928.7,872.7,902.2,872.7z"/>
		<g>
			<g>
				<path fill="#69BD45" d="M910.2,927.5c15.6,0,15.7-24.3,0-24.3C894.6,903.2,894.6,927.5,910.2,927.5L910.2,927.5z"/>
			</g>
		</g>
		<g>
			<g>
				<path fill="#69BD45" d="M868.4,927.5c15.6,0,15.7-24.3,0-24.3C852.7,903.2,852.7,927.5,868.4,927.5L868.4,927.5z"/>
			</g>
		</g>
		<g>
			<g>
				<path fill="#166734" d="M903.2,923.4c10.4,0,10.4-16.1,0-16.1C892.9,907.3,892.9,923.4,903.2,923.4L903.2,923.4z"/>
			</g>
		</g>
		<g>
			<g>
				<path fill="#166734" d="M860.9,923.4c10.4,0,10.4-16.1,0-16.1C850.5,907.3,850.5,923.4,860.9,923.4L860.9,923.4z"/>
			</g>
		</g>
	</g>
	<g>
		<path fill="none" stroke="#166734" stroke-width="5.0441" stroke-linejoin="round" stroke-miterlimit="10" d="M3722.5,692.2
			c-26.6,0-48.3,21.7-48.3,48.3v41.8c0,5.4,0.9,10.6,2.6,15.5l11.9-20.3l14.5,25.7l19.3-25.7l12.9,25.7l19.3-25.7l10.5,27.3
			c3.6-6.7,5.6-14.4,5.6-22.4v-41.8C3770.7,713.9,3749,692.2,3722.5,692.2z"/>
		<g>
			<g>
				<path fill="#69BD45" d="M3730.5,747c15.6,0,15.7-24.3,0-24.3C3714.9,722.7,3714.9,747,3730.5,747L3730.5,747z"/>
			</g>
		</g>
		<g>
			<g>
				<path fill="#69BD45" d="M3688.7,747c15.6,0,15.7-24.3,0-24.3C3673,722.7,3673,747,3688.7,747L3688.7,747z"/>
			</g>
		</g>
		<g>
			<g>
				<path fill="#166734" d="M3723.5,742.9c10.4,0,10.4-16.1,0-16.1C3713.2,726.8,3713.2,742.9,3723.5,742.9L3723.5,742.9z"/>
			</g>
		</g>
		<g>
			<g>
				<path fill="#166734" d="M3681.2,742.9c10.4,0,10.4-16.1,0-16.1C3670.8,726.8,3670.8,742.9,3681.2,742.9L3681.2,742.9z"/>
			</g>
		</g>
	</g>
	<g>
		<g>
			<path fill="#69BD45" d="M959.8,739.6c8.1,0,8.1-12.6,0-12.6C951.7,727,951.7,739.6,959.8,739.6L959.8,739.6z"/>
		</g>
	</g>
	<g>
		<g>
			<path fill="#69BD45" d="M902.2,739.6c8.1,0,8.1-12.6,0-12.6C894.1,727,894,739.6,902.2,739.6L902.2,739.6z"/>
		</g>
	</g>
	<g>
		<g>
			<path fill="#69BD45" d="M902.2,847.6c8.1,0,8.1-12.6,0-12.6C894.1,835,894,847.6,902.2,847.6L902.2,847.6z"/>
		</g>
	</g>
	<g>
		<g>
			<path fill="#69BD45" d="M902.2,793.6c8.1,0,8.1-12.6,0-12.6C894.1,781,894,793.6,902.2,793.6L902.2,793.6z"/>
		</g>
	</g>
	<g>
		<g>
			<path fill="#69BD45" d="M902.2,1238.2c9.9,0,19.4-8.7,18.9-18.9c-0.5-10.2-8.3-18.9-18.9-18.9c-9.9,0-19.4,8.7-18.9,18.9
				C883.7,1229.5,891.6,1238.2,902.2,1238.2L902.2,1238.2z"/>
		</g>
	</g>
	<g>
		<g>
			<path fill="#69BD45" d="M902.2,1279.6c8.1,0,8.1-12.6,0-12.6C894.1,1267,894,1279.6,902.2,1279.6L902.2,1279.6z"/>
		</g>
	</g>
	<g>
		<g>
			<path fill="#69BD45" d="M902.2,1333.6c8.1,0,8.1-12.6,0-12.6C894.1,1321,894,1333.6,902.2,1333.6L902.2,1333.6z"/>
		</g>
	</g>
	<g>
		<g>
			<path fill="#69BD45" d="M902.2,1009.6c8.1,0,8.1-12.6,0-12.6C894.1,997,894,1009.6,902.2,1009.6L902.2,1009.6z"/>
		</g>
	</g>
	<g>
		<g>
			<path fill="#69BD45" d="M902.2,1063.6c8.1,0,8.1-12.6,0-12.6C894.1,1051,894,1063.6,902.2,1063.6L902.2,1063.6z"/>
		</g>
	</g>
	<g>
		<g>
			<path fill="#69BD45" d="M902.2,1171.6c8.1,0,8.1-12.6,0-12.6C894.1,1159,894,1171.6,902.2,1171.6L902.2,1171.6z"/>
		</g>
	</g>
	<g>
		<g>
			<path fill="#69BD45" d="M902.2,1117.6c8.1,0,8.1-12.6,0-12.6C894.1,1105,894,1117.6,902.2,1117.6L902.2,1117.6z"/>
		</g>
	</g>
	<g>
		<g>
			<path fill="#69BD45" d="M3730.5,1238.2c9.9,0,19.4-8.7,18.9-18.9c-0.5-10.2-8.3-18.9-18.9-18.9c-9.9,0-19.4,8.7-18.9,18.9
				C3712.1,1229.5,3719.9,1238.2,3730.5,1238.2L3730.5,1238.2z"/>
		</g>
	</g>
	<g>
		<g>
			<path fill="#69BD45" d="M3730.5,1279.6c8.1,0,8.1-12.6,0-12.6C3722.4,1267,3722.4,1279.6,3730.5,1279.6L3730.5,1279.6z"/>
		</g>
	</g>
	<g>
		<g>
			<path fill="#69BD45" d="M3730.5,1333.6c8.1,0,8.1-12.6,0-12.6C3722.4,1321,3722.4,1333.6,3730.5,1333.6L3730.5,1333.6z"/>
		</g>
	</g>
	<g>
		<g>
			<path fill="#69BD45" d="M3730.5,1171.6c8.1,0,8.1-12.6,0-12.6C3722.4,1159,3722.4,1171.6,3730.5,1171.6L3730.5,1171.6z"/>
		</g>
	</g>
	<g>
		<g>
			<path fill="#69BD45" d="M3730.5,1115.1c8.1,0,8.1-12.6,0-12.6C3722.4,1102.5,3722.4,1115.1,3730.5,1115.1L3730.5,1115.1z"/>
		</g>
	</g>
	<g>
		<g>
			<path fill="#69BD45" d="M3730.5,952.7c8.1,0,8.1-12.6,0-12.6C3722.4,940.1,3722.4,952.7,3730.5,952.7L3730.5,952.7z"/>
		</g>
	</g>
	<g>
		<g>
			<path fill="#69BD45" d="M3730.5,1006.7c8.1,0,8.1-12.6,0-12.6C3722.4,994.1,3722.4,1006.7,3730.5,1006.7L3730.5,1006.7z"/>
		</g>
	</g>
	<g>
		<g>
			<path fill="#69BD45" d="M3730.5,1060.7c8.1,0,8.1-12.6,0-12.6C3722.4,1048.1,3722.4,1060.7,3730.5,1060.7L3730.5,1060.7z"/>
		</g>
	</g>
	<g>
		<g>
			<path fill="#69BD45" d="M3730.5,898.7c8.1,0,8.1-12.6,0-12.6C3722.4,886.1,3722.4,898.7,3730.5,898.7L3730.5,898.7z"/>
		</g>
	</g>
	<g>
		<g>
			<path fill="#69BD45" d="M3730.5,842.2c8.1,0,8.1-12.6,0-12.6C3722.4,829.6,3722.4,842.2,3730.5,842.2L3730.5,842.2z"/>
		</g>
	</g>
	<g>
		<g>
			<path fill="#69BD45" d="M3178,1225.6c8.1,0,8.1-12.6,0-12.6C3169.9,1213,3169.9,1225.6,3178,1225.6L3178,1225.6z"/>
		</g>
	</g>
	<g>
		<g>
			<path fill="#69BD45" d="M3178,1279.6c8.1,0,8.1-12.6,0-12.6C3169.9,1267,3169.9,1279.6,3178,1279.6L3178,1279.6z"/>
		</g>
	</g>
	<g>
		<g>
			<path fill="#69BD45" d="M3178,1333.6c8.1,0,8.1-12.6,0-12.6C3169.9,1321,3169.9,1333.6,3178,1333.6L3178,1333.6z"/>
		</g>
	</g>
	<g>
		<g>
			<path fill="#69BD45" d="M3178,1171.6c8.1,0,8.1-12.6,0-12.6C3169.9,1159,3169.9,1171.6,3178,1171.6L3178,1171.6z"/>
		</g>
	</g>
	<g>
		<g>
			<path fill="#69BD45" d="M1478.3,1004.2c8.1,0,8.1-12.6,0-12.6C1470.2,991.6,1470.2,1004.2,1478.3,1004.2L1478.3,1004.2z"/>
		</g>
	</g>
	<g>
		<g>
			<path fill="#69BD45" d="M1478.3,1058.2c8.1,0,8.1-12.6,0-12.6C1470.2,1045.6,1470.2,1058.2,1478.3,1058.2L1478.3,1058.2z"/>
		</g>
	</g>
	<g>
		<g>
			<path fill="#69BD45" d="M1478.3,1112.2c8.1,0,8.1-12.6,0-12.6C1470.2,1099.6,1470.2,1112.2,1478.3,1112.2L1478.3,1112.2z"/>
		</g>
	</g>
	<g>
		<g>
			<path fill="#69BD45" d="M1478.3,788.2c8.1,0,8.1-12.6,0-12.6C1470.2,775.6,1470.2,788.2,1478.3,788.2L1478.3,788.2z"/>
		</g>
	</g>
	<g>
		<g>
			<path fill="#69BD45" d="M1478.3,842.2c8.1,0,8.1-12.6,0-12.6C1470.2,829.6,1470.2,842.2,1478.3,842.2L1478.3,842.2z"/>
		</g>
	</g>
	<g>
		<g>
			<path fill="#69BD45" d="M1478.3,950.2c8.1,0,8.1-12.6,0-12.6C1470.2,937.6,1470.2,950.2,1478.3,950.2L1478.3,950.2z"/>
		</g>
	</g>
	<g>
		<g>
			<path fill="#69BD45" d="M1478.3,896.2c8.1,0,8.1-12.6,0-12.6C1470.2,883.6,1470.2,896.2,1478.3,896.2L1478.3,896.2z"/>
		</g>
	</g>
	<g>
		<g>
			<path fill="#69BD45" d="M1708.7,788.2c8.1,0,8.1-12.6,0-12.6C1700.6,775.6,1700.6,788.2,1708.7,788.2L1708.7,788.2z"/>
		</g>
	</g>
	<g>
		<g>
			<path fill="#69BD45" d="M1708.7,842.2c8.1,0,8.1-12.6,0-12.6C1700.6,829.6,1700.6,842.2,1708.7,842.2L1708.7,842.2z"/>
		</g>
	</g>
	<g>
		<g>
			<path fill="#69BD45" d="M2427.1,788.2c8.1,0,8.1-12.6,0-12.6C2419,775.6,2419,788.2,2427.1,788.2L2427.1,788.2z"/>
		</g>
	</g>
	<g>
		<g>
			<path fill="#69BD45" d="M2427.1,842.2c8.1,0,8.1-12.6,0-12.6C2419,829.6,2419,842.2,2427.1,842.2L2427.1,842.2z"/>
		</g>
	</g>
	<path fill="none" stroke="#69BD45" stroke-width="5.0441" stroke-miterlimit="10" d="M3161.5,1086.8l49-20.7
		c-7.6-14.8-22.9-25-40.7-25c-25.2,0-45.7,20.5-45.7,45.7s20.5,45.7,45.7,45.7c18.1,0,33.8-10.6,41.2-25.9L3161.5,1086.8z"/>
	<g>
		
			<line fill="none" stroke="#166734" stroke-width="9.0864" stroke-linejoin="round" stroke-miterlimit="10" x1="2169.3" y1="1196.7" x2="2480.9" y2="1196.7"/>
		<path fill="none" stroke="#69BD45" stroke-width="5.0441" stroke-linejoin="round" stroke-miterlimit="10" d="M2850.6,1178.1
			h-13.1c-0.6,0-1.3,0.1-1.9,0.2h-342c-7,0-12.7,5.7-12.7,12.7v13.1c0,7,5.7,12.7,12.7,12.7h331.2v284.4c0,7,5.7,12.7,12.7,12.7
			h13.1c7,0,12.7-5.7,12.7-12.7v-310.4C2863.3,1183.9,2857.6,1178.1,2850.6,1178.1z"/>
		<path fill="none" stroke="#69BD45" stroke-width="5.0441" stroke-linejoin="round" stroke-miterlimit="10" d="M1799.6,1178.1h13.1
			c0.6,0,1.3,0.1,1.9,0.2h342c7,0,12.7,5.7,12.7,12.7v13.1c0,7-5.7,12.7-12.7,12.7h-331.2v284.4c0,7-5.7,12.7-12.7,12.7h-13.1
			c-7,0-12.7-5.7-12.7-12.7v-310.4C1786.8,1183.9,1792.6,1178.1,1799.6,1178.1z"/>
	</g>
	
		<line fill="none" stroke="#69BD45" stroke-width="5.0441" stroke-linejoin="round" stroke-miterlimit="10" x1="753.4" y1="636.5" x2="3933.9" y2="636.5"/>
	
		<line fill="none" stroke="#69BD45" stroke-width="5.0441" stroke-linejoin="round" stroke-miterlimit="10" x1="753.4" y1="675.5" x2="3933.9" y2="675.5"/>
	<path fill="none" stroke="#69BD45" stroke-width="4.1068" stroke-linejoin="round" stroke-miterlimit="10" d="M2005.3,982.7h-379.4
		V809.3c0-12.2-10-22.2-22.2-22.2c-12.2,0-22.2,10-22.2,22.2v391.2c0,12.2,10,22.2,22.2,22.2c12.2,0,22.2-10,22.2-22.2v-173.4h379.4
		c12.2,0,22.2-10,22.2-22.2C2027.6,992.7,2017.5,982.7,2005.3,982.7z"/>
	<path fill="none" stroke="#69BD45" stroke-width="4.1068" stroke-linejoin="round" stroke-miterlimit="10" d="M2644.8,1027.1h379.4
		v173.4c0,12.2,10,22.2,22.2,22.2c12.2,0,22.2-10,22.2-22.2V809.3c0-12.2-10-22.2-22.2-22.2c-12.2,0-22.2,10-22.2,22.2v173.4h-379.4
		c-12.2,0-22.2,10-22.2,22.2C2622.6,1017.1,2632.6,1027.1,2644.8,1027.1z"/>
	<path fill="#231F20" stroke="#69BD45" stroke-width="5.0441" stroke-miterlimit="10" d="M2302.8,672.9v325.8
		c0,12.8,10,23.3,22.2,23.3c12.2,0,22.2-10.5,22.2-23.3V672.9"/>
	<path fill="#231F20" stroke="#69BD45" stroke-width="5.0441" stroke-miterlimit="10" d="M2141.6,790.7v73.1c0,4.9-4,8.8-8.8,8.8
		H1773c-4.9,0-8.8-4-8.8-8.8v-73.1c0-4.9,4-8.8,8.8-8.8h359.8C2137.6,781.9,2141.6,785.9,2141.6,790.7z"/>
	<path fill="#231F20" stroke="#69BD45" stroke-width="5.0441" stroke-miterlimit="10" d="M1365.4,1172.8v73.1c0,4.9-4,8.8-8.8,8.8
		H996.8c-4.9,0-8.8-4-8.8-8.8v-73.1c0-4.9,4-8.8,8.8-8.8h359.8C1361.4,1164,1365.4,1167.9,1365.4,1172.8z"/>
	<path fill="#231F20" stroke="#69BD45" stroke-width="5.0441" stroke-miterlimit="10" d="M3626.6,1172.8v73.1c0,4.9-4,8.8-8.8,8.8
		H3258c-4.9,0-8.8-4-8.8-8.8v-73.1c0-4.9,4-8.8,8.8-8.8h359.8C3622.6,1164,3626.6,1167.9,3626.6,1172.8z"/>
	<path fill="#231F20" stroke="#69BD45" stroke-width="5.0441" stroke-miterlimit="10" d="M1365.4,803.4v222.5c0,4.9-4,8.8-8.8,8.8
		H996.8c-4.9,0-8.8-4-8.8-8.8V803.4c0-4.9,4-8.8,8.8-8.8h359.8C1361.4,794.5,1365.4,798.5,1365.4,803.4z"/>
	<path fill="#231F20" stroke="#69BD45" stroke-width="5.0441" stroke-miterlimit="10" d="M3626.6,803.4v222.5c0,4.9-4,8.8-8.8,8.8
		H3258c-4.9,0-8.8-4-8.8-8.8V803.4c0-4.9,4-8.8,8.8-8.8h359.8C3622.6,794.5,3626.6,798.5,3626.6,803.4z"/>
	<path fill="#231F20" stroke="#69BD45" stroke-width="5.0441" stroke-miterlimit="10" d="M2886,790.7v73.1c0,4.9-4,8.8-8.8,8.8
		h-359.8c-4.9,0-8.8-4-8.8-8.8v-73.1c0-4.9,4-8.8,8.8-8.8h359.8C2882,781.9,2886,785.9,2886,790.7z"/>
	<g>
		<g>
			<path fill="#69BD45" d="M1132.6,739.6c8.1,0,8.1-12.6,0-12.6C1124.5,727,1124.5,739.6,1132.6,739.6L1132.6,739.6z"/>
		</g>
	</g>
	<g>
		<g>
			<path fill="#69BD45" d="M1075,739.6c8.1,0,8.1-12.6,0-12.6C1066.9,727,1066.9,739.6,1075,739.6L1075,739.6z"/>
		</g>
	</g>
	<g>
		<g>
			<path fill="#69BD45" d="M1017.4,739.6c8.1,0,8.1-12.6,0-12.6C1009.3,727,1009.3,739.6,1017.4,739.6L1017.4,739.6z"/>
		</g>
	</g>
	<g>
		<g>
			<path fill="#69BD45" d="M1305.5,739.6c8.1,0,8.1-12.6,0-12.6C1297.3,727,1297.3,739.6,1305.5,739.6L1305.5,739.6z"/>
		</g>
	</g>
	<g>
		<g>
			<path fill="#69BD45" d="M1247.8,739.6c8.1,0,8.1-12.6,0-12.6C1239.7,727,1239.7,739.6,1247.8,739.6L1247.8,739.6z"/>
		</g>
	</g>
	<g>
		<g>
			<path fill="#69BD45" d="M1190.2,739.6c8.1,0,8.1-12.6,0-12.6C1182.1,727,1182.1,739.6,1190.2,739.6L1190.2,739.6z"/>
		</g>
	</g>
	<g>
		<g>
			<path fill="#69BD45" d="M1420.7,739.6c8.1,0,8.1-12.6,0-12.6C1412.6,727,1412.5,739.6,1420.7,739.6L1420.7,739.6z"/>
		</g>
	</g>
	<g>
		<g>
			<path fill="#69BD45" d="M1363.1,739.6c8.1,0,8.1-12.6,0-12.6C1354.9,727,1354.9,739.6,1363.1,739.6L1363.1,739.6z"/>
		</g>
	</g>
	<g>
		<g>
			<path fill="#69BD45" d="M959.8,1112.2c8.1,0,8.1-12.6,0-12.6C951.7,1099.6,951.7,1112.2,959.8,1112.2L959.8,1112.2z"/>
		</g>
	</g>
	<g>
		<g>
			<path fill="#69BD45" d="M1132.6,1112.2c8.1,0,8.1-12.6,0-12.6C1124.5,1099.6,1124.5,1112.2,1132.6,1112.2L1132.6,1112.2z"/>
		</g>
	</g>
	<g>
		<g>
			<path fill="#69BD45" d="M1075,1112.2c8.1,0,8.1-12.6,0-12.6C1066.9,1099.6,1066.9,1112.2,1075,1112.2L1075,1112.2z"/>
		</g>
	</g>
	<g>
		<g>
			<path fill="#69BD45" d="M1017.4,1112.2c8.1,0,8.1-12.6,0-12.6C1009.3,1099.6,1009.3,1112.2,1017.4,1112.2L1017.4,1112.2z"/>
		</g>
	</g>
	<g>
		<g>
			<path fill="#69BD45" d="M1305.5,1112.2c8.1,0,8.1-12.6,0-12.6C1297.3,1099.6,1297.3,1112.2,1305.5,1112.2L1305.5,1112.2z"/>
		</g>
	</g>
	<g>
		<g>
			<path fill="#69BD45" d="M1247.8,1112.2c8.1,0,8.1-12.6,0-12.6C1239.7,1099.6,1239.7,1112.2,1247.8,1112.2L1247.8,1112.2z"/>
		</g>
	</g>
	<g>
		<g>
			<path fill="#69BD45" d="M1190.2,1112.2c8.1,0,8.1-12.6,0-12.6C1182.1,1099.6,1182.1,1112.2,1190.2,1112.2L1190.2,1112.2z"/>
		</g>
	</g>
	<g>
		<g>
			<path fill="#69BD45" d="M1420.7,1112.2c8.1,0,8.1-12.6,0-12.6C1412.6,1099.6,1412.5,1112.2,1420.7,1112.2L1420.7,1112.2z"/>
		</g>
	</g>
	<g>
		<g>
			<path fill="#69BD45" d="M1363.1,1112.2c8.1,0,8.1-12.6,0-12.6C1354.9,1099.6,1354.9,1112.2,1363.1,1112.2L1363.1,1112.2z"/>
		</g>
	</g>
	<g>
		<g>
			<path fill="#69BD45" d="M3379.9,1112.2c8.1,0,8.1-12.6,0-12.6C3371.8,1099.6,3371.7,1112.2,3379.9,1112.2L3379.9,1112.2z"/>
		</g>
	</g>
	<g>
		<g>
			<path fill="#69BD45" d="M3322.3,1112.2c8.1,0,8.1-12.6,0-12.6C3314.1,1099.6,3314.1,1112.2,3322.3,1112.2L3322.3,1112.2z"/>
		</g>
	</g>
	<g>
		<g>
			<path fill="#69BD45" d="M3264.6,1112.2c8.1,0,8.1-12.6,0-12.6C3256.5,1099.6,3256.5,1112.2,3264.6,1112.2L3264.6,1112.2z"/>
		</g>
	</g>
	<g>
		<g>
			<path fill="#69BD45" d="M3552.7,1112.2c8.1,0,8.1-12.6,0-12.6C3544.6,1099.6,3544.6,1112.2,3552.7,1112.2L3552.7,1112.2z"/>
		</g>
	</g>
	<g>
		<g>
			<path fill="#69BD45" d="M3495.1,1112.2c8.1,0,8.1-12.6,0-12.6C3487,1099.6,3487,1112.2,3495.1,1112.2L3495.1,1112.2z"/>
		</g>
	</g>
	<g>
		<g>
			<path fill="#69BD45" d="M3437.5,1112.2c8.1,0,8.1-12.6,0-12.6C3429.4,1099.6,3429.4,1112.2,3437.5,1112.2L3437.5,1112.2z"/>
		</g>
	</g>
	<g>
		<g>
			<path fill="#69BD45" d="M3667.9,1112.2c8.1,0,8.1-12.6,0-12.6C3659.8,1099.6,3659.8,1112.2,3667.9,1112.2L3667.9,1112.2z"/>
		</g>
	</g>
	<g>
		<g>
			<path fill="#69BD45" d="M3610.3,1112.2c8.1,0,8.1-12.6,0-12.6C3602.2,1099.6,3602.2,1112.2,3610.3,1112.2L3610.3,1112.2z"/>
		</g>
	</g>
	<g>
		<g>
			<path fill="#69BD45" d="M3362.2,1333.6c8.1,0,8.1-12.6,0-12.6C3354.1,1321,3354,1333.6,3362.2,1333.6L3362.2,1333.6z"/>
		</g>
	</g>
	<g>
		<g>
			<path fill="#69BD45" d="M3300.8,1333.6c8.1,0,8.1-12.6,0-12.6C3292.7,1321,3292.7,1333.6,3300.8,1333.6L3300.8,1333.6z"/>
		</g>
	</g>
	<g>
		<g>
			<path fill="#69BD45" d="M3239.4,1333.6c8.1,0,8.1-12.6,0-12.6C3231.3,1321,3231.3,1333.6,3239.4,1333.6L3239.4,1333.6z"/>
		</g>
	</g>
	<g>
		<g>
			<path fill="#69BD45" d="M3546.3,1333.6c8.1,0,8.1-12.6,0-12.6C3538.2,1321,3538.2,1333.6,3546.3,1333.6L3546.3,1333.6z"/>
		</g>
	</g>
	<g>
		<g>
			<path fill="#69BD45" d="M3485,1333.6c8.1,0,8.1-12.6,0-12.6C3476.8,1321,3476.8,1333.6,3485,1333.6L3485,1333.6z"/>
		</g>
	</g>
	<g>
		<g>
			<path fill="#69BD45" d="M3423.6,1333.6c8.1,0,8.1-12.6,0-12.6C3415.5,1321,3415.4,1333.6,3423.6,1333.6L3423.6,1333.6z"/>
		</g>
	</g>
	<g>
		<g>
			<path fill="#69BD45" d="M3669.1,1333.6c8.1,0,8.1-12.6,0-12.6C3661,1321,3661,1333.6,3669.1,1333.6L3669.1,1333.6z"/>
		</g>
	</g>
	<g>
		<g>
			<path fill="#69BD45" d="M3607.7,1333.6c8.1,0,8.1-12.6,0-12.6C3599.6,1321,3599.6,1333.6,3607.7,1333.6L3607.7,1333.6z"/>
		</g>
	</g>
	<g>
		<g>
			<path fill="#69BD45" d="M2993.8,1333.6c8.1,0,8.1-12.6,0-12.6C2985.7,1321,2985.7,1333.6,2993.8,1333.6L2993.8,1333.6z"/>
		</g>
	</g>
	<g>
		<g>
			<path fill="#69BD45" d="M2932.4,1333.6c8.1,0,8.1-12.6,0-12.6C2924.3,1321,2924.3,1333.6,2932.4,1333.6L2932.4,1333.6z"/>
		</g>
	</g>
	<g>
		<g>
			<path fill="#69BD45" d="M3178,1333.6c8.1,0,8.1-12.6,0-12.6C3169.9,1321,3169.9,1333.6,3178,1333.6L3178,1333.6z"/>
		</g>
	</g>
	<g>
		<g>
			<path fill="#69BD45" d="M2932.4,1166.2c8.1,0,8.1-12.6,0-12.6C2924.3,1153.6,2924.3,1166.2,2932.4,1166.2L2932.4,1166.2z"/>
		</g>
	</g>
	<g>
		<g>
			<path fill="#69BD45" d="M2932.4,1220.2c8.1,0,8.1-12.6,0-12.6C2924.3,1207.6,2924.3,1220.2,2932.4,1220.2L2932.4,1220.2z"/>
		</g>
	</g>
	<g>
		<g>
			<path fill="#69BD45" d="M2932.4,1274.2c8.1,0,8.1-12.6,0-12.6C2924.3,1261.6,2924.3,1274.2,2932.4,1274.2L2932.4,1274.2z"/>
		</g>
	</g>
	<g>
		<g>
			<path fill="#69BD45" d="M2932.4,1112.2c8.1,0,8.1-12.6,0-12.6C2924.3,1099.6,2924.3,1112.2,2932.4,1112.2L2932.4,1112.2z"/>
		</g>
	</g>
	<g>
		<g>
			<path fill="#69BD45" d="M2932.4,1274.2c8.1,0,8.1-12.6,0-12.6C2924.3,1261.6,2924.3,1274.2,2932.4,1274.2L2932.4,1274.2z"/>
		</g>
	</g>
	<g>
		<g>
			<path fill="#69BD45" d="M3116.6,1333.6c8.1,0,8.1-12.6,0-12.6C3108.5,1321,3108.5,1333.6,3116.6,1333.6L3116.6,1333.6z"/>
		</g>
	</g>
	<g>
		<g>
			<path fill="#69BD45" d="M3055.2,1333.6c8.1,0,8.1-12.6,0-12.6C3047.1,1321,3047.1,1333.6,3055.2,1333.6L3055.2,1333.6z"/>
		</g>
	</g>
	<g>
		<g>
			<path fill="#69BD45" d="M2754.2,1112.5c8.1,0,8.1-12.6,0-12.6C2746,1099.9,2746,1112.5,2754.2,1112.5L2754.2,1112.5z"/>
		</g>
	</g>
	<g>
		<g>
			<path fill="#69BD45" d="M2876.9,1112.5c8.1,0,8.1-12.6,0-12.6C2868.8,1099.9,2868.8,1112.5,2876.9,1112.5L2876.9,1112.5z"/>
		</g>
	</g>
	<g>
		<g>
			<path fill="#69BD45" d="M2815.5,1112.5c8.1,0,8.1-12.6,0-12.6C2807.4,1099.9,2807.4,1112.5,2815.5,1112.5L2815.5,1112.5z"/>
		</g>
	</g>
	<g>
		<g>
			<path fill="#69BD45" d="M2570,1112.5c8.1,0,8.1-12.6,0-12.6C2561.9,1099.9,2561.9,1112.5,2570,1112.5L2570,1112.5z"/>
		</g>
	</g>
	<g>
		<g>
			<path fill="#69BD45" d="M2508.6,1112.5c8.1,0,8.1-12.6,0-12.6C2500.5,1099.9,2500.5,1112.5,2508.6,1112.5L2508.6,1112.5z"/>
		</g>
	</g>
	<g>
		<g>
			<path fill="#69BD45" d="M2754.2,1112.5c8.1,0,8.1-12.6,0-12.6C2746,1099.9,2746,1112.5,2754.2,1112.5L2754.2,1112.5z"/>
		</g>
	</g>
	<g>
		<g>
			<path fill="#69BD45" d="M2692.8,1112.5c8.1,0,8.1-12.6,0-12.6C2684.6,1099.9,2684.6,1112.5,2692.8,1112.5L2692.8,1112.5z"/>
		</g>
	</g>
	<g>
		<g>
			<path fill="#69BD45" d="M2631.4,1112.5c8.1,0,8.1-12.6,0-12.6C2623.3,1099.9,2623.2,1112.5,2631.4,1112.5L2631.4,1112.5z"/>
		</g>
	</g>
	<g>
		<g>
			<path fill="#69BD45" d="M1593.5,739.6c8.1,0,8.1-12.6,0-12.6C1585.4,727,1585.4,739.6,1593.5,739.6L1593.5,739.6z"/>
		</g>
	</g>
	<g>
		<g>
			<path fill="#69BD45" d="M1535.9,739.6c8.1,0,8.1-12.6,0-12.6C1527.8,727,1527.8,739.6,1535.9,739.6L1535.9,739.6z"/>
		</g>
	</g>
	<g>
		<g>
			<path fill="#69BD45" d="M1478.3,739.6c8.1,0,8.1-12.6,0-12.6C1470.2,727,1470.2,739.6,1478.3,739.6L1478.3,739.6z"/>
		</g>
	</g>
	<g>
		<g>
			<path fill="#69BD45" d="M1766.3,739.6c8.1,0,8.1-12.6,0-12.6C1758.2,727,1758.2,739.6,1766.3,739.6L1766.3,739.6z"/>
		</g>
	</g>
	<g>
		<g>
			<path fill="#69BD45" d="M1708.7,739.6c8.1,0,8.1-12.6,0-12.6C1700.6,727,1700.6,739.6,1708.7,739.6L1708.7,739.6z"/>
		</g>
	</g>
	<g>
		<g>
			<path fill="#69BD45" d="M1651.1,739.6c8.1,0,8.1-12.6,0-12.6C1643,727,1643,739.6,1651.1,739.6L1651.1,739.6z"/>
		</g>
	</g>
	<g>
		<g>
			<path fill="#69BD45" d="M1881.6,739.6c8.1,0,8.1-12.6,0-12.6C1873.5,727,1873.4,739.6,1881.6,739.6L1881.6,739.6z"/>
		</g>
	</g>
	<g>
		<g>
			<path fill="#69BD45" d="M1824,739.6c8.1,0,8.1-12.6,0-12.6C1815.8,727,1815.8,739.6,1824,739.6L1824,739.6z"/>
		</g>
	</g>
	<g>
		<g>
			<path fill="#69BD45" d="M2054.4,739.6c8.1,0,8.1-12.6,0-12.6C2046.3,727,2046.3,739.6,2054.4,739.6L2054.4,739.6z"/>
		</g>
	</g>
	<g>
		<g>
			<path fill="#69BD45" d="M1996.8,739.6c8.1,0,8.1-12.6,0-12.6C1988.7,727,1988.7,739.6,1996.8,739.6L1996.8,739.6z"/>
		</g>
	</g>
	<g>
		<g>
			<path fill="#69BD45" d="M1939.2,739.6c8.1,0,8.1-12.6,0-12.6C1931.1,727,1931.1,739.6,1939.2,739.6L1939.2,739.6z"/>
		</g>
	</g>
	<g>
		<g>
			<path fill="#69BD45" d="M2227.2,739.6c8.1,0,8.1-12.6,0-12.6C2219.1,727,2219.1,739.6,2227.2,739.6L2227.2,739.6z"/>
		</g>
	</g>
	<g>
		<g>
			<path fill="#69BD45" d="M2169.6,739.6c8.1,0,8.1-12.6,0-12.6C2161.5,727,2161.5,739.6,2169.6,739.6L2169.6,739.6z"/>
		</g>
	</g>
	<g>
		<g>
			<path fill="#69BD45" d="M2112,739.6c8.1,0,8.1-12.6,0-12.6C2103.9,727,2103.9,739.6,2112,739.6L2112,739.6z"/>
		</g>
	</g>
	<g>
		<g>
			<path fill="#69BD45" d="M2484.7,739.6c8.1,0,8.1-12.6,0-12.6C2476.6,727,2476.6,739.6,2484.7,739.6L2484.7,739.6z"/>
		</g>
	</g>
	<g>
		<g>
			<path fill="#69BD45" d="M2427.1,739.6c8.1,0,8.1-12.6,0-12.6C2419,727,2419,739.6,2427.1,739.6L2427.1,739.6z"/>
		</g>
	</g>
	<g>
		<g>
			<path fill="#69BD45" d="M2657.6,739.6c8.1,0,8.1-12.6,0-12.6C2649.4,727,2649.4,739.6,2657.6,739.6L2657.6,739.6z"/>
		</g>
	</g>
	<g>
		<g>
			<path fill="#69BD45" d="M2600,739.6c8.1,0,8.1-12.6,0-12.6C2591.8,727,2591.8,739.6,2600,739.6L2600,739.6z"/>
		</g>
	</g>
	<g>
		<g>
			<path fill="#69BD45" d="M2542.3,739.6c8.1,0,8.1-12.6,0-12.6C2534.2,727,2534.2,739.6,2542.3,739.6L2542.3,739.6z"/>
		</g>
	</g>
	<g>
		<g>
			<path fill="#69BD45" d="M2830.4,739.6c8.1,0,8.1-12.6,0-12.6C2822.3,727,2822.3,739.6,2830.4,739.6L2830.4,739.6z"/>
		</g>
	</g>
	<g>
		<g>
			<path fill="#69BD45" d="M2772.8,739.6c8.1,0,8.1-12.6,0-12.6C2764.7,727,2764.7,739.6,2772.8,739.6L2772.8,739.6z"/>
		</g>
	</g>
	<g>
		<g>
			<path fill="#69BD45" d="M2715.2,739.6c8.1,0,8.1-12.6,0-12.6C2707.1,727,2707,739.6,2715.2,739.6L2715.2,739.6z"/>
		</g>
	</g>
	<g>
		<g>
			<path fill="#69BD45" d="M2888,739.6c8.1,0,8.1-12.6,0-12.6C2879.9,727,2879.9,739.6,2888,739.6L2888,739.6z"/>
		</g>
	</g>
	<g>
		<g>
			<path fill="#69BD45" d="M3291.3,739.6c8.1,0,8.1-12.6,0-12.6C3283.2,727,3283.2,739.6,3291.3,739.6L3291.3,739.6z"/>
		</g>
	</g>
	<g>
		<g>
			<path fill="#69BD45" d="M3233.7,739.6c8.1,0,8.1-12.6,0-12.6C3225.6,727,3225.5,739.6,3233.7,739.6L3233.7,739.6z"/>
		</g>
	</g>
	<g>
		<g>
			<path fill="#69BD45" d="M3406.5,739.6c8.1,0,8.1-12.6,0-12.6C3398.4,727,3398.4,739.6,3406.5,739.6L3406.5,739.6z"/>
		</g>
	</g>
	<g>
		<g>
			<path fill="#69BD45" d="M3348.9,739.6c8.1,0,8.1-12.6,0-12.6C3340.8,727,3340.8,739.6,3348.9,739.6L3348.9,739.6z"/>
		</g>
	</g>
	<g>
		<g>
			<path fill="#69BD45" d="M3579.3,739.6c8.1,0,8.1-12.6,0-12.6C3571.2,727,3571.2,739.6,3579.3,739.6L3579.3,739.6z"/>
		</g>
	</g>
	<g>
		<g>
			<path fill="#69BD45" d="M3521.7,739.6c8.1,0,8.1-12.6,0-12.6C3513.6,727,3513.6,739.6,3521.7,739.6L3521.7,739.6z"/>
		</g>
	</g>
	<g>
		<g>
			<path fill="#69BD45" d="M3464.1,739.6c8.1,0,8.1-12.6,0-12.6C3456,727,3456,739.6,3464.1,739.6L3464.1,739.6z"/>
		</g>
	</g>
	<g>
		<g>
			<path fill="#69BD45" d="M3694.6,739.6c8.1,0,8.1-12.6,0-12.6C3686.5,727,3686.4,739.6,3694.6,739.6L3694.6,739.6z"/>
		</g>
	</g>
	<g>
		<g>
			<path fill="#69BD45" d="M3637,739.6c8.1,0,8.1-12.6,0-12.6C3628.8,727,3628.8,739.6,3637,739.6L3637,739.6z"/>
		</g>
	</g>
</g>
</svg>
