<?xml version="1.0" encoding="utf-8"?>
<!-- Generator: Adobe Illustrator 19.2.0, SVG Export Plug-In . SVG Version: 6.00 Build 0)  -->
<svg version="1.1" id="Layer_1" xmlns="http://www.w3.org/2000/svg" xmlns:xlink="http://www.w3.org/1999/xlink" x="0px" y="0px"
	 viewBox="0 0 2385 1808.3" style="enable-background:new 0 0 2385 1808.3;" xml:space="preserve">
<style type="text/css">
	.st0{fill:#231F20;}
	.st1{opacity:0.5;}
	.st2{fill:none;stroke:#006600;stroke-width:1.0331;stroke-miterlimit:10;}
</style>
<g id="Layer_1_1_">
	<rect x="-13.1" y="-14.9" class="st0" width="2487.6" height="1971.3"/>
	<g class="st1">
		<g>
			<line class="st2" x1="1286.8" y1="-9.1" x2="1330.2" y2="1816.3"/>
			<line class="st2" x1="1352.9" y1="-7.8" x2="1555.6" y2="1816.3"/>
			<line class="st2" x1="1408.3" y1="-9.1" x2="1754.5" y2="1816.3"/>
			<line class="st2" x1="1469.1" y1="-7.8" x2="1964.2" y2="1819.2"/>
			<line class="st2" x1="1540.5" y1="-7.8" x2="2183.3" y2="1819.2"/>
			<line class="st2" x1="1597.1" y1="-7.8" x2="2392" y2="1819.2"/>
			<line class="st2" x1="1664.5" y1="-7.8" x2="2440.5" y2="1519.9"/>
			<line class="st2" x1="1725" y1="-7.8" x2="2440.5" y2="1209.1"/>
			<line class="st2" x1="1790.7" y1="2" x2="2440.5" y2="965.8"/>
			<line class="st2" x1="1851.8" y1="-7.8" x2="2440.5" y2="781.3"/>
			<line class="st2" x1="1912.4" y1="-9.1" x2="2440.5" y2="634.3"/>
			<line class="st2" x1="1983.8" y1="-7.8" x2="2440.5" y2="506.2"/>
			<line class="st2" x1="2040.5" y1="-9.1" x2="2440.5" y2="392.6"/>
			<line class="st2" x1="2108" y1="-7.8" x2="2440.5" y2="312.6"/>
			<line class="st2" x1="2170" y1="-7.8" x2="2440.5" y2="229.9"/>
			<line class="st2" x1="2232" y1="-7.8" x2="2440.5" y2="173"/>
			<line class="st2" x1="2295.3" y1="-9.1" x2="2440.5" y2="111"/>
			<line class="st2" x1="2357.2" y1="-7.8" x2="2440.5" y2="51.9"/>
			<line class="st2" x1="2414.5" y1="-7.8" x2="2440.5" y2="14.7"/>
			<line class="st2" x1="1216.8" y1="-7.8" x2="1111.5" y2="1840.3"/>
			<line class="st2" x1="1153.5" y1="-7.8" x2="904.1" y2="1819.2"/>
			<line class="st2" x1="1088.7" y1="-7.8" x2="694.8" y2="1819.2"/>
			<line class="st2" x1="1028.8" y1="-7.8" x2="482.6" y2="1819.2"/>
			<line class="st2" x1="964.7" y1="-7.8" x2="271.9" y2="1819.2"/>
			<line class="st2" x1="904.1" y1="-7.8" x2="62.5" y2="1816.3"/>
			<line class="st2" x1="838" y1="-7.8" x2="-51.8" y2="1644.9"/>
			<line class="st2" x1="773.3" y1="-7.8" x2="-46" y2="1316"/>
			<line class="st2" x1="708.9" y1="-7.8" x2="-46" y2="1076.2"/>
			<line class="st2" x1="645.9" y1="-7.8" x2="-46" y2="883.2"/>
			<line class="st2" x1="582.9" y1="-7.8" x2="-46" y2="727.8"/>
			<line class="st2" x1="522.9" y1="-9.1" x2="-46" y2="595"/>
			<line class="st2" x1="462" y1="-9.1" x2="-46" y2="489.7"/>
			<line class="st2" x1="393.1" y1="-9.1" x2="-46" y2="399.5"/>
			<line class="st2" x1="331.5" y1="-9.1" x2="-46" y2="320.8"/>
			<line class="st2" x1="268.4" y1="-9.1" x2="-46" y2="240.3"/>
			<line class="st2" x1="208" y1="-9.1" x2="-46" y2="180.1"/>
			<line class="st2" x1="145.9" y1="-9.1" x2="-46" y2="130"/>
			<line class="st2" x1="85.4" y1="-9.1" x2="-46" y2="85.5"/>
			<line class="st2" x1="19.7" y1="-9.1" x2="-46" y2="38.2"/>
		</g>
		<line class="st2" x1="-46" y1="-9.1" x2="2503.3" y2="-9.1"/>
		<line class="st2" x1="-51.8" y1="1644.9" x2="2440.5" y2="1644.9"/>
		<line class="st2" x1="-51.8" y1="1484.2" x2="2440.5" y2="1484.2"/>
		<line class="st2" x1="-51.8" y1="1370.4" x2="2440.5" y2="1370.4"/>
		<line class="st2" x1="-51.8" y1="1244.2" x2="2440.5" y2="1244.2"/>
		<line class="st2" x1="-51.8" y1="1148.9" x2="2440.5" y2="1148.9"/>
		<line class="st2" x1="-51.8" y1="1048.2" x2="2440.5" y2="1048.2"/>
		<line class="st2" x1="-51.8" y1="965.8" x2="2440.5" y2="965.8"/>
		<line class="st2" x1="-51.8" y1="890.8" x2="2440.5" y2="890.8"/>
		<line class="st2" x1="-51.8" y1="820.6" x2="2440.5" y2="820.6"/>
		<line class="st2" x1="-51.8" y1="756.1" x2="2440.5" y2="756.1"/>
		<line class="st2" x1="-51.8" y1="695.2" x2="2440.5" y2="695.2"/>
		<line class="st2" x1="-51.8" y1="634.3" x2="2440.5" y2="634.3"/>
		<line class="st2" x1="-51.8" y1="590" x2="2440.5" y2="590"/>
		<line class="st2" x1="-51.8" y1="544.9" x2="2440.5" y2="544.9"/>
		<line class="st2" x1="-51.8" y1="498.1" x2="2440.5" y2="498.1"/>
		<line class="st2" x1="-51.8" y1="455.5" x2="2440.5" y2="455.5"/>
		<line class="st2" x1="-51.8" y1="416.2" x2="2440.5" y2="416.2"/>
		<line class="st2" x1="-51.8" y1="379.4" x2="2440.5" y2="379.4"/>
		<line class="st2" x1="-51.8" y1="346.8" x2="2440.5" y2="346.8"/>
		<line class="st2" x1="-51.8" y1="314.9" x2="2440.5" y2="314.9"/>
		<line class="st2" x1="-51.8" y1="284.2" x2="2440.5" y2="284.2"/>
		<line class="st2" x1="-51.8" y1="255.3" x2="2440.5" y2="255.3"/>
		<line class="st2" x1="-53.1" y1="227.1" x2="2439.2" y2="227.1"/>
		<line class="st2" x1="-53.1" y1="197.7" x2="2439.2" y2="197.7"/>
		<line class="st2" x1="-53.1" y1="177.6" x2="2439.2" y2="177.6"/>
		<line class="st2" x1="-53.1" y1="154.2" x2="2439.2" y2="154.2"/>
		<line class="st2" x1="-53.1" y1="134.2" x2="2439.2" y2="134.2"/>
		<line class="st2" x1="-53.1" y1="115.8" x2="2439.2" y2="115.8"/>
		<line class="st2" x1="-53.1" y1="91.6" x2="2439.2" y2="91.6"/>
		<line class="st2" x1="-54.5" y1="73.2" x2="2437.8" y2="73.2"/>
		<line class="st2" x1="-54.5" y1="56.1" x2="2437.8" y2="56.1"/>
		<line class="st2" x1="-54.5" y1="41.5" x2="2437.8" y2="41.5"/>
		<line class="st2" x1="-54.5" y1="26" x2="2437.8" y2="26"/>
		<line class="st2" x1="-54.5" y1="8.4" x2="2437.8" y2="8.4"/>
	</g>
</g>
</svg>
