<?xml version="1.0" encoding="utf-8"?>
<!-- Generator: Adobe Illustrator 19.2.0, SVG Export Plug-In . SVG Version: 6.00 Build 0)  -->
<svg version="1.1" id="Layer_1" xmlns="http://www.w3.org/2000/svg" xmlns:xlink="http://www.w3.org/1999/xlink" x="0px" y="0px"
	 viewBox="0 0 2785.8 1383.8" style="enable-background:new 0 0 2785.8 1383.8;" xml:space="preserve">
<style type="text/css">
	.st0{fill:#231F20;}
	.st1{opacity:0.9;}
	.st2{fill:none;stroke:#5EC936;stroke-width:4.6109;stroke-miterlimit:10;}
	.st3{fill:none;stroke:#006600;stroke-width:4.6109;stroke-miterlimit:10;}
	.st4{fill:none;stroke:#006600;stroke-width:6.9163;stroke-miterlimit:10;}
	.st5{fill:none;stroke:#006600;stroke-width:2.3054;stroke-miterlimit:10;}
	.st6{opacity:0.5;}
	.st7{fill:none;stroke:#006600;stroke-width:1.1527;stroke-miterlimit:10;}
	.st8{fill:#231F20;stroke:#006600;stroke-width:4.6109;stroke-miterlimit:10;}
	.st9{fill:none;stroke:#5EC936;stroke-width:4.6109;stroke-linecap:square;stroke-linejoin:bevel;stroke-miterlimit:10;}
	.st10{fill:#006600;stroke:#5EC936;stroke-width:4.6109;stroke-linecap:square;stroke-linejoin:bevel;stroke-miterlimit:10;}
	.st11{fill:none;stroke:#006600;stroke-width:4.6109;stroke-linecap:square;stroke-linejoin:bevel;stroke-miterlimit:10;}
	.st12{fill:none;stroke:#006600;stroke-width:4.3063;stroke-linecap:square;stroke-linejoin:bevel;stroke-miterlimit:10;}
	.st13{fill:none;stroke:#5EC936;stroke-width:4.3063;stroke-linecap:square;stroke-linejoin:bevel;stroke-miterlimit:10;}
	.st14{fill:none;stroke:#5EC936;stroke-width:2.3054;stroke-miterlimit:10;}
	.st15{fill:none;}
	.st16{fill:none;stroke:#006600;stroke-width:5.1512;stroke-miterlimit:10;}
</style>
<rect x="2.4" class="st0" width="2790.1" height="1384.6"/>
<g>
	<g class="st1">
		<polygon class="st2" points="1147,58.3 1397.3,58.3 1647.7,58.3 1647.7,151.1 1397.3,58.3 1147,151.1 		"/>
		<line class="st2" x1="1249" y1="58.3" x2="1249" y2="113.1"/>
		<line class="st2" x1="1349.5" y1="58.3" x2="1349.5" y2="76.3"/>
		<line class="st2" x1="1447.6" y1="58.3" x2="1447.6" y2="76.3"/>
		<line class="st2" x1="1546.6" y1="58.3" x2="1546.6" y2="115"/>
		<line class="st2" x1="1596.8" y1="58.3" x2="1596.8" y2="76.3"/>
		<line class="st2" x1="1497.9" y1="58.3" x2="1497.9" y2="76.3"/>
		<line class="st2" x1="1298.5" y1="58.3" x2="1298.5" y2="76.3"/>
		<line class="st2" x1="1196.4" y1="58.3" x2="1196.4" y2="76.3"/>
	</g>
	<path class="st3" d="M1460.3,1335.6"/>
	<path class="st3" d="M1398.4,1364.3"/>
	<path class="st3" d="M1383,1212.9"/>
	<path class="st3" d="M1419.4,1213.9"/>
	<path class="st3" d="M1387.3,1355.2"/>
	<path class="st3" d="M1323.3,1331.8"/>
	<path class="st3" d="M1393,1347.8"/>
	<path class="st4" d="M1262.3,1448.2"/>
	<path class="st5" d="M1276,1485"/>
	<path class="st5" d="M1321.2,1505.6"/>
	<path class="st5" d="M1358.1,1491.7"/>
	<path class="st3" d="M1397.3,1405.3"/>
	<path class="st3" d="M1406.8,1384.6"/>
	<path class="st5" d="M1425.8,1489.2"/>
	<g class="st6">
		<g>
			<line class="st7" x1="1497.9" y1="540.5" x2="1546.6" y2="1384.6"/>
			<line class="st7" x1="1572" y1="541.1" x2="1799.5" y2="1384.6"/>
			<line class="st7" x1="1634.2" y1="540.5" x2="2022.7" y2="1384.6"/>
			<line class="st7" x1="1702.4" y1="541.1" x2="2258" y2="1386"/>
			<line class="st7" x1="1782.6" y1="541.1" x2="2504" y2="1386"/>
			<line class="st7" x1="1846.1" y1="541.1" x2="2738" y2="1386"/>
			<line class="st7" x1="1921.7" y1="541.1" x2="2792.5" y2="1247.5"/>
			<line class="st7" x1="1989.6" y1="541.1" x2="2792.5" y2="1103.8"/>
			<line class="st7" x1="2063.4" y1="545.6" x2="2792.5" y2="991.3"/>
			<line class="st7" x1="2131.9" y1="541.1" x2="2792.5" y2="906"/>
			<line class="st7" x1="2200" y1="540.5" x2="2792.5" y2="837.9"/>
			<line class="st7" x1="2280" y1="541.1" x2="2792.5" y2="778.8"/>
			<line class="st7" x1="2343.7" y1="540.5" x2="2792.5" y2="726.2"/>
			<line class="st7" x1="2419.4" y1="541.1" x2="2792.5" y2="689.2"/>
			<line class="st7" x1="2489" y1="541.1" x2="2792.5" y2="651"/>
			<line class="st7" x1="2558.5" y1="541.1" x2="2792.5" y2="624.6"/>
			<line class="st7" x1="2629.6" y1="540.5" x2="2792.5" y2="596"/>
			<line class="st7" x1="2699" y1="541.1" x2="2792.5" y2="568.6"/>
			<line class="st7" x1="2763.3" y1="541.1" x2="2792.5" y2="551.4"/>
			<line class="st7" x1="1419.4" y1="541.1" x2="1301.2" y2="1395.8"/>
			<line class="st7" x1="1348.3" y1="541.1" x2="1068.5" y2="1386"/>
			<line class="st7" x1="1275.6" y1="541.1" x2="833.5" y2="1386"/>
			<line class="st7" x1="1208.4" y1="541.1" x2="595.5" y2="1386"/>
			<line class="st7" x1="1136.5" y1="541.1" x2="359" y2="1386"/>
			<line class="st7" x1="1068.5" y1="541.1" x2="124" y2="1384.6"/>
			<line class="st7" x1="994.3" y1="541.1" x2="-4.3" y2="1305.4"/>
			<line class="st7" x1="921.6" y1="541.1" x2="2.4" y2="1153.3"/>
			<line class="st7" x1="849.3" y1="541.1" x2="2.4" y2="1042.4"/>
			<line class="st7" x1="778.6" y1="541.1" x2="2.4" y2="953.1"/>
			<line class="st7" x1="707.9" y1="541.1" x2="2.4" y2="881.3"/>
			<line class="st7" x1="640.7" y1="540.5" x2="2.4" y2="819.8"/>
			<line class="st7" x1="572.3" y1="540.5" x2="2.4" y2="771.2"/>
			<line class="st7" x1="495" y1="540.5" x2="2.4" y2="729.4"/>
			<line class="st7" x1="425.8" y1="540.5" x2="2.4" y2="693"/>
			<line class="st7" x1="355.1" y1="540.5" x2="2.4" y2="655.8"/>
			<line class="st7" x1="287.3" y1="540.5" x2="2.4" y2="627.9"/>
			<line class="st7" x1="217.6" y1="540.5" x2="2.4" y2="604.7"/>
			<line class="st7" x1="149.8" y1="540.5" x2="2.4" y2="584.2"/>
			<line class="st7" x1="76.1" y1="540.5" x2="2.4" y2="562.3"/>
		</g>
		<line class="st7" x1="2.4" y1="540.5" x2="2863" y2="540.5"/>
		<line class="st7" x1="-4.3" y1="1305.4" x2="2792.5" y2="1305.4"/>
		<line class="st7" x1="-4.3" y1="1231" x2="2792.5" y2="1231"/>
		<line class="st7" x1="-4.3" y1="1178.5" x2="2792.5" y2="1178.5"/>
		<line class="st7" x1="-4.3" y1="1120" x2="2792.5" y2="1120"/>
		<line class="st7" x1="-4.3" y1="1076" x2="2792.5" y2="1076"/>
		<line class="st7" x1="-4.3" y1="1029.4" x2="2792.5" y2="1029.4"/>
		<line class="st7" x1="-4.3" y1="991.3" x2="2792.5" y2="991.3"/>
		<line class="st7" x1="-4.3" y1="956.6" x2="2792.5" y2="956.6"/>
		<line class="st7" x1="-4.3" y1="924.1" x2="2792.5" y2="924.1"/>
		<line class="st7" x1="-4.3" y1="894.2" x2="2792.5" y2="894.2"/>
		<line class="st7" x1="-4.3" y1="866.2" x2="2792.5" y2="866.2"/>
		<line class="st7" x1="-4.3" y1="837.9" x2="2792.5" y2="837.9"/>
		<line class="st7" x1="-4.3" y1="817.5" x2="2792.5" y2="817.5"/>
		<line class="st7" x1="-4.3" y1="796.6" x2="2792.5" y2="796.6"/>
		<line class="st7" x1="-4.3" y1="775" x2="2792.5" y2="775"/>
		<line class="st7" x1="-4.3" y1="755.3" x2="2792.5" y2="755.3"/>
		<line class="st7" x1="-4.3" y1="737.2" x2="2792.5" y2="737.2"/>
		<line class="st7" x1="-4.3" y1="720.1" x2="2792.5" y2="720.1"/>
		<line class="st7" x1="-4.3" y1="705.1" x2="2792.5" y2="705.1"/>
		<line class="st7" x1="-4.3" y1="690.3" x2="2792.5" y2="690.3"/>
		<line class="st7" x1="-4.3" y1="676" x2="2792.5" y2="676"/>
		<line class="st7" x1="-4.3" y1="662.7" x2="2792.5" y2="662.7"/>
		<line class="st7" x1="-5.7" y1="649.7" x2="2791.1" y2="649.7"/>
		<line class="st7" x1="-5.7" y1="636.1" x2="2791.1" y2="636.1"/>
		<line class="st7" x1="-5.7" y1="626.7" x2="2791.1" y2="626.7"/>
		<line class="st7" x1="-5.7" y1="616" x2="2791.1" y2="616"/>
		<line class="st7" x1="-5.7" y1="606.7" x2="2791.1" y2="606.7"/>
		<line class="st7" x1="-5.7" y1="598.2" x2="2791.1" y2="598.2"/>
		<line class="st7" x1="-5.7" y1="587" x2="2791.1" y2="587"/>
		<line class="st7" x1="-7.2" y1="578.5" x2="2789.5" y2="578.5"/>
		<line class="st7" x1="-7.2" y1="570.5" x2="2789.5" y2="570.5"/>
		<line class="st7" x1="-7.2" y1="563.8" x2="2789.5" y2="563.8"/>
		<line class="st7" x1="-7.2" y1="556.6" x2="2789.5" y2="556.6"/>
		<line class="st7" x1="-7.2" y1="548.5" x2="2789.5" y2="548.5"/>
	</g>
	<path class="st5" d="M1461.2,1506.4"/>
	<path class="st5" d="M1508.2,1490.2"/>
	<path class="st4" d="M1525.3,1454.8"/>
	<path class="st0" d="M1226.4,1499c0,0,38.1-94.8,58.2-98.7c-0.4-0.3-1.4-57.8,3-72.3c4.5-14.5,14.5-71.5,21.5-78.5
		c7-7,30-38.9,30-38.9v-97.1l26.5,1.5l0.5-85.5h65l0.5,84l28,2v80c0,0,10,4,20.5,12.1c10.5,8,19,23.6,19,23.6l9.5,18.3l8,23.5
		l4.3,22.3l2.3,24.4v22.6v20.5l-1.8,32.3l18.4,5.1l12.3,9.7l8.5,11.5l29.6,79.3h-363.8"/>
	<rect x="1365.8" y="1029.1" class="st3" width="65.4" height="149.3"/>
	<polyline class="st8" points="1339.1,1204.1 1308.4,1212.6 1266.2,1285.3 1284.8,1408.1 	"/>
	<polyline class="st8" points="1339.1,1234.3 1323.3,1243.5 1310,1331.8 1317.2,1372.1 1360.3,1395.8 1397.2,1448.4 	"/>
	<polyline class="st3" points="1431.1,1114.4 1461.8,1114.4 1461.8,1319.7 1339.1,1319.7 1339.1,1114.4 1365.8,1114.4 	"/>
	<path class="st3" d="M1521.4,1395.2c4.8-49,10.2-175.9-59.6-199.8"/>
	<path class="st3" d="M1226.4,1500.9l35.1-77.1c11-24,39.5-34.7,63.6-23.8l49.5,22.5"/>
	<path class="st3" d="M1398.1,1501.3l-4.8-13.9c-8.6-24.9,4.7-52.4,29.7-61l81-28c24.9-8.6,52.4,4.7,61,29.7l25,72.7"/>
	<polyline class="st9" points="140.4,74.7 109.4,74.7 109.4,91.2 140.4,91.2 140.4,112.6 109.4,112.6 	"/>
	<polyline class="st9" points="203.6,129.3 234.7,129.3 234.7,145.7 203.6,145.7 203.6,167.2 234.7,167.2 	"/>
	<polyline class="st9" points="186.6,74.7 155.5,74.7 155.5,112.6 186.6,112.6 	"/>
	<rect x="201.3" y="74.7" class="st9" width="34.7" height="37.9"/>
	<rect x="146.3" y="129.3" class="st9" width="34.7" height="37.9"/>
	<rect x="251.4" y="129.3" class="st9" width="34.7" height="37.9"/>
	<rect x="2425.3" y="74.7" class="st10" width="34.7" height="37.9"/>
	<rect x="2486.6" y="74.7" class="st10" width="34.7" height="37.9"/>
	<rect x="2547.8" y="74.7" class="st10" width="34.7" height="37.9"/>
	<rect x="2609.1" y="73.8" class="st9" width="34.7" height="37.9"/>
	<rect x="2670.3" y="73.8" class="st9" width="34.7" height="37.9"/>
	<polyline class="st9" points="251.1,112.6 251.1,74.7 281.7,74.7 281.7,93.7 251.1,93.7 281.7,112.6 	"/>
	<polyline class="st9" points="329.2,74.7 298.1,74.7 298.1,110.8 329.2,110.8 	"/>
	<path class="st11" d="M373.2,222.3"/>
	<line class="st9" x1="323.3" y1="92.8" x2="298.1" y2="92.8"/>
	<polyline class="st9" points="298.1,130.2 329.2,130.2 329.2,166.3 298.1,166.3 	"/>
	<line class="st11" x1="304.1" y1="148.2" x2="329.2" y2="148.2"/>
	<line class="st11" x1="191" y1="166.3" x2="184.2" y2="181.8"/>
	<path class="st12" d="M320.9,204.3"/>
	<g>
		<polyline class="st9" points="2345.2,74.7 2314.1,74.7 2314.1,110.8 		"/>
		<polyline class="st9" points="2386.2,74.7 2355,74.7 2355,110.8 2386.2,110.8 		"/>
		<line class="st9" x1="2380.2" y1="92.8" x2="2355" y2="92.8"/>
		<line class="st9" x1="2339.2" y1="92.8" x2="2314.1" y2="92.8"/>
		<polyline class="st13" points="2258,75 2258,110.5 2292.8,110.5 		"/>
		<line class="st13" x1="2301.1" y1="75" x2="2301.1" y2="110.5"/>
	</g>
	<line class="st14" x1="109.4" y1="134.3" x2="109.4" y2="172.2"/>
	<polyline class="st8" points="1245.4,541.1 1393,416.1 1468.6,541.1 	"/>
	<polyline class="st8" points="1702.4,541.1 1468.6,457.5 1393,416.1 	"/>
	<polyline class="st8" points="1626.8,374 1702.4,457.5 2003.1,541.1 1626.8,365.2 1468.6,457.5 	"/>
	<line class="st9" x1="133.5" y1="129.3" x2="133.5" y2="167.2"/>
	<polyline class="st9" points="1338,504.2 1239.9,406.2 1572,406.2 1474.8,503.4 	"/>
	<line class="st2" x1="1406" y1="173.7" x2="1406" y2="504.2"/>
	<polyline class="st9" points="1474,637.3 1572,735.4 1239.9,735.4 1337.2,638.1 	"/>
	<line class="st2" x1="1406" y1="967.8" x2="1406" y2="637.3"/>
	<line class="st15" x1="2220.8" y1="778.8" x2="2095" y2="586.8"/>
	<polyline class="st8" points="2.4,467.1 167.6,374 248.4,374 324.1,456.6 174.6,382.8 	"/>
	<polyline class="st8" points="172.8,541.1 471.7,374 621.1,541.1 	"/>
	<line class="st3" x1="696.8" y1="541.1" x2="555.1" y2="467.1"/>
	<polyline class="st8" points="1027.3,541.1 779.4,504.1 626,456.6 471.7,374 	"/>
	<polyline class="st8" points="2780.2,365.2 2695.9,365.2 2780.2,416.1 	"/>
	<polyline class="st8" points="2780.2,541.1 2546.4,456.6 2695.9,365.2 	"/>
	<polyline class="st8" points="2013.7,541.1 2382.9,456.6 2546.4,456.6 	"/>
	<line class="st3" x1="2546.4" y1="541.1" x2="2382.9" y2="456.6"/>
	<line class="st3" x1="2.4" y1="540.5" x2="2792.5" y2="540.5"/>
	<circle class="st8" cx="1051.3" cy="281.9" r="77.6"/>
	<g>
		<polygon class="st0" points="1655.4,750.2 1809,683.1 1989.6,568.6 1955.5,674 1925.3,729.2 1911.3,802.4 2225.4,814.5 
			2269.6,732.2 2165.2,675 2095,568.6 2036.7,686.1 2062.9,847.6 1711.6,830.6 		"/>
		<polygon class="st0" points="1809,683.1 1955.5,674 2165.2,675 2036.7,686.1 		"/>
		<polyline class="st0" points="2095,568.6 1989.6,568.6 1937.9,659.9 1896.1,744.8 1883.1,819.4 2062.9,847.6 2225.4,814.5 		"/>
		<polygon class="st0" points="1655.4,750.2 1928.3,726.2 2269.6,732.2 2049.2,763.4 		"/>
		<line class="st15" x1="1668" y1="768.2" x2="2051.7" y2="778.8"/>
		<polyline class="st0" points="1687.8,796.6 1911.3,802.4 1711.6,830.6 		"/>
		<polygon class="st0" points="1846.1,599.8 1846.1,634.9 1876.1,634.9 1989.6,634.9 2022.7,599.8 		"/>
		<line class="st15" x1="2042.3" y1="545.6" x2="2042.3" y2="567.6"/>
		<polygon class="st0" points="1987.1,517.4 2022.7,502.4 2063.4,502.4 2063.4,545.6 2022.7,545.6 2020.8,545.6 1987.1,533.3 		"/>
		<line class="st15" x1="2022.7" y1="545.7" x2="2022.7" y2="502.4"/>
		<line class="st15" x1="1874.4" y1="599.8" x2="1874.4" y2="634.9"/>
	</g>
	<polyline class="st8" points="1071.3,213.1 1089,275.3 1044.6,324 986.9,324 	"/>
	<g>
		<polygon class="st16" points="1655.4,750.2 1809,683.1 1989.6,568.6 1955.5,674 1925.3,729.2 1911.3,802.4 2225.4,814.5 
			2269.6,732.2 2165.2,675 2095,568.6 2036.7,686.1 2062.9,847.6 1711.6,830.6 		"/>
		<polygon class="st16" points="1809,683.1 1955.5,674 2165.2,675 2036.7,686.1 		"/>
		<line class="st16" x1="1989.6" y1="568.6" x2="2095" y2="568.6"/>
		<polygon class="st16" points="1655.4,750.2 1928.3,726.2 2269.6,732.2 2049.2,763.4 		"/>
		<line class="st16" x1="1668" y1="768.2" x2="2051.7" y2="778.8"/>
		<polyline class="st16" points="1687.8,796.6 1911.3,802.4 1711.6,830.6 		"/>
		<line class="st16" x1="2062.9" y1="847.6" x2="2225.4" y2="814.5"/>
		<polygon class="st16" points="1846.1,599.8 1846.1,634.9 1876.1,634.9 1989.6,634.9 2022.7,599.8 		"/>
		<line class="st16" x1="2042.3" y1="545.6" x2="2042.3" y2="567.6"/>
		<polygon class="st16" points="1987.1,517.4 2022.7,502.4 2063.4,502.4 2063.4,545.6 2022.7,545.6 2020.8,545.6 1987.1,533.3 		"/>
		<line class="st16" x1="2022.7" y1="545.7" x2="2022.7" y2="502.4"/>
		<line class="st16" x1="1874.4" y1="599.8" x2="1874.4" y2="634.9"/>
	</g>
	<g>
		<polygon class="st3" points="1655.4,750.2 1809,683.1 1989.6,568.6 1955.5,674 1925.3,729.2 1911.3,802.4 2225.4,814.5 
			2269.6,732.2 2165.2,675 2095,568.6 2036.7,686.1 2062.9,847.6 1711.6,830.6 		"/>
		<polygon class="st3" points="1809,683.1 1955.5,674 2165.2,675 2036.7,686.1 		"/>
		<line class="st3" x1="1989.6" y1="568.6" x2="2095" y2="568.6"/>
		<polygon class="st3" points="1655.4,750.2 1928.3,726.2 2269.6,732.2 2049.2,763.4 		"/>
		<line class="st3" x1="1668" y1="768.2" x2="2051.7" y2="778.8"/>
		<polyline class="st3" points="1687.8,796.6 1911.3,802.4 1711.6,830.6 		"/>
		<line class="st3" x1="2062.9" y1="847.6" x2="2225.4" y2="814.5"/>
		<polygon class="st3" points="1846.1,599.8 1846.1,634.9 1876.1,634.9 1989.6,634.9 2022.7,599.8 		"/>
		<line class="st3" x1="2042.3" y1="545.6" x2="2042.3" y2="567.6"/>
		<polygon class="st3" points="1987.1,517.4 2022.7,502.4 2063.4,502.4 2063.4,545.6 2022.7,545.6 2020.8,545.6 1987.1,533.3 		"/>
		<line class="st3" x1="2022.7" y1="545.7" x2="2022.7" y2="502.4"/>
		<line class="st3" x1="1874.4" y1="599.8" x2="1874.4" y2="634.9"/>
	</g>
	<polyline class="st8" points="1461.8,1189.6 1497.9,1199.7 1540,1272.3 1521.4,1395.2 	"/>
</g>
</svg>
