<?xml version="1.0" encoding="utf-8"?>
<!-- Generator: Adobe Illustrator 19.2.0, SVG Export Plug-In . SVG Version: 6.00 Build 0)  -->
<svg version="1.1" id="Layer_1" xmlns="http://www.w3.org/2000/svg" xmlns:xlink="http://www.w3.org/1999/xlink" x="0px" y="0px"
	 viewBox="0 0 2861.7 1421.5" style="enable-background:new 0 0 2861.7 1421.5;" xml:space="preserve">
<style type="text/css">
	.st0{fill:#231F20;}
	.st1{fill:none;stroke:#5EC936;stroke-width:4.8052;stroke-linejoin:bevel;stroke-miterlimit:10;}
	.st2{fill:none;stroke:#006600;stroke-width:4.8052;stroke-linejoin:bevel;stroke-miterlimit:10;}
	.st3{fill:#006600;}
</style>
<g id="Layer_1_1_">
	<g>
		<rect x="-14" y="-11.9" class="st0" width="2891.4" height="1434.8"/>
		<polyline class="st1" points="120.2,98.8 89.2,98.8 89.2,71.9 120.2,71.9 120.2,125.7 		"/>
		<polyline class="st1" points="136.7,71.9 173.2,71.9 173.2,125.7 		"/>
		<polyline class="st1" points="191.1,71.9 224.9,71.9 224.9,122.2 191.1,122.2 		"/>
		<line class="st1" x1="191.1" y1="97.1" x2="224.9" y2="97.1"/>
		<line class="st1" x1="258.6" y1="71.9" x2="258.6" y2="122.2"/>
		<rect x="289.6" y="71.9" class="st1" width="34.4" height="50.3"/>
		<path class="st1" d="M197.3,185.6l17.9-49.6l17.9,49.6c0,0-8.3-11-17.9-11S197.3,185.6,197.3,185.6z"/>
		<path class="st1" d="M246.1,185.6L264,136l17.9,49.6c0,0-8.3-11-17.9-11C254.3,174.6,246.1,185.6,246.1,185.6z"/>
		<path class="st1" d="M294.8,185.6l17.9-49.6l17.9,49.6c0,0-8.3-11-17.9-11C303.1,174.6,294.8,185.6,294.8,185.6z"/>
		<path class="st1" d="M343.6,185.6l17.9-49.6l17.9,49.6c0,0-8.3-11-17.9-11S343.6,185.6,343.6,185.6z"/>
		<path class="st1" d="M392.4,185.6l17.9-49.6l17.9,49.6c0,0-8.3-11-17.9-11C400.6,174.6,392.4,185.6,392.4,185.6z"/>
		<path class="st1" d="M441.1,185.6L459,136l17.9,49.6c0,0-8.3-11-17.9-11S441.1,185.6,441.1,185.6z"/>
		<polygon class="st2" points="275.1,364.6 285.4,364.6 285.4,357.2 300.4,357.2 300.4,364.6 311.3,364.6 299.2,373.3 311.3,379 
			302.1,386.5 285.4,386.5 275.1,375.6 		"/>
		<polygon class="st2" points="229.1,539.9 256.7,565.2 284.9,539.9 315.9,565.2 299.2,591.1 315.9,616.9 278,638.2 229.1,639.9 
			201,616.4 201,562.9 		"/>
		<polygon class="st2" points="1800,806.9 1826.7,780.7 1803,751.2 1829.9,721.6 1854.8,739.7 1881.6,724.4 1900.7,763.4 
			1899.8,812.3 1874.8,839.2 1821.4,836.3 		"/>
		<polygon class="st2" points="1195.2,1449.5 1222,1423.3 1198.2,1393.8 1225.2,1364.2 1250.1,1382.2 1276.8,1367 1296,1406 
			1295.1,1454.9 1270,1481.7 1216.7,1478.9 		"/>
		<polygon class="st2" points="630.3,1145.1 657.9,1170.4 686,1145.1 717.1,1170.4 700.4,1196.2 717.1,1222.1 679.1,1243.4 
			630.3,1245.1 602.1,1221.5 602.1,1168.1 		"/>
		<g>
			<ellipse class="st2" cx="435.4" cy="705.8" rx="35.4" ry="16.1"/>
			<path class="st2" d="M418.2,692.3c0-4.4,7.4-18.7,17.2-18.7s17.7,13.8,17.7,18.2"/>
			<line class="st2" x1="391.8" y1="705.8" x2="477.4" y2="705.8"/>
		</g>
		<g>
			<ellipse class="st2" cx="2275.4" cy="93.3" rx="35.4" ry="16.1"/>
			<path class="st2" d="M2258.2,79.8c0-4.4,7.4-18.7,17.2-18.7s17.7,13.8,17.7,18.2"/>
			<line class="st2" x1="2231.8" y1="93.3" x2="2317.4" y2="93.3"/>
		</g>
		<g>
			<ellipse class="st2" cx="2289.2" cy="1357" rx="35.4" ry="16.1"/>
			<path class="st2" d="M2272,1343.4c0-4.4,7.4-18.7,17.2-18.7s17.7,13.8,17.7,18.2"/>
			<line class="st2" x1="2245.5" y1="1357" x2="2331.2" y2="1357"/>
		</g>
		<polygon class="st2" points="826.4,535.3 863.2,514.4 917.7,544.9 882.4,565.7 936.9,607.3 900.1,669.8 832.8,669.8 826.4,698.6 
			755.9,650.6 763.9,617 730.3,564.1 775.1,524.1 		"/>
		<polygon class="st2" points="1640.9,190 1650.1,148.7 1709.1,128.6 1701,168.7 1768.4,156.1 1790.2,225.3 1745.2,275.3 
			1762.3,299.3 1679.5,319.6 1659.8,291.1 1598,280.8 1598.3,220.6 		"/>
		<polygon class="st2" points="-29.1,1189.3 -19.9,1148 39.1,1127.9 31,1168 98.4,1155.4 120.2,1224.6 75.2,1274.6 92.3,1298.6 
			9.5,1318.9 -10.2,1290.4 -72,1280.1 -71.7,1219.9 		"/>
		<polygon class="st2" points="1303.7,636.2 1334.1,620.2 1342.1,636.2 1350.1,620.2 1380.6,649 1380.6,680.6 1356.5,698.6 
			1335.7,698.6 1303.7,671.4 1303.7,659.4 1342.1,650.6 		"/>
		<polygon class="st2" points="655,780.3 669.4,809.2 677.8,802 710.2,820 716.3,868 668.2,898.1 640.6,874 612.9,887.2 
			602.1,865.6 617.8,805.6 		"/>
		<polygon class="st2" points="2143.5,333.1 2157.9,362 2166.3,354.7 2198.8,372.8 2204.8,420.8 2156.7,450.8 2129.1,426.8 
			2101.5,440 2090.7,418.4 2106.3,358.3 		"/>
		<polygon class="st2" points="2650,1052.7 2681.3,1044.8 2676,1035 2700.6,1007.2 2748.8,1011.7 2767.8,1065.1 2738.4,1086.9 
			2745.4,1116.7 2722,1122.6 2666.6,1094.5 		"/>
		<polygon class="st2" points="2086.5,392 2100.9,420.8 2109.3,413.6 2141.7,431.6 2147.7,479.7 2099.7,509.7 2072,485.7 
			2044.4,498.9 2033.6,477.3 2049.2,417.2 		"/>
		<polygon class="st2" points="874.8,860.8 885.6,847.6 903.7,839.2 896.5,860.8 915.7,850 915.7,872.8 904.9,872.8 907.9,886 
			895.2,892.7 871.8,872.8 885,865.9 		"/>
		<polygon class="st2" points="966.4,808.5 977.2,795.3 995.2,786.9 988,808.5 1007.2,797.7 1007.2,820.5 996.4,820.5 999.4,833.8 
			986.8,840.4 963.4,820.5 976.6,813.6 		"/>
		<polygon class="st2" points="1058.5,909.7 1069.3,896.5 1087.3,888.1 1080.1,909.7 1099.3,898.9 1099.3,921.8 1088.5,921.8 
			1091.5,935 1078.9,941.6 1055.5,921.8 1068.7,914.9 		"/>
		<polygon class="st2" points="2707.7,302.9 2718.5,289.7 2736.5,281.3 2729.3,302.9 2748.5,292.1 2748.5,315 2737.7,315 
			2740.7,328.2 2728.1,334.8 2704.7,315 2717.9,308 		"/>
		<polygon class="st2" points="2522.2,671.6 2517.2,655.3 2520.1,635.6 2534.1,653.6 2535.7,631.6 2554.8,644.2 2548.8,653.2 
			2561.5,658 2560,672.1 2530.6,680.7 2532.1,665.9 		"/>
		<polygon class="st2" points="898.6,247.8 893.5,231.5 896.4,211.8 910.5,229.8 912.1,207.8 931.1,220.4 925.2,229.4 937.8,234.2 
			936.4,248.3 906.9,257 908.5,242.1 		"/>
		<polygon class="st2" points="441.9,56.8 436.9,40.5 439.8,20.9 453.8,38.8 455.4,16.8 474.5,29.4 468.5,38.4 481.2,43.2 
			479.7,57.3 450.3,66 451.8,51.1 		"/>
		<polygon class="st2" points="1921.5,1164.2 1916.5,1147.9 1919.4,1128.3 1933.5,1146.2 1935.1,1124.2 1954.1,1136.8 
			1948.1,1145.8 1960.8,1150.6 1959.4,1164.8 1929.9,1173.4 1931.4,1158.5 		"/>
		<polygon class="st2" points="1807.8,1224.7 1802.7,1208.4 1805.6,1188.8 1819.7,1206.7 1821.3,1184.7 1840.3,1197.3 
			1834.3,1206.3 1847,1211.1 1845.6,1225.3 1816.1,1233.9 1817.6,1219 		"/>
		<g>
			<polyline class="st2" points="2395.8,1054.4 2379.8,1032.9 2318,949.8 2441.7,981.8 			"/>
			<line class="st2" x1="2412.9" y1="980.8" x2="2379.8" y2="1032.9"/>
			<polyline class="st2" points="2396.4,1026.6 2441.7,1032.9 2419,1002.1 			"/>
		</g>
		<g>
			<g>
				<path class="st3" d="M535.1,503.7c7.7,0,7.7-12,0-12C527.4,491.7,527.4,503.7,535.1,503.7L535.1,503.7z"/>
			</g>
		</g>
		<g>
			<g>
				<path class="st3" d="M573.6,508.5c7.7,0,7.7-12,0-12C565.8,496.5,565.8,508.5,573.6,508.5L573.6,508.5z"/>
			</g>
		</g>
		<g>
			<g>
				<path class="st3" d="M568.8,470.1c7.7,0,7.7-12,0-12C561,458.1,561,470.1,568.8,470.1L568.8,470.1z"/>
			</g>
		</g>
		<g>
			<g>
				<path class="st3" d="M626.4,484.5c7.7,0,7.7-12,0-12S618.7,484.5,626.4,484.5L626.4,484.5z"/>
			</g>
		</g>
		<g>
			<g>
				<path class="st3" d="M525.5,465.3c7.7,0,7.7-12,0-12C517.8,453.2,517.8,465.3,525.5,465.3L525.5,465.3z"/>
			</g>
		</g>
		<g>
			<g>
				<path class="st3" d="M559.1,551.8c7.7,0,7.7-12,0-12C551.4,539.7,551.4,551.8,559.1,551.8L559.1,551.8z"/>
			</g>
		</g>
		<g>
			<g>
				<path class="st3" d="M621.6,460.5c7.7,0,7.7-12,0-12C613.9,448.4,613.9,460.5,621.6,460.5L621.6,460.5z"/>
			</g>
		</g>
		<g>
			<g>
				<path class="st3" d="M588,398c7.7,0,7.7-12,0-12C580.2,386,580.2,398,588,398L588,398z"/>
			</g>
		</g>
		<g>
			<g>
				<path class="st3" d="M612,585.4c7.7,0,7.7-12,0-12S604.3,585.4,612,585.4L612,585.4z"/>
			</g>
		</g>
		<g>
			<g>
				<path class="st3" d="M693.7,489.3c7.7,0,7.7-12,0-12S685.9,489.3,693.7,489.3L693.7,489.3z"/>
			</g>
		</g>
		<g>
			<g>
				<path class="st3" d="M607.2,527.7c7.7,0,7.7-12,0-12S599.5,527.7,607.2,527.7L607.2,527.7z"/>
			</g>
		</g>
		<g>
			<g>
				<path class="st3" d="M1174.7,537.5c7.7,0,7.7-12,0-12S1167,537.5,1174.7,537.5L1174.7,537.5z"/>
			</g>
		</g>
		<g>
			<g>
				<path class="st3" d="M1841.4,314.1c7.7,0,7.7-12,0-12C1833.7,302,1833.7,314.1,1841.4,314.1L1841.4,314.1z"/>
			</g>
		</g>
		<g>
			<g>
				<path class="st3" d="M2554.9,764.5c7.7,0,7.7-12,0-12S2547.2,764.5,2554.9,764.5L2554.9,764.5z"/>
			</g>
		</g>
		<g>
			<g>
				<path class="st3" d="M2536.9,1229.4c7.7,0,7.7-12,0-12S2529.2,1229.4,2536.9,1229.4L2536.9,1229.4z"/>
			</g>
		</g>
		<g>
			<g>
				<path class="st3" d="M2082.9,1099.7c7.7,0,7.7-12,0-12C2075.1,1087.6,2075.1,1099.7,2082.9,1099.7L2082.9,1099.7z"/>
			</g>
		</g>
		<g>
			<g>
				<path class="st3" d="M2082.9,1067.2c7.7,0,7.7-12,0-12C2075.1,1055.2,2075.1,1067.2,2082.9,1067.2L2082.9,1067.2z"/>
			</g>
		</g>
		<g>
			<g>
				<path class="st3" d="M2043.2,1096.1c7.7,0,7.7-12,0-12C2035.5,1084,2035.5,1096.1,2043.2,1096.1L2043.2,1096.1z"/>
			</g>
		</g>
		<g>
			<g>
				<path class="st3" d="M2050.4,1034.8c7.7,0,7.7-12,0-12C2042.7,1022.8,2042.7,1034.8,2050.4,1034.8L2050.4,1034.8z"/>
			</g>
		</g>
		<g>
			<g>
				<path class="st3" d="M2079.2,1034.8c7.7,0,7.7-12,0-12C2071.5,1022.8,2071.5,1034.8,2079.2,1034.8L2079.2,1034.8z"/>
			</g>
		</g>
		<g>
			<g>
				<path class="st3" d="M2147.7,1067.2c7.7,0,7.7-12,0-12S2140,1067.2,2147.7,1067.2L2147.7,1067.2z"/>
			</g>
		</g>
		<g>
			<g>
				<path class="st3" d="M2025.2,1067.2c7.7,0,7.7-12,0-12S2017.4,1067.2,2025.2,1067.2L2025.2,1067.2z"/>
			</g>
		</g>
		<g>
			<g>
				<path class="st3" d="M2129.7,1038.4c7.7,0,7.7-12,0-12S2122,1038.4,2129.7,1038.4L2129.7,1038.4z"/>
			</g>
		</g>
		<g>
			<g>
				<path class="st3" d="M2126.1,1128.5c7.7,0,7.7-12,0-12C2118.4,1116.5,2118.4,1128.5,2126.1,1128.5L2126.1,1128.5z"/>
			</g>
		</g>
		<g>
			<g>
				<path class="st3" d="M2086.5,977.1c7.7,0,7.7-12,0-12C2078.7,965.1,2078.7,977.1,2086.5,977.1L2086.5,977.1z"/>
			</g>
		</g>
		<g>
			<g>
				<path class="st3" d="M2007.2,1027.6c7.7,0,7.7-12,0-12C1999.4,1015.6,1999.4,1027.6,2007.2,1027.6L2007.2,1027.6z"/>
			</g>
		</g>
		<g>
			<g>
				<path class="st3" d="M1380.1,1186.1c7.7,0,7.7-12,0-12S1372.4,1186.1,1380.1,1186.1L1380.1,1186.1z"/>
			</g>
		</g>
		<g>
			<g>
				<path class="st3" d="M1102.6,1081.6c7.7,0,7.7-12,0-12S1094.9,1081.6,1102.6,1081.6L1102.6,1081.6z"/>
			</g>
		</g>
		<g>
			<g>
				<path class="st3" d="M1477.4,869c7.7,0,7.7-12,0-12C1469.7,857,1469.7,869,1477.4,869L1477.4,869z"/>
			</g>
		</g>
		<g>
			<g>
				<path class="st3" d="M1077.4,180.7c7.7,0,7.7-12,0-12C1069.7,168.7,1069.7,180.7,1077.4,180.7L1077.4,180.7z"/>
			</g>
		</g>
		<g>
			<g>
				<path class="st3" d="M64.8,1078c7.7,0,7.7-12,0-12S57,1078,64.8,1078L64.8,1078z"/>
			</g>
		</g>
		<g>
			<g>
				<path class="st3" d="M526.1,1088.8c7.7,0,7.7-12,0-12C518.3,1076.8,518.3,1088.8,526.1,1088.8L526.1,1088.8z"/>
			</g>
		</g>
		<g>
			<g>
				<path class="st3" d="M302.6,1272.6c7.7,0,7.7-12,0-12S294.9,1272.6,302.6,1272.6L302.6,1272.6z"/>
			</g>
		</g>
		<g>
			<g>
				<path class="st3" d="M2681.1,108.6c7.7,0,7.7-12,0-12C2673.3,96.6,2673.3,108.6,2681.1,108.6L2681.1,108.6z"/>
			</g>
		</g>
		<g>
			<g>
				<path class="st3" d="M2320.7,317.7c7.7,0,7.7-12,0-12C2313,305.6,2313,317.7,2320.7,317.7L2320.7,317.7z"/>
			</g>
		</g>
		<g>
			<g>
				<path class="st3" d="M608.9,87c7.7,0,7.7-12,0-12S601.2,87,608.9,87L608.9,87z"/>
			</g>
		</g>
		<g>
			<g>
				<path class="st3" d="M1827,1279.8c7.7,0,7.7-12,0-12S1819.2,1279.8,1827,1279.8L1827,1279.8z"/>
			</g>
		</g>
		<g>
			<g>
				<path class="st3" d="M2180.2,523.1c7.7,0,7.7-12,0-12C2172.4,511.1,2172.4,523.1,2180.2,523.1L2180.2,523.1z"/>
			</g>
		</g>
		<g>
			<g>
				<path class="st3" d="M2821.6,505.1c7.7,0,7.7-12,0-12C2813.9,493,2813.9,505.1,2821.6,505.1L2821.6,505.1z"/>
			</g>
		</g>
		<g>
			<g>
				<path class="st3" d="M1560.3,69c7.7,0,7.7-12,0-12C1552.6,57,1552.6,69,1560.3,69L1560.3,69z"/>
			</g>
		</g>
		<g>
			<g>
				<path class="st3" d="M2482.9,101.4c7.7,0,7.7-12,0-12C2475.1,89.4,2475.1,101.4,2482.9,101.4L2482.9,101.4z"/>
			</g>
		</g>
		<g>
			<g>
				<path class="st3" d="M2500.9,166.3c7.7,0,7.7-12,0-12S2493.1,166.3,2500.9,166.3L2500.9,166.3z"/>
			</g>
		</g>
		<g>
			<g>
				<path class="st3" d="M2526.1,130.3c7.7,0,7.7-12,0-12C2518.4,118.3,2518.4,130.3,2526.1,130.3L2526.1,130.3z"/>
			</g>
		</g>
		<g>
			<g>
				<path class="st3" d="M2410.8,133.9c7.7,0,7.7-12,0-12C2403.1,121.9,2403,133.9,2410.8,133.9L2410.8,133.9z"/>
			</g>
		</g>
		<g>
			<g>
				<path class="st3" d="M2421.6,69c7.7,0,7.7-12,0-12C2413.9,57,2413.9,69,2421.6,69L2421.6,69z"/>
			</g>
		</g>
		<g>
			<g>
				<path class="st3" d="M2468.4,151.9c7.7,0,7.7-12,0-12S2460.7,151.9,2468.4,151.9L2468.4,151.9z"/>
			</g>
		</g>
		<g>
			<g>
				<path class="st3" d="M2551.3,47.4c7.7,0,7.7-12,0-12S2543.6,47.4,2551.3,47.4L2551.3,47.4z"/>
			</g>
		</g>
		<g>
			<g>
				<path class="st3" d="M2482.9,47.4c7.7,0,7.7-12,0-12C2475.1,35.4,2475.1,47.4,2482.9,47.4L2482.9,47.4z"/>
			</g>
		</g>
		<g>
			<g>
				<path class="st3" d="M2522.5,101.4c7.7,0,7.7-12,0-12S2514.8,101.4,2522.5,101.4L2522.5,101.4z"/>
			</g>
		</g>
		<g>
			<g>
				<path class="st3" d="M2594.6,101.4c7.7,0,7.7-12,0-12C2586.8,89.4,2586.8,101.4,2594.6,101.4L2594.6,101.4z"/>
			</g>
		</g>
		<g>
			<g>
				<path class="st3" d="M2551.3,180.7c7.7,0,7.7-12,0-12S2543.6,180.7,2551.3,180.7L2551.3,180.7z"/>
			</g>
		</g>
		<g>
			<g>
				<path class="st3" d="M2591,238.4c7.7,0,7.7-12,0-12C2583.2,226.4,2583.2,238.4,2591,238.4L2591,238.4z"/>
			</g>
		</g>
		<g>
			<g>
				<path class="st3" d="M2450.4,213.2c7.7,0,7.7-12,0-12C2442.7,201.1,2442.7,213.2,2450.4,213.2L2450.4,213.2z"/>
			</g>
		</g>
	</g>
</g>
</svg>
