<?xml version="1.0" encoding="utf-8"?>
<!-- Generator: Adobe Illustrator 19.2.0, SVG Export Plug-In . SVG Version: 6.00 Build 0)  -->
<svg version="1.1" id="Layer_1" xmlns="http://www.w3.org/2000/svg" xmlns:xlink="http://www.w3.org/1999/xlink" x="0px" y="0px"
	 viewBox="0 0 2863 1422.2" style="enable-background:new 0 0 2863 1422.2;" xml:space="preserve">
<style type="text/css">
	.st0{fill:#231F20;}
	.st1{fill:none;stroke:#006600;stroke-width:4.7617;stroke-miterlimit:10;}
	.st2{fill:none;stroke:#5EC936;stroke-width:4.7617;stroke-miterlimit:10;}
	.st3{fill:none;stroke:#5EC936;stroke-width:4.7617;stroke-linejoin:bevel;stroke-miterlimit:10;}
	.st4{fill:none;stroke:#5EC936;stroke-width:4.7617;stroke-linecap:square;stroke-linejoin:bevel;stroke-miterlimit:10;}
	.st5{fill:#006600;}
</style>
<g id="Layer_1_1_">
	<rect x="-11.1" y="-6.6" class="st0" width="2891.9" height="1435.1"/>
	<g>
		<g>
			<polyline class="st1" points="-5.1,568.3 46.3,544.7 200.8,544.7 123.6,574.8 97.8,625.1 97.8,724.9 123.6,763.5 200.8,800 
				42.1,800 -5.1,779.3 			"/>
			<polyline class="st1" points="210.1,800 210.1,781.4 153.6,763.5 125.7,723.5 125.7,620.5 152.2,579.8 210.1,561.9 210.1,544.7 
							"/>
			<line class="st1" x1="-5.1" y1="573.3" x2="123.6" y2="574.8"/>
			<line class="st1" x1="-5.1" y1="765.7" x2="123.6" y2="763.5"/>
			<polygon class="st1" points="-5.1,711.3 42.8,711.3 65.6,693.5 65.6,650.6 43.5,635.6 -5.1,635.6 12,650.6 12.7,693.5 			"/>
			<line class="st1" x1="-5.1" y1="650.6" x2="65.6" y2="650.6"/>
			<line class="st1" x1="-5.1" y1="693.5" x2="65.6" y2="693.5"/>
			<polyline class="st1" points="123.6,650.6 263,650.6 288,669.2 263.7,693.5 125.7,693.5 			"/>
			<line class="st1" x1="125.7" y1="672" x2="288" y2="669.2"/>
		</g>
		<g>
			<polyline class="st1" points="-5.1,1188.4 46.3,1164.8 200.8,1164.8 123.6,1194.8 97.8,1245.1 97.8,1345 123.6,1383.6 
				200.8,1420.1 42.1,1420.1 -5.1,1399.3 			"/>
			<polyline class="st1" points="210.1,1420.1 210.1,1401.5 153.6,1383.6 125.7,1343.6 125.7,1240.6 152.2,1199.8 210.1,1182 
				210.1,1164.8 			"/>
			<line class="st1" x1="-5.1" y1="1193.4" x2="123.6" y2="1194.8"/>
			<line class="st1" x1="-5.1" y1="1385.7" x2="123.6" y2="1383.6"/>
			<polygon class="st1" points="-5.1,1331.4 42.8,1331.4 65.6,1313.5 65.6,1270.6 43.5,1255.6 -5.1,1255.6 12,1270.6 12.7,1313.5 
							"/>
			<line class="st1" x1="-5.1" y1="1270.6" x2="65.6" y2="1270.6"/>
			<line class="st1" x1="-5.1" y1="1313.5" x2="65.6" y2="1313.5"/>
			<polyline class="st1" points="123.6,1270.6 234,1224.7 281.8,1223.7 260.9,1255.6 125.7,1313.5 			"/>
			<line class="st1" x1="125.7" y1="1292.1" x2="281.8" y2="1223.7"/>
		</g>
		<g>
			<polygon class="st1" points="563.1,369.2 704.2,435.7 772.7,613.1 763.7,756.2 649.8,756.2 555,562.7 			"/>
			<polygon class="st1" points="1046.9,369.2 1108.4,433.7 1137.6,609 1137.6,756.2 1086.2,756.2 1046.9,562.7 			"/>
			<line class="st1" x1="567.1" y1="376.5" x2="763.7" y2="756.2"/>
			<line class="st1" x1="648.4" y1="753.4" x2="704.2" y2="435.7"/>
			<line class="st1" x1="555.2" y1="559.2" x2="772.7" y2="613.1"/>
			<polygon class="st1" points="663.9,566.4 681.3,566.4 693.8,593.5 687.6,609.2 673.7,609.2 663.9,586.1 			"/>
			<polyline class="st1" points="689.8,609.2 806.7,609.2 818.4,605 814.1,571.7 797.9,566.4 681.3,566.4 			"/>
			<line class="st1" x1="673.6" y1="582.2" x2="793.9" y2="582.2"/>
			<line class="st1" x1="678.8" y1="592.3" x2="798.9" y2="594.5"/>
			<polygon class="st1" points="789.9,566.4 806.7,609.2 881.9,653 934.3,653 976,607.3 971.6,566.4 892.7,521 833.2,521 814,541.1 
							"/>
			<polyline class="st1" points="803.3,592.3 888.3,597.3 948.1,598.6 974.2,590.9 1103,590.9 			"/>
			<polyline class="st1" points="814.1,571.7 868.1,534.1 918.9,536.1 945.7,598.6 934.3,653 904.8,638.2 885.3,606.7 908.5,575.1 
				956.5,582.2 1090.2,582.1 			"/>
			<polyline class="st1" points="833.2,521 868.1,534.1 895.7,597.4 881.9,653 			"/>
			<polyline class="st1" points="856.5,638.3 904.8,638.2 961.9,607 1103,607 1100.3,569.4 1090.2,566.4 971.6,566.4 956.5,582.2 
				960.9,605.3 			"/>
			<line class="st1" x1="818.4" y1="605" x2="882.9" y2="607.7"/>
			<line class="st1" x1="815.8" y1="539.2" x2="868.1" y2="534.1"/>
			<line class="st1" x1="1046.9" y1="369.2" x2="1137.6" y2="756.2"/>
			<line class="st1" x1="1108.4" y1="433.7" x2="1086.2" y2="756.2"/>
			<line class="st1" x1="1046.9" y1="562.7" x2="1137.6" y2="609"/>
		</g>
		<g>
			<polygon class="st1" points="2242.9,369.2 2101.8,435.7 2033.3,613.1 2042.3,756.2 2156.2,756.2 2251,562.7 			"/>
			<polygon class="st1" points="1759.1,369.2 1697.6,433.7 1668.4,609 1668.4,756.2 1719.8,756.2 1759.1,562.7 			"/>
			<line class="st1" x1="2238.9" y1="376.5" x2="2042.3" y2="756.2"/>
			<line class="st1" x1="2157.6" y1="753.4" x2="2101.8" y2="435.7"/>
			<line class="st1" x1="2250.8" y1="559.2" x2="2033.3" y2="613.1"/>
			<polygon class="st1" points="2142.1,566.4 2124.7,566.4 2112.2,593.5 2118.4,609.2 2132.3,609.2 2142.1,586.1 			"/>
			<polyline class="st1" points="2116.2,609.2 1999.3,609.2 1987.6,605 1991.9,571.7 2008.1,566.4 2124.7,566.4 			"/>
			<line class="st1" x1="2132.4" y1="582.2" x2="2012.1" y2="582.2"/>
			<line class="st1" x1="2127.1" y1="592.3" x2="2007.1" y2="594.5"/>
			<polygon class="st1" points="2016.1,566.4 1999.3,609.2 1924.1,653 1871.7,653 1830,607.3 1834.4,566.4 1913.3,521 1972.8,521 
				1992,541.1 			"/>
			<polyline class="st1" points="2002.7,592.3 1917.7,597.3 1857.9,598.6 1831.8,590.9 1703,590.9 			"/>
			<polyline class="st1" points="1991.9,571.7 1937.8,534.1 1887.1,536.1 1860.2,598.6 1871.7,653 1901.2,638.2 1920.7,606.7 
				1897.5,575.1 1849.5,582.2 1715.8,582.1 			"/>
			<polyline class="st1" points="1972.8,521 1937.8,534.1 1910.3,597.4 1924.1,653 			"/>
			<polyline class="st1" points="1949.5,638.3 1901.2,638.2 1844.1,607 1703,607 1705.7,569.4 1715.8,566.4 1834.4,566.4 
				1849.5,582.2 1845.1,605.3 			"/>
			<line class="st1" x1="1987.6" y1="605" x2="1923.1" y2="607.7"/>
			<line class="st1" x1="1990.2" y1="539.2" x2="1937.8" y2="534.1"/>
			<line class="st1" x1="1759.1" y1="369.2" x2="1668.4" y2="756.2"/>
			<line class="st1" x1="1697.6" y1="433.7" x2="1719.8" y2="756.2"/>
			<line class="st1" x1="1759.1" y1="562.7" x2="1668.4" y2="609"/>
		</g>
		<g>
			<polyline class="st1" points="1022.5,1420.7 1332.8,1163.5 1544.9,1163.5 1842,1420.7 1701.4,1378.3 1587.4,1292.1 1285,1292.1 
				1184.3,1370.3 1064.9,1420.7 			"/>
			<polyline class="st1" points="1216.1,1420.7 1293,1370.3 1592.7,1370.3 1653.7,1420.7 			"/>
			<line class="st1" x1="1285" y1="1292.1" x2="1332.8" y2="1163.5"/>
			<line class="st1" x1="1587.4" y1="1292.1" x2="1544.9" y2="1163.5"/>
		</g>
		<polygon class="st1" points="1434.5,403.9 1465.2,398.2 1499.6,403.9 1522.8,417.6 1544.5,432.2 1557.7,467.1 1558,472.8 
			1560,505.4 1543,545 1506.2,572.8 1434.5,577.1 1394.4,545.9 1378.4,508 1377.4,505.8 1377.4,470.9 1394.9,433.6 		"/>
		<line class="st1" x1="1378.4" y1="508" x2="1557.7" y2="467.1"/>
		<polygon class="st1" points="1489.7,421.4 1506.2,421.4 1531.2,439.8 1528.4,456.8 1519,463.4 1499.6,461.5 1489.7,447.8 
			1483.6,431.3 		"/>
		<line class="st1" x1="1500.6" y1="462.4" x2="1506.2" y2="421.4"/>
		<line class="st1" x1="1528.4" y1="456.8" x2="1487.8" y2="424.5"/>
		<line class="st1" x1="1485.5" y1="442.4" x2="1531.2" y2="439.8"/>
		<g>
			<line class="st1" x1="1106.6" y1="679" x2="1106.6" y2="749.8"/>
			<line class="st1" x1="1067.8" y1="686.5" x2="1145.3" y2="764"/>
			<line class="st1" x1="1043.3" y1="749.8" x2="1156.6" y2="700.7"/>
		</g>
		<g>
			<line class="st1" x1="1201" y1="1023.6" x2="1201" y2="1094.4"/>
			<line class="st1" x1="1162.3" y1="1031.1" x2="1239.8" y2="1108.6"/>
			<line class="st1" x1="1137.8" y1="1094.4" x2="1251.1" y2="1045.3"/>
		</g>
		<g>
			<line class="st1" x1="1594.6" y1="938.6" x2="1594.6" y2="1009.4"/>
			<line class="st1" x1="1555.8" y1="946" x2="1633.4" y2="1023.6"/>
			<line class="st1" x1="1531.4" y1="1009.4" x2="1644.6" y2="960.3"/>
		</g>
		<g>
			<line class="st1" x1="1623.3" y1="675.7" x2="1623.3" y2="746.4"/>
			<line class="st1" x1="1584.5" y1="683.1" x2="1662" y2="760.7"/>
			<line class="st1" x1="1560" y1="746.4" x2="1673.3" y2="697.4"/>
		</g>
		<g>
			<line class="st1" x1="1409.5" y1="732.8" x2="1409.5" y2="803.5"/>
			<line class="st1" x1="1370.8" y1="740.2" x2="1448.3" y2="817.8"/>
			<line class="st1" x1="1346.3" y1="803.5" x2="1459.5" y2="754.5"/>
		</g>
		<g>
			<line class="st1" x1="1358.8" y1="592.1" x2="1358.8" y2="662.9"/>
			<line class="st1" x1="1320" y1="599.6" x2="1397.5" y2="677.2"/>
			<line class="st1" x1="1295.5" y1="662.9" x2="1408.8" y2="613.9"/>
		</g>
		<g>
			<line class="st1" x1="1365.4" y1="499.5" x2="1365.4" y2="570.3"/>
			<line class="st1" x1="1326.6" y1="507" x2="1404.2" y2="584.5"/>
			<line class="st1" x1="1302.2" y1="570.3" x2="1415.4" y2="521.2"/>
		</g>
		<g>
			<line class="st1" x1="1577.8" y1="588.4" x2="1577.8" y2="659.2"/>
			<line class="st1" x1="1539" y1="595.9" x2="1616.6" y2="673.4"/>
			<line class="st1" x1="1514.6" y1="659.2" x2="1627.8" y2="610.1"/>
		</g>
		<g>
			<line class="st1" x1="1471.8" y1="521.2" x2="1471.8" y2="592"/>
			<line class="st1" x1="1433" y1="528.7" x2="1510.6" y2="606.2"/>
			<line class="st1" x1="1408.6" y1="592" x2="1521.8" y2="542.9"/>
		</g>
		<g>
			<line class="st1" x1="1564.3" y1="697.4" x2="1564.3" y2="768.1"/>
			<line class="st1" x1="1525.5" y1="704.8" x2="1603" y2="782.4"/>
			<line class="st1" x1="1501" y1="768.1" x2="1614.3" y2="719.1"/>
		</g>
		<polygon class="st1" points="1404.2,677.2 1404.2,765.2 1416,728.9 1445,728.9 1455.3,743.6 1477.6,743.6 1489.3,730.7 
			1520.4,730.7 1530,768.1 1530,677.2 1519.7,713.3 1488.9,712.6 1477.2,700.6 1459.5,701 1446.8,711 1416,711 		"/>
		<line class="st1" x1="1465.2" y1="588.4" x2="1467.1" y2="782.4"/>
		<line class="st1" x1="1428.4" y1="599.6" x2="1497" y2="754.5"/>
		<line class="st1" x1="1377.4" y1="613.9" x2="1546.6" y2="737"/>
		<line class="st1" x1="1365.4" y1="704.8" x2="1564.3" y2="638.4"/>
		<line class="st1" x1="1485.7" y1="599.6" x2="1444.7" y2="754.5"/>
		<line class="st1" x1="1415.4" y1="751.2" x2="1504.8" y2="613.9"/>
		<line class="st1" x1="1386.6" y1="719.1" x2="1521.8" y2="630.9"/>
		<line class="st1" x1="1387.7" y1="667.3" x2="1584.5" y2="683.1"/>
		<g>
			<polygon class="st2" points="1039.2,78.9 1825.3,78.9 1825.3,212.1 1433.2,81.1 1039.2,212.1 			"/>
			<line class="st2" x1="1237.4" y1="78.9" x2="1237.4" y2="145.5"/>
			<line class="st2" x1="1304.1" y1="78.9" x2="1304.1" y2="102.8"/>
			<line class="st2" x1="1562.7" y1="78.9" x2="1562.7" y2="102.8"/>
			<line class="st2" x1="1692.5" y1="78.9" x2="1692.5" y2="102.8"/>
			<line class="st2" x1="1760.9" y1="78.9" x2="1760.9" y2="102.8"/>
			<line class="st2" x1="1170.5" y1="78.9" x2="1170.5" y2="102.8"/>
			<line class="st2" x1="1104.1" y1="78.9" x2="1104.1" y2="102.8"/>
			<line class="st2" x1="1368.4" y1="76" x2="1368.4" y2="102.2"/>
			<line class="st2" x1="1498.3" y1="78.9" x2="1498.3" y2="102.2"/>
			<line class="st2" x1="1626.5" y1="78.9" x2="1626.5" y2="146.1"/>
			<polyline class="st3" points="1404.6,112.5 1404.6,150.6 1442.2,150.6 1442.2,131.5 1404.6,131.5 			"/>
			<polyline class="st3" points="1311,183.1 1275.2,183.1 1275.2,201.5 1311,201.5 1311,219 1275.2,219 			"/>
			<line class="st3" x1="1326" y1="183.1" x2="1326" y2="219"/>
			<line class="st3" x1="1364.4" y1="183.1" x2="1364.4" y2="219"/>
			<line class="st3" x1="1398.6" y1="183.1" x2="1398.6" y2="219"/>
			<line class="st3" x1="1326" y1="201" x2="1364.4" y2="201"/>
			<line class="st3" x1="1379.4" y1="183.1" x2="1417.8" y2="183.1"/>
			<line class="st3" x1="1379.4" y1="219" x2="1417.8" y2="219"/>
			<polyline class="st3" points="1467.4,183.1 1431.1,183.1 1431.1,201 1431.1,219 1467.4,219 			"/>
			<line class="st3" x1="1460.6" y1="201" x2="1431.1" y2="201"/>
			<polyline class="st3" points="1484.1,183.1 1484.1,219 1517.8,219 			"/>
			<polygon class="st3" points="1538.7,183.1 1538.7,219 1560.5,219 1573.1,206.4 1573.1,197.2 1558.9,183 			"/>
		</g>
		<polygon class="st2" points="1188.7,545.9 1227.4,545.9 1227.4,524.2 1269.8,577.1 		"/>
		<polygon class="st2" points="1188.7,649.5 1227.4,649.4 1227.5,671.1 1269.7,618.1 		"/>
		<polygon class="st2" points="1408.8,545.9 1370.1,545.9 1370.1,524.2 1327.7,577.1 		"/>
		<polygon class="st2" points="1408.8,649.5 1370.1,649.4 1370,671.1 1327.7,618.1 		"/>
		<g>
			<polyline class="st4" points="136.7,78.5 104,78.5 104,95.8 136.7,95.8 136.7,118.4 104,118.4 			"/>
			<polyline class="st4" points="203.1,135.9 235.8,135.9 235.8,153.3 203.1,153.3 203.1,175.9 235.8,175.9 			"/>
			<polyline class="st4" points="185.2,78.5 152.5,78.5 152.5,118.4 185.2,118.4 			"/>
			<rect x="200.6" y="78.5" class="st4" width="36.6" height="39.9"/>
			<rect x="142.8" y="135.9" class="st4" width="36.6" height="39.9"/>
			<rect x="253.3" y="135.9" class="st4" width="36.6" height="39.9"/>
			<polyline class="st4" points="253.1,118.4 253.1,78.5 285.3,78.5 285.3,98.5 253.1,98.5 285.3,118.4 			"/>
			<polyline class="st4" points="335.3,78.5 302.6,78.5 302.6,116.5 335.3,116.5 			"/>
			<line class="st4" x1="329.1" y1="97.5" x2="302.6" y2="97.5"/>
			<polyline class="st4" points="302.6,136.9 335.3,136.9 335.3,174.9 302.6,174.9 			"/>
			<line class="st4" x1="308.9" y1="155.9" x2="335.3" y2="155.9"/>
			<polyline class="st4" points="302.6,194.8 335.3,194.8 335.3,232.8 302.6,232.8 			"/>
			<line class="st4" x1="308.9" y1="213.8" x2="335.3" y2="213.8"/>
			<polyline class="st4" points="257.1,194.8 289.9,194.8 289.9,232.8 257.1,232.8 			"/>
			<line class="st4" x1="263.4" y1="213.8" x2="289.9" y2="213.8"/>
			<line class="st4" x1="189.9" y1="174.9" x2="182.7" y2="191.2"/>
			<line class="st4" x1="129.3" y1="135.9" x2="129.3" y2="175.9"/>
		</g>
		<g>
			<polyline class="st4" points="2437.4,90 2473,90 2473,108.8 2437.4,108.8 2437.4,133.3 2473,133.3 			"/>
			<polyline class="st4" points="2545.8,91.2 2545.8,133.7 2563.4,116.1 2581.6,134.2 2581.6,91.2 			"/>
			<polyline class="st4" points="2599.7,134.2 2599.7,106.1 2615.5,90.3 2633.5,108.3 2633.5,134.2 			"/>
			<line class="st4" x1="2601.2" y1="112.7" x2="2633.5" y2="112.7"/>
			<polyline class="st4" points="2651.2,90.3 2670.3,134.2 2691.6,90.3 			"/>
			<polyline class="st4" points="2744.9,91.2 2707.4,91.2 2707.4,134.2 2744.9,134.2 			"/>
			<line class="st4" x1="2734.1" y1="109.7" x2="2707.4" y2="109.7"/>
		</g>
		<g>
			<polyline class="st1" points="2864.8,568.3 2813.3,544.7 2658.9,544.7 2736.1,574.8 2761.9,625.1 2761.9,724.9 2736.1,763.5 
				2658.9,800 2817.6,800 2864.8,779.3 			"/>
			<polyline class="st1" points="2649.6,800 2649.6,781.4 2706.1,763.5 2734,723.5 2734,620.5 2707.5,579.8 2649.6,561.9 
				2649.6,544.7 			"/>
			<line class="st1" x1="2864.8" y1="573.3" x2="2736.1" y2="574.8"/>
			<line class="st1" x1="2864.8" y1="765.7" x2="2736.1" y2="763.5"/>
			<polygon class="st1" points="2864.8,711.3 2816.9,711.3 2794,693.5 2794,650.6 2816.2,635.6 2864.8,635.6 2847.7,650.6 
				2847,693.5 			"/>
			<line class="st1" x1="2864.8" y1="650.6" x2="2794" y2="650.6"/>
			<line class="st1" x1="2864.8" y1="693.5" x2="2794" y2="693.5"/>
			<polyline class="st1" points="2736.1,650.6 2596.7,650.6 2571.7,669.2 2596,693.5 2734,693.5 			"/>
			<line class="st1" x1="2734" y1="672" x2="2571.7" y2="669.2"/>
		</g>
		<g>
			<polyline class="st1" points="2864.8,1188.4 2813.3,1164.8 2658.9,1164.8 2736.1,1194.8 2761.9,1245.1 2761.9,1345 
				2736.1,1383.6 2658.9,1420.1 2817.6,1420.1 2864.8,1399.3 			"/>
			<polyline class="st1" points="2649.6,1420.1 2649.6,1401.5 2706.1,1383.6 2734,1343.6 2734,1240.6 2707.5,1199.8 2649.6,1182 
				2649.6,1164.8 			"/>
			<line class="st1" x1="2864.8" y1="1193.4" x2="2736.1" y2="1194.8"/>
			<line class="st1" x1="2864.8" y1="1385.7" x2="2736.1" y2="1383.6"/>
			<polygon class="st1" points="2864.8,1331.4 2816.9,1331.4 2794,1313.5 2794,1270.6 2816.2,1255.6 2864.8,1255.6 2847.7,1270.6 
				2847,1313.5 			"/>
			<line class="st1" x1="2864.8" y1="1270.6" x2="2794" y2="1270.6"/>
			<line class="st1" x1="2864.8" y1="1313.5" x2="2794" y2="1313.5"/>
			<polyline class="st1" points="2736.1,1270.6 2625.7,1224.7 2577.9,1223.7 2598.8,1255.6 2734,1313.5 			"/>
			<line class="st1" x1="2734" y1="1292.1" x2="2577.9" y2="1223.7"/>
		</g>
		<g>
			<g>
				<path class="st5" d="M934.3,410c7.7,0,7.7-11.9,0-11.9S926.6,410,934.3,410L934.3,410z"/>
			</g>
		</g>
		<g>
			<g>
				<path class="st5" d="M1148.5,314.8c7.7,0,7.7-11.9,0-11.9C1140.9,302.9,1140.9,314.8,1148.5,314.8L1148.5,314.8z"/>
			</g>
		</g>
		<g>
			<g>
				<path class="st5" d="M1248.5,414.8c7.7,0,7.7-11.9,0-11.9C1240.9,402.9,1240.9,414.8,1248.5,414.8L1248.5,414.8z"/>
			</g>
		</g>
		<g>
			<g>
				<path class="st5" d="M1034.3,886.2c7.7,0,7.7-11.9,0-11.9C1026.6,874.3,1026.6,886.2,1034.3,886.2L1034.3,886.2z"/>
			</g>
		</g>
		<g>
			<g>
				<path class="st5" d="M1272.3,857.6c7.7,0,7.7-11.9,0-11.9C1264.7,845.7,1264.7,857.6,1272.3,857.6L1272.3,857.6z"/>
			</g>
		</g>
		<g>
			<g>
				<path class="st5" d="M1472.3,1033.8c7.7,0,7.7-11.9,0-11.9C1464.7,1021.9,1464.7,1033.8,1472.3,1033.8L1472.3,1033.8z"/>
			</g>
		</g>
		<g>
			<g>
				<path class="st5" d="M1910.4,895.7c7.7,0,7.7-11.9,0-11.9C1902.8,883.8,1902.7,895.7,1910.4,895.7L1910.4,895.7z"/>
			</g>
		</g>
		<g>
			<g>
				<path class="st5" d="M2324.7,1143.3c7.7,0,7.7-11.9,0-11.9S2317,1143.3,2324.7,1143.3L2324.7,1143.3z"/>
			</g>
		</g>
		<g>
			<g>
				<path class="st5" d="M2672.3,1010c7.7,0,7.7-11.9,0-11.9S2664.6,1010,2672.3,1010L2672.3,1010z"/>
			</g>
		</g>
		<g>
			<g>
				<path class="st5" d="M2429.4,805.2c7.7,0,7.7-11.9,0-11.9C2421.8,793.3,2421.8,805.2,2429.4,805.2L2429.4,805.2z"/>
			</g>
		</g>
		<g>
			<g>
				<path class="st5" d="M2462.8,510c7.7,0,7.7-11.9,0-11.9S2455.1,510,2462.8,510L2462.8,510z"/>
			</g>
		</g>
		<g>
			<g>
				<path class="st5" d="M2758,291c7.7,0,7.7-11.9,0-11.9C2750.3,279,2750.3,291,2758,291L2758,291z"/>
			</g>
		</g>
		<g>
			<g>
				<path class="st5" d="M2067.6,119.5c7.7,0,7.7-11.9,0-11.9C2059.9,107.6,2059.9,119.5,2067.6,119.5L2067.6,119.5z"/>
			</g>
		</g>
		<g>
			<g>
				<path class="st5" d="M1958,376.7c7.7,0,7.7-11.9,0-11.9C1950.4,364.8,1950.4,376.7,1958,376.7L1958,376.7z"/>
			</g>
		</g>
		<g>
			<g>
				<path class="st5" d="M1943.7,1276.6c7.7,0,7.7-11.9,0-11.9C1936.1,1264.7,1936.1,1276.6,1943.7,1276.6L1943.7,1276.6z"/>
			</g>
		</g>
		<g>
			<g>
				<path class="st5" d="M815.2,1233.8c7.7,0,7.7-11.9,0-11.9C807.6,1221.9,807.5,1233.8,815.2,1233.8L815.2,1233.8z"/>
			</g>
		</g>
		<g>
			<g>
				<path class="st5" d="M529.5,933.8c7.7,0,7.7-11.9,0-11.9C521.9,921.9,521.8,933.8,529.5,933.8L529.5,933.8z"/>
			</g>
		</g>
		<g>
			<g>
				<path class="st5" d="M367.6,414.8c7.7,0,7.7-11.9,0-11.9C360,402.9,359.9,414.8,367.6,414.8L367.6,414.8z"/>
			</g>
		</g>
		<g>
			<g>
				<path class="st5" d="M658.1,138.6c7.7,0,7.7-11.9,0-11.9C650.4,126.7,650.4,138.6,658.1,138.6L658.1,138.6z"/>
			</g>
		</g>
		<g>
			<g>
				<path class="st5" d="M772.4,291c7.7,0,7.7-11.9,0-11.9C764.7,279,764.7,291,772.4,291L772.4,291z"/>
			</g>
		</g>
		<g>
			<g>
				<path class="st5" d="M139.1,1005.2c7.7,0,7.7-11.9,0-11.9C131.4,993.3,131.4,1005.2,139.1,1005.2L139.1,1005.2z"/>
			</g>
		</g>
		<g>
			<g>
				<path class="st5" d="M529.5,1352.8c7.7,0,7.7-11.9,0-11.9C521.9,1340.9,521.8,1352.8,529.5,1352.8L529.5,1352.8z"/>
			</g>
		</g>
		<g>
			<g>
				<path class="st5" d="M772.4,871.9c7.7,0,7.7-11.9,0-11.9S764.7,871.9,772.4,871.9L772.4,871.9z"/>
			</g>
		</g>
		<g>
			<g>
				<path class="st5" d="M53.3,291c7.7,0,7.7-11.9,0-11.9C45.7,279,45.7,291,53.3,291L53.3,291z"/>
			</g>
		</g>
		<g>
			<g>
				<path class="st5" d="M2043.7,1086.2c7.7,0,7.7-11.9,0-11.9C2036.1,1074.3,2036.1,1086.2,2043.7,1086.2L2043.7,1086.2z"/>
			</g>
		</g>
		<g>
			<g>
				<path class="st5" d="M2477.1,1376.6c7.7,0,7.7-11.9,0-11.9C2469.4,1364.7,2469.4,1376.6,2477.1,1376.6L2477.1,1376.6z"/>
			</g>
		</g>
		<g>
			<g>
				<path class="st5" d="M1639,319.5c7.7,0,7.7-11.9,0-11.9S1631.3,319.5,1639,319.5L1639,319.5z"/>
			</g>
		</g>
		<g>
			<g>
				<path class="st5" d="M896.2,52.9c7.7,0,7.7-11.9,0-11.9S888.5,52.9,896.2,52.9L896.2,52.9z"/>
			</g>
		</g>
		<g>
			<g>
				<path class="st5" d="M386.7,1162.3c7.7,0,7.7-11.9,0-11.9S379,1162.3,386.7,1162.3L386.7,1162.3z"/>
			</g>
		</g>
		<g>
			<g>
				<path class="st5" d="M2391.3,257.6c7.7,0,7.7-11.9,0-11.9C2383.7,245.7,2383.7,257.6,2391.3,257.6L2391.3,257.6z"/>
			</g>
		</g>
		<g>
			<g>
				<path class="st5" d="M424.8,748.1c7.7,0,7.7-11.9,0-11.9C417.1,736.2,417.1,748.1,424.8,748.1L424.8,748.1z"/>
			</g>
		</g>
		<g>
			<g>
				<path class="st5" d="M1591.4,552.8c7.7,0,7.7-11.9,0-11.9C1583.7,540.9,1583.7,552.8,1591.4,552.8L1591.4,552.8z"/>
			</g>
		</g>
		<g>
			<g>
				<path class="st5" d="M791.4,329c7.7,0,7.7-11.9,0-11.9C783.8,317.1,783.7,329,791.4,329L791.4,329z"/>
			</g>
		</g>
		<g>
			<g>
				<path class="st5" d="M834.3,276.7c7.7,0,7.7-11.9,0-11.9C826.6,264.8,826.6,276.7,834.3,276.7L834.3,276.7z"/>
			</g>
		</g>
		<g>
			<g>
				<path class="st5" d="M1077.1,914.7c7.7,0,7.7-11.9,0-11.9C1069.5,902.8,1069.4,914.7,1077.1,914.7L1077.1,914.7z"/>
			</g>
		</g>
		<g>
			<g>
				<path class="st5" d="M1862.8,871.9c7.7,0,7.7-11.9,0-11.9C1855.1,860,1855.1,871.9,1862.8,871.9L1862.8,871.9z"/>
			</g>
		</g>
		<g>
			<g>
				<path class="st5" d="M1939,833.8c7.7,0,7.7-11.9,0-11.9C1931.3,821.9,1931.3,833.8,1939,833.8L1939,833.8z"/>
			</g>
		</g>
		<g>
			<g>
				<path class="st5" d="M1986.6,329c7.7,0,7.7-11.9,0-11.9S1978.9,329,1986.6,329L1986.6,329z"/>
			</g>
		</g>
		<g>
			<g>
				<path class="st5" d="M2462.8,271.9c7.7,0,7.7-11.9,0-11.9S2455.1,271.9,2462.8,271.9L2462.8,271.9z"/>
			</g>
		</g>
		<g>
			<g>
				<path class="st5" d="M543.8,981.4c7.7,0,7.7-11.9,0-11.9S536.1,981.4,543.8,981.4L543.8,981.4z"/>
			</g>
		</g>
		<g>
			<g>
				<path class="st5" d="M510.5,1300.4c7.7,0,7.7-11.9,0-11.9S502.8,1300.4,510.5,1300.4L510.5,1300.4z"/>
			</g>
		</g>
		<g>
			<g>
				<path class="st5" d="M558.1,1314.7c7.7,0,7.7-11.9,0-11.9C550.4,1302.8,550.4,1314.7,558.1,1314.7L558.1,1314.7z"/>
			</g>
		</g>
		<g>
			<g>
				<path class="st5" d="M96.2,319.5c7.7,0,7.7-11.9,0-11.9S88.5,319.5,96.2,319.5L96.2,319.5z"/>
			</g>
		</g>
		<g>
			<g>
				<path class="st5" d="M2619.9,1033.8c7.7,0,7.7-11.9,0-11.9S2612.2,1033.8,2619.9,1033.8L2619.9,1033.8z"/>
			</g>
		</g>
		<g>
			<g>
				<path class="st5" d="M2634.2,990.9c7.7,0,7.7-11.9,0-11.9S2626.5,990.9,2634.2,990.9L2634.2,990.9z"/>
			</g>
		</g>
		<g>
			<g>
				<path class="st5" d="M2291.4,1176.6c7.7,0,7.7-11.9,0-11.9S2283.7,1176.6,2291.4,1176.6L2291.4,1176.6z"/>
			</g>
		</g>
	</g>
</g>
</svg>
