<?xml version="1.0" encoding="utf-8"?>
<!-- Generator: Adobe Illustrator 19.2.0, SVG Export Plug-In . SVG Version: 6.00 Build 0)  -->
<svg version="1.1" id="Layer_1" xmlns="http://www.w3.org/2000/svg" xmlns:xlink="http://www.w3.org/1999/xlink" x="0px" y="0px"
	 viewBox="0 0 454 195.4" style="enable-background:new 0 0 454 195.4;" xml:space="preserve">
<style type="text/css">
	.st0{fill:#996699;}
	.st1{fill:#FFFFFF;stroke:#231F20;stroke-miterlimit:10;}
	.st2{fill:#4F1A51;}
	.st3{fill:#FFFF00;}
	.st4{fill:#FFFFFF;}
	.st5{fill:#CC99CC;}
</style>
<path class="st0" d="M29.5,39l0.1,4.1c0.3,17.7,4.5,31.2,12.3,40.4v14.8C30.1,88.3,19,69.6,19,34.4c0-3.1,2.6-5.7,5.7-5.7h17.2V39
	h-8.4H29.5z"/>
<rect x="45.9" y="49.8" class="st1" width="87.7" height="0.2"/>
<path class="st0" d="M154.4,28.8c3.1,0,5.7,2.5,5.7,5.7c0,34.8-11,53.5-22.6,63.6v-15c7.7-9.1,11.7-22.6,12-40l0.1-4.1h-4.1h-8.1
	V28.8H154.4z"/>
<path class="st2" d="M41.9,103.3C30.5,94.8,15,75.9,15,34.4c0-5.3,4.3-9.7,9.7-9.7h17.2v4H24.6c-3.1,0-5.7,2.5-5.7,5.7
	c0,35.1,11.2,53.8,22.9,63.8L41.9,103.3L41.9,103.3z"/>
<path class="st2" d="M29.5,43.1V39h4.1H42v4h-8.4c0.3,15.9,3.8,26.6,8.4,33.8v6.7C34,74.3,29.9,60.8,29.5,43.1z"/>
<path class="st2" d="M149.6,39l-0.1,4.1c-0.4,17.5-4.4,30.9-12,40v-6.8c4.4-7.1,7.8-17.7,8.1-33.3h-8.1v-4h8.1
	C145.6,39,149.6,39,149.6,39z"/>
<path class="st2" d="M154.4,24.8c5.3,0,9.7,4.3,9.7,9.7c0,41.1-15.3,60-26.6,68.7V98c11.6-10,22.6-28.7,22.6-63.6
	c0-3.1-2.5-5.7-5.7-5.7h-16.9v-4L154.4,24.8L154.4,24.8z"/>
<polygon class="st1" points="130.8,53.8 133.5,53.8 133.5,53.9 133.4,54 130.6,54 "/>
<path class="st3" d="M133.5,24.8v-7H45.9v7V43v8.4h87.7V43l0,0V24.8H133.5z M63.6,42.1c0,0.2-0.2,0.5-0.5,0.5h-3
	c-0.2,0-0.5-0.2-0.5-0.5V25.7c0-0.2,0.2-0.5,0.5-0.5h3c0.2,0,0.5,0.2,0.5,0.5V42.1z M93.6,41.2c0,0-2.5,1.6-6.1,1.6
	c-4.9,0-8.9-3.9-8.9-8.8s4-8.9,8.9-8.9c2.1,0,4.3,0.9,6,2.3c0.2,0.2,0.2,0.5,0,0.7l-1.9,2.1c-0.1,0.1-0.2,0.1-0.4,0.1
	c-0.1,0-0.2,0-0.3-0.1c-0.9-0.9-2-1.2-3.2-1.2c-2.7,0-4.9,2.3-4.9,5s2.2,4.9,4.9,4.9c0.7,0,1.5-0.1,2.2-0.4V37h-1.5
	c-0.3,0-0.5-0.2-0.5-0.4v-2.5c0-0.3,0.2-0.5,0.5-0.5h2.9h2.1c0.2,0,0.4,0.2,0.4,0.5v6.7C93.8,40.9,93.7,41.1,93.6,41.2z M119.7,42.1
	c0,0.2-0.2,0.5-0.5,0.5H110c-0.3,0-0.5-0.2-0.5-0.5V25.7c0-0.2,0.2-0.5,0.5-0.5h2.9c0.2,0,0.5,0.2,0.5,0.5v13.2h5.9
	c0.3,0,0.5,0.2,0.5,0.5v2.7H119.7z"/>
<path class="st3" d="M118.7,91.1c3.6,3.6,4,9.3,1.2,13.4c-2.8-2.2-6.2-3.3-9.8-3.3c-4.3,0-8.4,1.7-11.4,4.7l-9.2,9.2
	c-3.1,3-4.7,7.1-4.7,11.4c0,4.3,1.7,8.4,4.7,11.4c3,3.1,7.1,4.7,11.4,4.7s8.4-1.7,11.4-4.7l9.2-9.2c3.1-3,4.7-7.1,4.7-11.4
	c0-3.7-1.2-7.2-3.5-10c4.4-5.6,3.9-13.8-1.2-19l-9.8-9.8l21.8-21.8v24.9v24.3v6.1c0,25.7-23.7,37.9-43.8,43.6
	c-16.2-4.8-28-11.4-35.2-19.9l54.4-54.4L118.7,91.1z"/>
<path class="st2" d="M60.1,42.5c-0.2,0-0.5-0.2-0.5-0.5V25.7c0-0.2,0.2-0.5,0.5-0.5h3c0.2,0,0.5,0.2,0.5,0.5v16.4
	c0,0.2-0.2,0.5-0.5,0.5L60.1,42.5L60.1,42.5z"/>
<path class="st2" d="M113.4,25.7v13.2h5.9c0.3,0,0.5,0.2,0.5,0.5v2.7c0,0.2-0.2,0.5-0.5,0.5H110c-0.3,0-0.5-0.2-0.5-0.5V25.7
	c0-0.2,0.2-0.5,0.5-0.5h2.9C113.2,25.2,113.4,25.5,113.4,25.7z"/>
<path class="st2" d="M93.8,34.1v6.7c0,0.1-0.1,0.3-0.2,0.4c0,0-2.5,1.6-6.1,1.6c-4.9,0-8.9-3.9-8.9-8.8s4-8.9,8.9-8.9
	c2.1,0,4.3,0.9,6,2.3c0.2,0.2,0.2,0.5,0,0.7l-1.9,2.1c-0.1,0.1-0.2,0.1-0.4,0.1c-0.1,0-0.2,0-0.3-0.1c-0.9-0.9-2-1.2-3.2-1.2
	c-2.7,0-4.9,2.3-4.9,5s2.2,4.9,4.9,4.9c0.7,0,1.5-0.1,2.2-0.4V37h-1.5c-0.3,0-0.5-0.2-0.5-0.4v-2.5c0-0.3,0.2-0.5,0.5-0.5h2.9h2.1
	C93.6,33.6,93.8,33.9,93.8,34.1z"/>
<polygon class="st1" points="130.6,54 45.9,54 45.9,53.8 130.8,53.8 "/>
<path class="st4" d="M76.7,72.9v-9.2H73h-7.7v9.2H56v7.7v3.8h9.2v9.2h11.5v-9.2H86V72.9H76.7z"/>
<path class="st5" d="M45.9,54v28v24.1v5.9c0,7.7,2.1,14.5,6.2,20.5l31.8-31.8l9.2-9.2L130.6,54H45.9z M80.7,88.4v9.2H61.3v-9.2H52
	V68.9h9.2v-9.2h19.5v9.2H90v19.5H80.7z"/>
<polygon class="st1" points="135.6,54.7 135.5,54.7 135.5,54.6 "/>
<path class="st0" d="M133.5,181.5v2.2H45.9v-2.2c0-5.6,4.6-10.1,10.1-10.1h11.2h45h0.1h11.2C129,171.3,133.5,175.9,133.5,181.5z"/>
<polygon class="st1" points="132.9,52 132.6,52 132.8,51.8 "/>
<polygon class="st2" points="124.6,111.9 121.9,114.5 113.5,123 117.6,127 119,128.4 117.6,129.9 116.2,131.3 114.8,129.9 
	97.5,112.6 96.1,111.2 97.5,109.8 98.9,108.4 100.4,109.8 104.3,113.8 112.7,105.4 115.4,102.7 116.8,104.1 118.2,105.5 
	116.7,107.1 107.1,116.6 110.7,120.2 120.2,110.6 121.8,109.1 123.2,110.5 "/>
<path class="st2" d="M122.7,107.3c4.4-5.6,3.9-13.8-1.2-19l-9.8-9.8l-2.8,2.8l9.8,9.8c3.6,3.6,4,9.3,1.2,13.4
	c-2.8-2.2-6.2-3.3-9.8-3.3c-4.3,0-8.4,1.7-11.4,4.7l-9.2,9.2c-3.1,3-4.7,7.1-4.7,11.4s1.7,8.4,4.7,11.4c3,3.1,7.1,4.7,11.4,4.7
	s8.4-1.7,11.4-4.7l9.2-9.2c3.1-3,4.7-7.1,4.7-11.4C126.2,113.6,125,110.1,122.7,107.3z M118.7,125.9l-1.1,1.1l1.4,1.4l-1.4,1.4
	l-1.4,1.4l-1.4-1.4l-5.3,5.3c-2.3,2.3-5.3,3.6-8.6,3.6c-3.2,0-6.3-1.3-8.6-3.6c-2.3-2.3-3.6-5.4-3.6-8.6c0-3.3,1.3-6.3,3.6-8.6
	l5.3-5.3l-1.4-1.4l1.4-1.4l1.4-1.4l1.4,1.4l1.1-1.1c2.3-2.3,5.4-3.6,8.6-3.6c0.9,0,1.8,0.1,2.6,0.3l2.7-2.7l1.4,1.4l1.4,1.4l0,0
	l-1.5,1.5c0.7,0.5,1.4,1,2,1.6s1.1,1.2,1.5,1.9l1.5-1.5l-0.3-0.4l-2.8-2.8l2.8,2.8l0.3,0.4l1.4,1.4l1.4,1.4l-2.6,2.6
	c0.2,0.9,0.3,1.8,0.3,2.8C122.3,120.6,121,123.6,118.7,125.9z"/>
<path class="st4" d="M121.9,114.5c0.2,0.9,0.3,1.8,0.3,2.8c0,3.3-1.3,6.3-3.6,8.6l-1.1,1.1l-4.1-4.1L121.9,114.5z"/>
<path class="st4" d="M120.2,110.6l-9.5,9.6l-3.6-3.6l9.5-9.5c0.7,0.5,1.4,1,2,1.6C119.3,109.3,119.8,109.9,120.2,110.6z"/>
<path class="st4" d="M114.8,129.9l-5.3,5.3c-2.3,2.3-5.3,3.6-8.6,3.6c-3.2,0-6.3-1.3-8.6-3.6c-2.3-2.3-3.6-5.4-3.6-8.6
	c0-3.3,1.3-6.3,3.6-8.6l5.3-5.3L114.8,129.9z"/>
<path class="st4" d="M112.7,105.4l-8.4,8.4l-4-4l1.1-1.1c2.3-2.3,5.4-3.6,8.6-3.6C111,105.1,111.9,105.2,112.7,105.4z"/>
<path class="st0" d="M101.8,167.3H77.6c2.8-2.5,4.6-5.9,5.1-9.7c2,0.7,4.1,1.4,6.3,2l0.3,0.1h0.9l0.3-0.1c2.2-0.6,4.3-1.3,6.4-2
	C97.2,161.5,99.1,164.9,101.8,167.3z"/>
<path class="st2" d="M123.4,167.3h-11.2c-6.2,0-11.3-4.9-11.6-11.1c-1.3,0.5-2.6,1-3.9,1.4c0.5,3.8,2.3,7.3,5.1,9.7H77.6
	c2.8-2.5,4.6-5.9,5.1-9.7c-1.3-0.5-2.6-0.9-3.9-1.4c-0.2,6.2-5.3,11.2-11.6,11.2H56c-7.8,0-14.1,6.3-14.1,14.1v6.2h95.6v-6.2
	C137.5,173.7,131.2,167.3,123.4,167.3z M133.5,183.7H45.9v-2.2c0-5.6,4.6-10.1,10.1-10.1h11.2h45h0.1h11.2c5.6,0,10.1,4.5,10.1,10.1
	L133.5,183.7L133.5,183.7z"/>
<path class="st2" d="M61.3,59.7h19.5v9.2H90v19.5h-9.2v9.2H61.3v-9.2H52V68.9h9.2L61.3,59.7L61.3,59.7z M76.7,72.9v-9.2H73h-7.7v9.2
	H56v7.7v3.8h9.2v9.2h11.5v-9.2H86V72.9H76.7z"/>
<polygon class="st2" points="73,72.9 73,73.3 69,73.3 69,66.7 73,66.7 "/>
<polygon class="st2" points="65.8,76.7 65.8,80.6 65.2,80.6 59.2,80.6 59.2,76.7 "/>
<rect x="76.2" y="76.7" class="st2" width="6.6" height="4"/>
<rect x="69" y="83.7" class="st2" width="4" height="6.6"/>
<path class="st2" d="M134.9,54h-1.4l1.4-1.5h-2.8l-39,39l-9.2,9.2l-31.8,31.8c0.4,0.6,0.8,1.1,1.2,1.6s0.8,1.1,1.3,1.6L109,81.3l0,0
	l2.8-2.8l0,0l21.8-21.8l2-2v-0.1L134.9,54z"/>
<path class="st2" d="M54.5,135.7c-0.4-0.5-0.9-1-1.3-1.6c-0.4-0.5-0.8-1.1-1.2-1.6c-4.1-6-6.2-12.9-6.2-20.5v-5.9
	c-0.6-0.4-1.3-0.8-2-1.3c-0.6-0.4-1.3-0.9-2-1.4v8.7c0,8.8,2.4,16.6,7.2,23.4c6.1,8.6,16,15.5,29.6,20.8c1.3,0.5,2.6,1,3.9,1.4
	c2,0.7,4.1,1.4,6.3,2l0.3,0.1H90l0.3-0.1c2.2-0.6,4.3-1.3,6.4-2c1.3-0.5,2.6-0.9,3.9-1.4c24.2-9.3,36.9-24.4,36.9-44.2v-8.9V98V83.1
	v-6.8V54h-2h-0.6l0.6,0.6l0,0l0.1,0.1l-0.1,0.1l-2,2v24.9V106l0,0v6.1c0,25.7-23.7,37.9-43.8,43.6C73.5,150.9,61.7,144.2,54.5,135.7
	L54.5,135.7z"/>
<path class="st2" d="M41.9,13.8v11v4V39v4v6.8l0,0V54v22.8v6.7v14.8v5.1c0.7,0.5,1.3,1,2,1.4c0.7,0.5,1.3,0.9,2,1.3V81.9V54l0,0
	v-0.2h84.9h2.7v0.1V54h1.4h0.6h2v-4.2V43v-4V28.8v-4v-11C137.5,13.8,41.9,13.8,41.9,13.8z M133.5,24.8V43v6.8V50H45.9v-0.2V43V24.8
	v-7h87.7v7H133.5z"/>
<g>
	<path class="st4" d="M197,121.9c0-0.3,0.3-0.6,0.7-0.6h0.9l13.7,13.2h0v-12.2c0-0.3,0.3-0.7,0.7-0.7h4.1c0.3,0,0.7,0.3,0.7,0.7
		v23.1c0,0.3-0.3,0.6-0.7,0.6h-0.5c-0.1,0-0.4-0.1-0.4-0.2l-13.6-13.6h0V145c0,0.3-0.3,0.7-0.7,0.7h-4.1c-0.3,0-0.7-0.3-0.7-0.7
		L197,121.9z"/>
	<path class="st4" d="M237.2,121.3c6.9,0,12.4,5.5,12.4,12.4c0,6.9-5.5,12.3-12.4,12.3c-6.9,0-12.3-5.5-12.3-12.3
		C224.9,126.8,230.3,121.3,237.2,121.3z M237.2,140.5c3.8,0,6.9-3.1,6.9-6.8c0-3.8-3.1-6.9-6.9-6.9c-3.7,0-6.8,3.1-6.8,6.9
		C230.4,137.4,233.5,140.5,237.2,140.5z"/>
	<path class="st4" d="M256.7,122.3c0-0.3,0.3-0.7,0.7-0.7h4.1c0.3,0,0.7,0.3,0.7,0.7v18.3h8.2c0.4,0,0.7,0.3,0.7,0.7v3.7
		c0,0.3-0.3,0.7-0.7,0.7h-12.9c-0.4,0-0.7-0.3-0.7-0.7V122.3z"/>
	<path class="st4" d="M275.3,144.8l10.8-23.1c0.1-0.2,0.3-0.4,0.6-0.4h0.3c0.2,0,0.5,0.2,0.6,0.4l10.8,23.1c0.2,0.4-0.1,0.9-0.6,0.9
		h-3.8c-0.6,0-0.9-0.2-1.2-0.9l-1.2-2.7h-9.3l-1.2,2.8c-0.2,0.4-0.5,0.8-1.2,0.8h-3.8C275.4,145.7,275.1,145.2,275.3,144.8z
		 M289.4,137.4l-2.6-5.7h0l-2.6,5.7H289.4z"/>
	<path class="st4" d="M207.7,162.6c2.9,0,6,1.2,8.4,3.2c0.3,0.2,0.3,0.7,0.1,0.9l-2.7,2.9c-0.3,0.2-0.7,0.2-0.9,0
		c-1.3-1.2-2.8-1.6-4.5-1.6c-3.7,0-6.8,3.2-6.8,6.9c0,3.7,3.1,6.8,6.8,6.8c1,0,2-0.1,3.1-0.5v-2h-2.2c-0.4,0-0.7-0.3-0.7-0.6v-3.4
		c0-0.4,0.3-0.7,0.7-0.7h6.9c0.3,0,0.6,0.3,0.6,0.7l0,9.2c0,0.2-0.1,0.4-0.3,0.6c0,0-3.5,2.2-8.5,2.2c-6.8,0-12.3-5.4-12.3-12.3
		C195.4,168,200.9,162.6,207.7,162.6z"/>
	<path class="st4" d="M221.1,186l10.8-23.1c0.1-0.2,0.3-0.4,0.6-0.4h0.3c0.2,0,0.5,0.2,0.6,0.4l10.8,23.1c0.2,0.4-0.1,0.9-0.6,0.9
		h-3.8c-0.6,0-0.9-0.2-1.2-0.9l-1.2-2.7h-9.3l-1.2,2.8c-0.2,0.4-0.5,0.8-1.2,0.8h-3.8C221.2,186.9,220.9,186.5,221.1,186z
		 M235.2,178.7l-2.6-5.7h0l-2.6,5.7H235.2z"/>
	<path class="st4" d="M252.3,163.1c0-0.3,0.3-0.5,0.6-0.5h0.5c0.2,0,0.5,0.1,0.6,0.3l8,14.8h0.1l8-14.8c0.1-0.2,0.4-0.3,0.6-0.3h0.5
		c0.3,0,0.6,0.2,0.6,0.5l3.9,23.1c0.1,0.4-0.2,0.8-0.7,0.8H271c-0.3,0-0.6-0.3-0.7-0.5l-1.5-10.6h-0.1l-5.8,11.1
		c-0.1,0.2-0.4,0.4-0.6,0.4h-0.6c-0.2,0-0.5-0.2-0.6-0.4l-5.8-11.1h-0.1l-1.5,10.6c0,0.3-0.3,0.5-0.7,0.5h-4.1
		c-0.4,0-0.7-0.3-0.7-0.8L252.3,163.1z"/>
	<path class="st4" d="M283.1,163.5c0-0.3,0.3-0.7,0.7-0.7h4.1c0.3,0,0.7,0.3,0.7,0.7v22.7c0,0.3-0.3,0.7-0.7,0.7h-4.1
		c-0.3,0-0.7-0.3-0.7-0.7V163.5z"/>
	<path class="st4" d="M297.4,163.1c0-0.3,0.3-0.6,0.7-0.6h0.9l13.7,13.2h0v-12.2c0-0.3,0.3-0.7,0.7-0.7h4.1c0.3,0,0.7,0.3,0.7,0.7
		v23.1c0,0.3-0.3,0.6-0.7,0.6h-0.5c-0.1,0-0.4-0.1-0.4-0.2l-13.6-13.6h0v12.8c0,0.3-0.3,0.7-0.7,0.7h-4.1c-0.3,0-0.7-0.3-0.7-0.7
		L297.4,163.1z"/>
	<path class="st4" d="M337.6,162.6c2.9,0,6,1.2,8.4,3.2c0.3,0.2,0.3,0.7,0.1,0.9l-2.7,2.9c-0.3,0.2-0.7,0.2-0.9,0
		c-1.3-1.2-2.8-1.6-4.5-1.6c-3.7,0-6.8,3.2-6.8,6.9c0,3.7,3.1,6.8,6.8,6.8c1,0,2-0.1,3.1-0.5v-2h-2.2c-0.4,0-0.7-0.3-0.7-0.6v-3.4
		c0-0.4,0.3-0.7,0.7-0.7h6.9c0.3,0,0.6,0.3,0.6,0.7l0,9.2c0,0.2-0.1,0.4-0.3,0.6c0,0-3.5,2.2-8.5,2.2c-6.8,0-12.3-5.4-12.3-12.3
		C325.2,168,330.7,162.6,337.6,162.6z"/>
	<path class="st4" d="M364.6,163.5c0-0.3,0.3-0.7,0.7-0.7h14.2c0.4,0,0.7,0.3,0.7,0.7v3.7c0,0.3-0.3,0.7-0.7,0.7H370v4.9h7.8
		c0.3,0,0.7,0.3,0.7,0.7v3.7c0,0.3-0.3,0.7-0.7,0.7H370v8.3c0,0.3-0.3,0.7-0.7,0.7h-4.1c-0.4,0-0.7-0.3-0.7-0.7V163.5z"/>
	<path class="st4" d="M387,163.5c0-0.3,0.3-0.7,0.7-0.7h14.2c0.4,0,0.7,0.3,0.7,0.7v3.7c0,0.3-0.3,0.7-0.7,0.7h-9.5v4.3h7.8
		c0.3,0,0.7,0.3,0.7,0.7v3.7c0,0.4-0.3,0.7-0.7,0.7h-7.8v4.6h9.5c0.4,0,0.7,0.3,0.7,0.7v3.7c0,0.3-0.3,0.7-0.7,0.7h-14.2
		c-0.4,0-0.7-0.3-0.7-0.7V163.5z"/>
	<path class="st4" d="M408.7,183.7l1.6-2.9c0.3-0.4,0.9-0.4,1.2-0.2c0.1,0.1,2.6,1.9,4.9,1.9c1.4,0,2.4-0.9,2.4-2.1
		c0-1.4-1.2-2.5-3.5-3.5c-3-1.2-6.7-3.5-6.7-7.6c0-3.4,2.6-6.8,7.9-6.8c3.6,0,6.3,1.8,7.4,2.6c0.4,0.2,0.3,0.9,0.2,1.1l-1.8,2.6
		c-0.2,0.4-0.9,0.7-1.2,0.4c-0.3-0.2-2.8-2.1-4.9-2.1c-1.2,0-2.2,0.8-2.2,1.8c0,1.3,1,2.2,3.7,3.3c2.7,1.1,6.9,3.2,6.9,7.8
		c0,3.5-3.1,7.1-8.1,7.1c-4.5,0-6.9-1.9-7.7-2.6C408.5,184.3,408.4,184.1,408.7,183.7z"/>
	<path class="st4" d="M435,167.9h-4.9c-0.4,0-0.7-0.3-0.7-0.7v-3.7c0-0.3,0.3-0.7,0.7-0.7h15.3c0.4,0,0.7,0.3,0.7,0.7v3.7
		c0,0.3-0.3,0.7-0.7,0.7h-4.9v18.3c0,0.3-0.3,0.7-0.7,0.7h-4.1c-0.3,0-0.7-0.3-0.7-0.7V167.9z"/>
</g>
</svg>
