<?xml version="1.0" encoding="utf-8"?>
<!-- Generator: Adobe Illustrator 19.2.0, SVG Export Plug-In . SVG Version: 6.00 Build 0)  -->
<svg version="1.1" id="Layer_1" xmlns="http://www.w3.org/2000/svg" xmlns:xlink="http://www.w3.org/1999/xlink" x="0px" y="0px"
	 viewBox="0 0 174 186.8" style="enable-background:new 0 0 174 186.8;" xml:space="preserve">
<style type="text/css">
	.st0{fill:#5B5B5B;}
	.st1{fill:#FFFFFF;stroke:#231F20;stroke-miterlimit:10;}
	.st2{fill:#231F20;}
	.st3{fill:#5EC936;}
	.st4{fill:#FFFFFF;}
	.st5{fill:#8C8C8C;}
</style>
<g id="Layer_1_1_">
	<path class="st0" d="M29.3,31.7l0.1,4.1c0.3,17.7,4.5,31.2,12.3,40.4V91C30,81,18.8,62.2,18.8,27.1c0-3.1,2.6-5.7,5.7-5.7h17.2
		v10.3h-8.4H29.3z"/>
	<rect x="45.7" y="42.5" class="st1" width="87.7" height="0.2"/>
	<path class="st0" d="M154.3,21.4c3.1,0,5.7,2.5,5.7,5.7c0,34.8-11,53.5-22.6,63.6V75.8c7.7-9.1,11.7-22.6,12-40l0.1-4.1h-4.1h-8.1
		V21.4H154.3z"/>
	<g>
		<path class="st2" d="M41.7,96c-11.4-8.6-26.9-27.4-26.9-68.9c0-5.3,4.3-9.7,9.7-9.7h17.2v4H24.5c-3.1,0-5.7,2.5-5.7,5.7
			C18.8,62.2,30,81,41.7,90.9V96z"/>
		<path class="st2" d="M29.4,35.7l-0.1-4.1h4.1h8.4v4h-8.4c0.3,15.9,3.8,26.6,8.4,33.8v6.7C33.9,67,29.7,53.4,29.4,35.7z"/>
		<path class="st2" d="M149.5,31.7l-0.1,4.1c-0.4,17.5-4.4,30.9-12,40V69c4.4-7.1,7.8-17.7,8.1-33.3h-8.1v-4h8.1H149.5z"/>
		<path class="st2" d="M154.3,17.5c5.3,0,9.7,4.3,9.7,9.7c0,41.1-15.3,60-26.6,68.7v-5.1C149,80.7,160,62,160,27.1
			c0-3.1-2.5-5.7-5.7-5.7h-16.9v-4L154.3,17.5L154.3,17.5z"/>
	</g>
	<polygon class="st1" points="130.6,46.5 133.4,46.5 133.4,46.6 133.3,46.7 130.5,46.7 	"/>
	<path class="st3" d="M133.4,17.5v-7H45.7v7v18.2V44h87.7v-8.4l0,0V17.5L133.4,17.5z M63.4,34.7c0,0.2-0.2,0.5-0.5,0.5h-3
		c-0.2,0-0.5-0.2-0.5-0.5V18.4c0-0.2,0.2-0.5,0.5-0.5h3c0.2,0,0.5,0.2,0.5,0.5V34.7z M93.5,33.8c0,0-2.5,1.6-6.1,1.6
		c-4.9,0-8.9-3.9-8.9-8.8s4-8.9,8.9-8.9c2.1,0,4.3,0.9,6,2.3c0.2,0.2,0.2,0.5,0,0.7l-1.9,2.1c-0.1,0.1-0.2,0.1-0.4,0.1
		c-0.1,0-0.2,0-0.3-0.1c-0.9-0.9-2-1.2-3.2-1.2c-2.7,0-4.9,2.3-4.9,5s2.2,4.9,4.9,4.9c0.7,0,1.5-0.1,2.2-0.4v-1.4h-1.5
		c-0.3,0-0.5-0.2-0.5-0.4v-2.5c0-0.3,0.2-0.5,0.5-0.5h2.9h2.1c0.2,0,0.4,0.2,0.4,0.5v6.7C93.7,33.6,93.6,33.8,93.5,33.8z
		 M119.6,34.7c0,0.2-0.2,0.5-0.5,0.5h-9.3c-0.3,0-0.5-0.2-0.5-0.5V18.4c0-0.2,0.2-0.5,0.5-0.5h2.9c0.2,0,0.5,0.2,0.5,0.5v13.2h5.9
		c0.3,0,0.5,0.2,0.5,0.5V34.7z"/>
	<path class="st3" d="M118.5,83.8c3.6,3.6,4,9.3,1.2,13.4c-2.8-2.2-6.2-3.3-9.8-3.3c-4.3,0-8.4,1.7-11.4,4.7l-9.2,9.2
		c-3.1,3-4.7,7.1-4.7,11.4s1.7,8.4,4.7,11.4c3,3.1,7.1,4.7,11.4,4.7s8.4-1.7,11.4-4.7l9.2-9.2c3.1-3,4.7-7.1,4.7-11.4
		c0-3.7-1.2-7.2-3.5-10c4.4-5.6,3.9-13.8-1.2-19l-9.8-9.8l21.8-21.8v24.9v24.3v6.1c0,25.7-23.7,37.9-43.8,43.6
		c-16.2-4.8-28-11.4-35.2-19.9L108.8,74L118.5,83.8z"/>
	<g>
		<path class="st2" d="M60,35.2c-0.2,0-0.5-0.2-0.5-0.5V18.4c0-0.2,0.2-0.5,0.5-0.5h3c0.2,0,0.5,0.2,0.5,0.5v16.4
			c0,0.2-0.2,0.5-0.5,0.5L60,35.2L60,35.2z"/>
		<path class="st2" d="M113.2,18.4v13.2h5.9c0.3,0,0.5,0.2,0.5,0.5v2.7c0,0.2-0.2,0.5-0.5,0.5h-9.3c-0.3,0-0.5-0.2-0.5-0.5V18.4
			c0-0.2,0.2-0.5,0.5-0.5h2.9C113,17.9,113.2,18.1,113.2,18.4z"/>
		<path class="st2" d="M93.7,26.8v6.7c0,0.1-0.1,0.3-0.2,0.4c0,0-2.5,1.6-6.1,1.6c-4.9,0-8.9-3.9-8.9-8.8s4-8.9,8.9-8.9
			c2.1,0,4.3,0.9,6,2.3c0.2,0.2,0.2,0.5,0,0.7l-1.9,2.1C91.4,23,91.3,23,91.1,23c-0.1,0-0.2,0-0.3-0.1c-0.9-0.9-2-1.2-3.2-1.2
			c-2.7,0-4.9,2.3-4.9,5s2.2,4.9,4.9,4.9c0.7,0,1.5-0.1,2.2-0.4v-1.4h-1.5c-0.3,0-0.5-0.2-0.5-0.4v-2.5c0-0.3,0.2-0.5,0.5-0.5h2.9
			h2.1C93.5,26.3,93.7,26.5,93.7,26.8z"/>
	</g>
	<polygon class="st1" points="130.5,46.7 45.7,46.7 45.7,46.5 130.6,46.5 	"/>
	<path class="st4" d="M76.6,65.6v-9.2h-3.8h-7.7v9.2h-9.2v7.7v3.8h9.2v9.2h11.5v-9.2h9.2V65.6H76.6z"/>
	<path class="st5" d="M45.7,46.7v28v24.1v5.9c0,7.7,2.1,14.5,6.2,20.5l31.8-31.8l9.2-9.2l37.5-37.5C130.4,46.7,45.7,46.7,45.7,46.7z
		 M80.6,81v9.2H61.1V81h-9.2V61.6h9.2v-9.2h19.5v9.2h9.2V81H80.6z"/>
	<path class="st1" d="M135.4,47.3v0.1V47.3z"/>
	<path class="st0" d="M133.4,174.1v2.2H45.7v-2.2c0-5.6,4.6-10.1,10.1-10.1H67h45h0.1h11.2C128.8,164,133.4,168.5,133.4,174.1z"/>
	<polygon class="st1" points="132.8,44.7 132.4,44.7 132.6,44.5 	"/>
	<g>
		<polygon class="st2" points="124.4,104.6 121.8,107.2 113.4,115.6 117.4,119.7 118.8,121.1 117.4,122.5 116,123.9 114.6,122.5 
			97.4,105.3 96,103.9 97.4,102.5 98.8,101.1 100.2,102.5 104.2,106.5 112.6,98.1 115.3,95.4 116.7,96.8 118.1,98.2 116.5,99.7 
			107,109.3 110.5,112.8 120.1,103.3 121.6,101.7 123,103.2 		"/>
		<path class="st2" d="M122.6,99.9c4.4-5.6,3.9-13.8-1.2-19l-9.8-9.8l-2.8,2.8l9.8,9.8c3.6,3.6,4,9.3,1.2,13.4
			c-2.8-2.2-6.2-3.3-9.8-3.3c-4.3,0-8.4,1.7-11.4,4.7l-9.2,9.2c-3.1,3-4.7,7.1-4.7,11.4s1.7,8.4,4.7,11.4c3,3.1,7.1,4.7,11.4,4.7
			s8.4-1.7,11.4-4.7l9.2-9.2c3.1-3,4.7-7.1,4.7-11.4C126.1,106.3,124.9,102.8,122.6,99.9z M118.5,118.6l-1.1,1.1l1.4,1.4l-1.4,1.4
			l-1.4,1.4l-1.4-1.4l-5.3,5.3c-2.3,2.3-5.3,3.6-8.6,3.6c-3.2,0-6.3-1.3-8.6-3.6s-3.6-5.4-3.6-8.6c0-3.3,1.3-6.3,3.6-8.6l5.3-5.3
			l-1.4-1.4l1.4-1.4l1.4-1.4l1.4,1.4l1.1-1.1c2.3-2.3,5.4-3.6,8.6-3.6c0.9,0,1.8,0.1,2.6,0.3l2.7-2.7l1.4,1.4l1.4,1.4l0,0l-1.5,1.5
			c0.7,0.5,1.4,1,2,1.6s1.1,1.2,1.5,1.9l1.5-1.5l-0.3-0.4l-2.8-2.8l2.8,2.8l0.3,0.4l1.4,1.4l1.4,1.4l-2.6,2.6
			c0.2,0.9,0.3,1.8,0.3,2.8C122.1,113.2,120.8,116.3,118.5,118.6z"/>
	</g>
	<g>
		<path class="st4" d="M121.8,107.2c0.2,0.9,0.3,1.8,0.3,2.8c0,3.3-1.3,6.3-3.6,8.6l-1.1,1.1l-4.1-4.1L121.8,107.2z"/>
		<path class="st4" d="M120.1,103.3l-9.5,9.6l-3.6-3.6l9.5-9.5c0.7,0.5,1.4,1,2,1.6C119.1,101.9,119.7,102.6,120.1,103.3z"/>
		<path class="st4" d="M114.6,122.5l-5.3,5.3c-2.3,2.3-5.3,3.6-8.6,3.6c-3.2,0-6.3-1.3-8.6-3.6s-3.6-5.4-3.6-8.6
			c0-3.3,1.3-6.3,3.6-8.6l5.3-5.3L114.6,122.5z"/>
		<path class="st4" d="M112.6,98.1l-8.4,8.4l-4-4l1.1-1.1c2.3-2.3,5.4-3.6,8.6-3.6C110.8,97.8,111.7,97.9,112.6,98.1z"/>
	</g>
	<path class="st2" d="M134.7,46.7h-1.4l1.4-1.5H132l-39,39l-9.2,9.2L52,125.2c0.4,0.6,0.8,1.1,1.2,1.6s0.8,1.1,1.3,1.6L108.8,74l0,0
		l2.8-2.8l0,0l21.8-21.8l2-2v-0.1L134.7,46.7z"/>
	<path class="st0" d="M101.7,160H77.4c2.8-2.5,4.6-5.9,5.1-9.7c2,0.7,4.1,1.4,6.3,2l0.3,0.1H90l0.3-0.1c2.2-0.6,4.3-1.3,6.4-2
		C97.1,154.1,98.9,157.6,101.7,160z"/>
	<path class="st2" d="M123.2,160H112c-6.2,0-11.3-4.9-11.6-11.1c-1.3,0.5-2.6,1-3.9,1.4c0.5,3.8,2.3,7.3,5.1,9.7H77.4
		c2.8-2.5,4.6-5.9,5.1-9.7c-1.3-0.5-2.6-0.9-3.9-1.4C78.4,155,73.3,160,67,160H55.9c-7.8,0-14.1,6.3-14.1,14.1v6.2h95.6v-6.2
		C137.4,166.3,131,160,123.2,160z M133.4,176.4H45.7v-2.2c0-5.6,4.6-10.1,10.1-10.1H67h45h0.1h11.2c5.6,0,10.1,4.5,10.1,10.1V176.4z
		"/>
	<g>
		<path class="st2" d="M61.1,52.4h19.5v9.2h9.2V81h-9.2v9.2H61.1V81h-9.2V61.6h9.2V52.4z M76.6,65.6v-9.2h-3.8h-7.7v9.2h-9.2v7.7
			v3.8h9.2v9.2h11.5v-9.2h9.2V65.6H76.6z"/>
		<polygon class="st2" points="72.8,65.6 72.8,66 68.9,66 68.9,59.4 72.8,59.4 		"/>
		<polygon class="st2" points="65.6,69.3 65.6,73.3 65.1,73.3 59,73.3 59,69.3 		"/>
		<rect x="76" y="69.3" class="st2" width="6.6" height="4"/>
		<rect x="68.9" y="76.4" class="st2" width="4" height="6.6"/>
	</g>
	<g>
		<path class="st2" d="M54.4,128.4c-0.4-0.5-0.9-1-1.3-1.6c-0.4-0.5-0.8-1.1-1.2-1.6c-4.1-6-6.2-12.9-6.2-20.5v-5.9
			c-0.6-0.4-1.3-0.8-2-1.3c-0.6-0.4-1.3-0.9-2-1.4v8.7c0,8.8,2.4,16.6,7.2,23.4c6.1,8.6,16,15.5,29.6,20.8c1.3,0.5,2.6,1,3.9,1.4
			c2,0.7,4.1,1.4,6.3,2l0.3,0.1h1l0.3-0.1c2.2-0.6,4.3-1.3,6.4-2c1.3-0.5,2.6-0.9,3.9-1.4c24.2-9.3,36.9-24.4,36.9-44.2v-8.9v-5.1
			v-15V69V46.7h-2h-0.6l0.6,0.6l0,0l0.1,0.1l-0.1,0.1l-2,2v24.9v24.3l0,0v6.1c0,25.7-23.7,37.9-43.8,43.6
			C73.3,143.6,61.6,136.9,54.4,128.4L54.4,128.4z"/>
		<path class="st2" d="M41.7,6.5v11v4v10.3v4v6.8l0,0v4.2v22.8v6.7v14.8V96c0.7,0.5,1.3,1,2,1.4c0.7,0.5,1.3,0.9,2,1.3V74.6v-28l0,0
			v-0.2h84.9h2.7v0.1v0.1h1.4h0.6h2v-4.2v-6.8v-4V21.4v-4v-11H41.7V6.5z M133.4,17.5v18.2v6.8v0.2H45.7v-0.2v-6.8V17.5v-7h87.7V17.5
			z"/>
	</g>
</g>
</svg>
