<?xml version="1.0" encoding="utf-8"?>
<!-- Generator: Adobe Illustrator 19.2.0, SVG Export Plug-In . SVG Version: 6.00 Build 0)  -->
<svg version="1.1" id="Layer_1" xmlns="http://www.w3.org/2000/svg" xmlns:xlink="http://www.w3.org/1999/xlink" x="0px" y="0px"
	 viewBox="0 0 180 195.4" style="enable-background:new 0 0 180 195.4;" xml:space="preserve">
<style type="text/css">
	.st0{fill:#996699;}
	.st1{fill:#FFFFFF;stroke:#231F20;stroke-miterlimit:10;}
	.st2{fill:#4F1A51;}
	.st3{fill:#FFFF00;}
	.st4{fill:#FFFFFF;}
	.st5{fill:#CC99CC;}
</style>
<g>
	<path class="st0" d="M30,35.9l0.1,4.1c0.3,17.7,4.5,31.2,12.3,40.4v14.8c-11.8-10-22.9-28.7-22.9-63.9c0-3.1,2.6-5.7,5.7-5.7h17.2
		v10.3H34H30z"/>
	<rect x="46.4" y="46.8" class="st1" width="87.7" height="0.2"/>
	<path class="st0" d="M154.9,25.7c3.1,0,5.7,2.5,5.7,5.7c0,34.8-11,53.5-22.6,63.6V80c7.7-9.1,11.7-22.6,12-40l0.1-4.1h-4.1h-8.1
		V25.7H154.9z"/>
	<path class="st2" d="M42.4,100.2C31,91.8,15.5,72.8,15.5,31.4c0-5.3,4.3-9.7,9.7-9.7h17.2v4H25.1c-3.1,0-5.7,2.5-5.7,5.7
		c0,35.1,11.2,53.8,22.9,63.8L42.4,100.2L42.4,100.2z"/>
	<path class="st2" d="M30,40v-4.1h4.1h8.4v4h-8.4c0.3,15.9,3.8,26.6,8.4,33.8v6.7C34.5,71.2,30.4,57.8,30,40z"/>
	<path class="st2" d="M150.1,35.9L150,40c-0.4,17.5-4.4,30.9-12,40v-6.8c4.4-7.1,7.8-17.7,8.1-33.3H138v-4h8.1
		C146.1,35.9,150.1,35.9,150.1,35.9z"/>
	<path class="st2" d="M154.9,21.7c5.3,0,9.7,4.3,9.7,9.7c0,41.1-15.3,60-26.6,68.7v-5.2c11.6-10,22.6-28.7,22.6-63.6
		c0-3.1-2.5-5.7-5.7-5.7H138v-4L154.9,21.7L154.9,21.7z"/>
	<polygon class="st1" points="131.2,50.8 134,50.8 134,50.8 133.9,50.9 131.1,50.9 	"/>
	<path class="st3" d="M134,21.7v-7H46.4v7v18.2v8.4h87.7v-8.4l0,0V21.7H134z M64.1,39c0,0.2-0.2,0.5-0.5,0.5h-3
		c-0.2,0-0.5-0.2-0.5-0.5V22.6c0-0.2,0.2-0.5,0.5-0.5h3c0.2,0,0.5,0.2,0.5,0.5V39z M94.1,38.2c0,0-2.5,1.6-6.1,1.6
		c-4.9,0-8.9-3.9-8.9-8.8s4-8.9,8.9-8.9c2.1,0,4.3,0.9,6,2.3c0.2,0.2,0.2,0.5,0,0.7l-1.9,2.1c-0.1,0.1-0.2,0.1-0.4,0.1
		c-0.1,0-0.2,0-0.3-0.1c-0.9-0.9-2-1.2-3.2-1.2c-2.7,0-4.9,2.3-4.9,5s2.2,4.9,4.9,4.9c0.7,0,1.5-0.1,2.2-0.4v-1.5h-1.5
		c-0.3,0-0.5-0.2-0.5-0.4V31c0-0.3,0.2-0.5,0.5-0.5h2.9h2.1c0.2,0,0.4,0.2,0.4,0.5v6.7C94.3,37.8,94.2,38,94.1,38.2z M120.2,39
		c0,0.2-0.2,0.5-0.5,0.5h-9.2c-0.3,0-0.5-0.2-0.5-0.5V22.6c0-0.2,0.2-0.5,0.5-0.5h2.9c0.2,0,0.5,0.2,0.5,0.5v13.2h5.9
		c0.3,0,0.5,0.2,0.5,0.5v2.7C120.3,39.1,120.2,39.1,120.2,39z"/>
	<path class="st3" d="M119.2,88c3.6,3.6,4,9.3,1.2,13.4c-2.8-2.2-6.2-3.3-9.8-3.3c-4.3,0-8.4,1.7-11.4,4.7l-9.2,9.2
		c-3.1,3-4.7,7.1-4.7,11.4c0,4.3,1.7,8.4,4.7,11.4c3,3.1,7.1,4.7,11.4,4.7s8.4-1.7,11.4-4.7l9.2-9.2c3.1-3,4.7-7.1,4.7-11.4
		c0-3.7-1.2-7.2-3.5-10c4.4-5.6,3.9-13.8-1.2-19l-9.8-9.8l21.8-21.8v24.9v24.3v6.1c0,25.7-23.7,37.9-43.8,43.6
		c-16.2-4.8-28-11.4-35.2-19.9l54.4-54.4L119.2,88z"/>
	<path class="st2" d="M60.6,39.4c-0.2,0-0.5-0.2-0.5-0.5V22.6c0-0.2,0.2-0.5,0.5-0.5h3c0.2,0,0.5,0.2,0.5,0.5V39
		c0,0.2-0.2,0.5-0.5,0.5L60.6,39.4L60.6,39.4z"/>
	<path class="st2" d="M113.9,22.6v13.2h5.9c0.3,0,0.5,0.2,0.5,0.5v2.7c0,0.2-0.2,0.5-0.5,0.5h-9.3c-0.3,0-0.5-0.2-0.5-0.5V22.6
		c0-0.2,0.2-0.5,0.5-0.5h2.9C113.7,22.1,113.9,22.4,113.9,22.6z"/>
	<path class="st2" d="M94.3,31v6.7c0,0.1-0.1,0.3-0.2,0.4c0,0-2.5,1.6-6.1,1.6c-4.9,0-8.9-3.9-8.9-8.8s4-8.9,8.9-8.9
		c2.1,0,4.3,0.9,6,2.3c0.2,0.2,0.2,0.5,0,0.7l-1.9,2.1c-0.1,0.1-0.2,0.1-0.4,0.1c-0.1,0-0.2,0-0.3-0.1c-0.9-0.9-2-1.2-3.2-1.2
		c-2.7,0-4.9,2.3-4.9,5s2.2,4.9,4.9,4.9c0.7,0,1.5-0.1,2.2-0.4v-1.5h-1.5c-0.3,0-0.5-0.2-0.5-0.4V31c0-0.3,0.2-0.5,0.5-0.5h2.9h2.1
		C94.1,30.5,94.3,30.9,94.3,31z"/>
	<polygon class="st1" points="131.1,50.9 46.4,50.9 46.4,50.8 131.2,50.8 	"/>
	<path class="st4" d="M77.2,69.8v-9.2h-3.7h-7.7v9.2h-9.3v7.7v3.8h9.2v9.2h11.5v-9.2h9.3V69.8H77.2z"/>
	<path class="st5" d="M46.4,50.9v28V103v5.9c0,7.7,2.1,14.5,6.2,20.5l31.8-31.8l9.2-9.2l37.5-37.5H46.4z M81.2,85.3v9.2H61.8v-9.2
		h-9.3V65.8h9.2v-9.2h19.5v9.2h9.3v19.5H81.2z"/>
	<polygon class="st1" points="136.1,51.7 136,51.7 136,51.5 	"/>
	<path class="st0" d="M134,178.4v2.2H46.4v-2.2c0-5.6,4.6-10.1,10.1-10.1h11.2h45h0.1h11.2C129.5,168.2,134,172.8,134,178.4z"/>
	<polygon class="st1" points="133.4,48.9 133.1,48.9 133.2,48.8 	"/>
	<polygon class="st2" points="125.1,108.8 122.4,111.4 114,119.9 118.1,123.9 119.5,125.3 118.1,126.8 116.7,128.2 115.3,126.8 
		98,109.5 96.6,108.1 98,106.8 99.4,105.3 100.9,106.8 104.8,110.8 113.2,102.3 115.9,99.6 117.3,101 118.7,102.4 117.2,104 
		107.6,113.5 111.2,117.1 120.7,107.5 122.3,106 123.7,107.4 	"/>
	<path class="st2" d="M123.2,104.2c4.4-5.6,3.9-13.8-1.2-19l-9.8-9.8l-2.8,2.8l9.8,9.8c3.6,3.6,4,9.3,1.2,13.4
		c-2.8-2.2-6.2-3.3-9.8-3.3c-4.3,0-8.4,1.7-11.4,4.7l-9.2,9.2c-3.1,3-4.7,7.1-4.7,11.4s1.7,8.4,4.7,11.4c3,3.1,7.1,4.7,11.4,4.7
		s8.4-1.7,11.4-4.7l9.2-9.2c3.1-3,4.7-7.1,4.7-11.4C126.7,110.5,125.5,107,123.2,104.2z M119.2,122.8l-1.1,1.1l1.4,1.4l-1.4,1.4
		l-1.4,1.4l-1.4-1.4l-5.3,5.3c-2.3,2.3-5.3,3.6-8.6,3.6c-3.2,0-6.3-1.3-8.6-3.6c-2.3-2.3-3.6-5.4-3.6-8.6c0-3.3,1.3-6.3,3.6-8.6
		l5.3-5.3l-1.4-1.4l1.4-1.4l1.4-1.4l1.4,1.4l1.1-1.1c2.3-2.3,5.4-3.6,8.6-3.6c0.9,0,1.8,0.1,2.6,0.3l2.7-2.7l1.4,1.4l1.4,1.4l0,0
		l-1.5,1.5c0.7,0.5,1.4,1,2,1.6s1.1,1.2,1.5,1.9l1.5-1.5l-0.3-0.4l-2.8-2.8l2.8,2.8l0.3,0.4l1.4,1.4l1.4,1.4l-2.6,2.6
		c0.2,0.9,0.3,1.8,0.3,2.8C122.8,117.5,121.5,120.5,119.2,122.8z"/>
	<path class="st4" d="M122.4,111.4c0.2,0.9,0.3,1.8,0.3,2.8c0,3.3-1.3,6.3-3.6,8.6l-1.1,1.1l-4.1-4.1L122.4,111.4z"/>
	<path class="st4" d="M120.7,107.5l-9.5,9.6l-3.6-3.6l9.5-9.5c0.7,0.5,1.4,1,2,1.6C119.8,106.2,120.3,106.8,120.7,107.5z"/>
	<path class="st4" d="M115.3,126.8l-5.3,5.3c-2.3,2.3-5.3,3.6-8.6,3.6c-3.2,0-6.3-1.3-8.6-3.6c-2.3-2.3-3.6-5.4-3.6-8.6
		c0-3.3,1.3-6.3,3.6-8.6l5.3-5.3L115.3,126.8z"/>
	<path class="st4" d="M113.2,102.3l-8.4,8.4l-4-4l1.1-1.1c2.3-2.3,5.4-3.6,8.6-3.6C111.5,102,112.4,102.1,113.2,102.3z"/>
	<path class="st0" d="M102.3,164.2H78.1c2.8-2.5,4.6-5.9,5.1-9.7c2,0.7,4.1,1.4,6.3,2l0.3,0.1h0.9l0.3-0.1c2.2-0.6,4.3-1.3,6.4-2
		C97.7,158.4,99.6,161.8,102.3,164.2z"/>
	<path class="st2" d="M123.9,164.2h-11.2c-6.2,0-11.3-4.9-11.6-11.1c-1.3,0.5-2.6,1-3.9,1.4c0.5,3.8,2.3,7.3,5.1,9.7H78.1
		c2.8-2.5,4.6-5.9,5.1-9.7c-1.3-0.5-2.6-0.9-3.9-1.4c-0.2,6.2-5.3,11.2-11.6,11.2H56.5c-7.8,0-14.1,6.3-14.1,14.1v6.2H138v-6.2
		C138,170.6,131.6,164.2,123.9,164.2z M134,180.6H46.4v-2.2c0-5.6,4.6-10.1,10.1-10.1h11.2h45h0.1h11.2c5.6,0,10.1,4.5,10.1,10.1
		L134,180.6L134,180.6z"/>
	<path class="st2" d="M61.8,56.7h19.5v9.2h9.2v19.5h-9.2v9.2H61.8v-9.2h-9.3V65.8h9.2L61.8,56.7L61.8,56.7z M77.2,69.8v-9.2h-3.7
		h-7.7v9.2h-9.3v7.7v3.8h9.2v9.2h11.5v-9.2h9.3V69.8H77.2z"/>
	<polygon class="st2" points="73.5,69.8 73.5,70.2 69.5,70.2 69.5,63.6 73.5,63.6 	"/>
	<polygon class="st2" points="66.3,73.6 66.3,77.5 65.7,77.5 59.7,77.5 59.7,73.6 	"/>
	<rect x="76.7" y="73.6" class="st2" width="6.6" height="4"/>
	<rect x="69.5" y="80.6" class="st2" width="4" height="6.6"/>
	<path class="st2" d="M135.4,50.9H134l1.4-1.5h-2.8l-39,39l-9.2,9.2l-31.8,31.8c0.4,0.6,0.8,1.1,1.2,1.6s0.8,1.1,1.3,1.6l54.4-54.4
		l0,0l2.8-2.8l0,0l21.8-21.8l2-2v-0.1L135.4,50.9z"/>
	<path class="st2" d="M55,132.6c-0.4-0.5-0.9-1-1.3-1.6c-0.4-0.5-0.8-1.1-1.2-1.6c-4.1-6-6.2-12.9-6.2-20.5V103
		c-0.6-0.4-1.3-0.8-2-1.3c-0.6-0.4-1.3-0.9-2-1.4v8.7c0,8.8,2.4,16.6,7.2,23.4c6.1,8.6,16,15.5,29.6,20.8c1.3,0.5,2.6,1,3.9,1.4
		c2,0.7,4.1,1.4,6.3,2l0.3,0.1h0.9l0.3-0.1c2.2-0.6,4.3-1.3,6.4-2c1.3-0.5,2.6-0.9,3.9-1.4c24.2-9.3,36.9-24.4,36.9-44.2v-8.9v-5.2
		V80v-6.8V50.9h-2h-0.6l0.6,0.6l0,0l0.1,0.1l-0.1,0.1l-2,2v24.9v24.3l0,0v6.1c0,25.7-23.7,37.9-43.8,43.6
		C74,147.8,62.2,141.1,55,132.6L55,132.6z"/>
	<path class="st2" d="M42.4,10.7v11v4v10.2v4v6.8l0,0v4.2v22.8v6.7v14.8v5.1c0.7,0.5,1.3,1,2,1.4c0.7,0.5,1.3,0.9,2,1.3V78.8V50.9
		l0,0v-0.2h84.9h2.7v0.1v0.1h1.4h0.6h2v-4.2v-6.8v-4V25.7v-4v-11C138,10.7,42.4,10.7,42.4,10.7z M134,21.7v18.2v6.8v0.2H46.4v-0.2
		v-6.8V21.7v-7h87.7v7H134z"/>
</g>
</svg>
